<svg xmlns="http://www.w3.org/2000/svg" width="1920" height="631" viewBox="0 0 1920 631"><g fill="none" fill-rule="evenodd"><path fill="#ECF0F1" fill-rule="nonzero" d="M0 611h1920v2H0z"/><path fill="#ECF0F1" fill-rule="nonzero" d="M1527 602.8c-65.4-24.4-92.8-46.4-92.8-60.8v-69.6h-126.4V542c0 14.4-27.4 36.4-92.8 60.8-1.6 2.5-1.7 6.6-1.7 9h315.2c.1-2.4 0-6.4-1.5-9z"/><path fill="#D7DADA" fill-rule="nonzero" d="M1441.6 556.6c-5-5.4-7.5-10.4-7.5-14.6v-69.6h-126.4V528l133.9 28.6z"/><path stroke="#5F5A76" stroke-linecap="round" stroke-linejoin="round" stroke-width="2.238" d="M1527 602.8c-65.4-24.4-92.8-46.4-92.8-60.8v-69.6h-126.4V542c0 14.4-27.4 36.4-92.8 60.8-1.6 2.5-1.7 6.6-1.7 9h315.2c.1-2.4 0-6.4-1.5-9z"/><path fill="#ECF0F1" fill-rule="nonzero" stroke="#5F5A76" stroke-linecap="round" stroke-linejoin="round" stroke-width="2.238" d="M1669.6 506.3c0 5.8-4.7 10.6-10.6 10.6h-576.1c-5.8 0-10.6-4.7-10.6-10.6V128.9c0-5.8 4.7-10.6 10.6-10.6h576.2c5.8 0 10.6 4.7 10.6 10.6v377.4h-.1z"/><path fill="#6A6683" fill-rule="nonzero" stroke="#5F5A76" stroke-linecap="round" stroke-linejoin="round" stroke-width="2.238" d="M1659.1 118.3h-576.2c-5.8 0-10.6 4.7-10.6 10.6V458h597.3V128.9c0-5.9-4.7-10.6-10.5-10.6z"/><path fill="#FFF" fill-rule="nonzero" stroke="#5F5A76" stroke-linecap="round" stroke-linejoin="round" stroke-width="2.238" d="M1090.2 144h561.6v295.4h-561.6z"/><g fill-rule="nonzero" stroke="#5F5A76" stroke-linecap="round" stroke-linejoin="round" stroke-width="2.238"><path fill="#1F9AD0" d="M1749.6 241c-.8-10 6.6-18.8 16.6-19.6l8.6-.7c10-.8 18.8 6.6 19.6 16.6l3.8 46.9c.8 10-6.6 18.8-16.6 19.6l-8.6.7c-10 .8-18.8-6.6-19.6-16.6l-3.8-46.9z"/><path fill="#579FCA" d="M1753.4 281.1l21.9-1.8 21.8 271.8-21.8 1.8z"/><path fill="#8ED5FF" d="M1773.4 279.4l23.7-1.9 21.9 271.8-23.8 1.9z"/><path fill="#FFF" d="M1751.4 274.8c-.1-.7.5-1.4 1.2-1.5l44-3.6c.7-.1 1.4.5 1.5 1.2l1.4 17.4c.1.7-.5 1.4-1.2 1.5l-44 3.6c-.7.1-1.4-.5-1.5-1.2l-1.4-17.4z"/><path fill="#FFDBB3" d="M1790.4 593.7c8.5-2.8 15.3-1.8 20-.1l8.6-44.3c-5.9-11.3-17.4-3-17.4-3-3.3-5.9-15.4-5.2-17.7-.8-5.7-.9-8.6 7.4-8.6 7.4l15.1 40.8z"/><path fill="#5F5A76" d="M1790.4 593.7l13.1 35.3 6.9-35.4c-4.7-1.7-11.5-2.8-20 .1z"/></g><path fill="#FFDBB3" fill-rule="nonzero" stroke="#5F5A76" stroke-linecap="round" stroke-linejoin="round" stroke-width="2.238" d="M1634.3 239.5l-.2-.2c-8.6-.5-14.5-7.1-22.5 1.7-1.1 4.2-6.6 19.7-7.7 28.7-1 8.3-3.1 24-8.8 46.2-1.8 6.9-6.4 20.1-6.6 21 0 0 .2 7.2.8 9.7.4 1.9 1.2 3 1.7 4s2.1 3.4 2.5 4.3c.5 1 1.2 1.8 1.9 1 .8-.8 1.5-3.7-.1-6-1.7-2.3-1.5-3.5-2-5-.2-.9-.1-2.7 0-3.9.5 2.5 1.1 5.6 1.6 7.1.7 2.1 1.7 3.2 2.3 4.2.7 1 2.7 3.5 3.3 4.5.6 1 1.5 1.9 2.2.9.8-1 1.2-4.3-.9-6.7-2.1-2.4-2.3-3.6-2.7-5.3-.6-2.6-1.2-6-1.3-6.8.6 2.3 1.6 5.8 2.3 7.3.8 1.8 1.7 2.8 2.4 3.6.7.9 2.6 2.9 3.3 3.9.6.9 1.5 1.6 2.1.6.6-.9.8-3.9-1.2-5.9-2-2-2.1-3.1-2.8-4.6-.7-1.4-1.3-5.4-1.4-6 .9 1.7 2.2 4.1 2.7 5.1.7 1.5 1.8 2.1 2.5 2.8.7.7 3.1 1.9 3.7 2.6.7.7 1.5 1.2 1.9.2.4-.9-.1-3.2-2.1-4.6-2-1.5-2.2-2.4-3-3.6-1.2-2-1.8-4.4-1.8-4.4.8-6 3.6-11.7 3.2-18 0-.5-.1-3.3-.5-5.3 5.4-14.5 14.8-35.1 18.4-43.9 4.6-11.3 8.1-25.9 6.8-29.2z"/><path fill="#FFF" fill-rule="nonzero" stroke="#5F5A76" stroke-linecap="round" stroke-linejoin="round" stroke-width="2.238" d="M1622.6 281.9c-9.7-.4-19.9-3.9-19.9-3.9s-1.9-1.2-1.6-3c.3-1.9 1.8-7.9 1.8-7.9s-2.5-1.3-1.8-5.2c.7-3.9 3.3-8.4 3.5-10.4.2-2-1.3-3.1-.4-4.9.9-1.8 6.4-9.4 6.5-11.3.1-1.9-.7-3.6-.1-5.1.6-1.5 5.5-11.8 7.4-20.2 2-8.4 12.2-48.5 16.7-57.4 7.6-14.9 12.5-18.8 12.5-18.8l10.3 10.6-34.9 137.5z"/><path fill="#FFDBB3" fill-rule="nonzero" stroke="#5F5A76" stroke-linecap="round" stroke-linejoin="round" stroke-width="2.238" d="M1596.5 562.1l-18.6 40.7-22.8-9.1 14-42.5z"/><g fill-rule="nonzero"><path fill="#FFF" d="M1576.3 622.4l-3.4 7.3-75.9-30 3.4-7.3 23.9 9.5z"/><path fill="#6A6683" d="M1550.7 582.8c6-1.6 7.7-4.2 9.8-3.2 2.2 1.1 3.6 5 .1 8.2-1.2-.5-2.7-.8-4.8-.7-4.4 0-22 .5-25.8.8-3.9.3-4.2 3-4.2 3-.3-2.2-1-3.7-1.3-4.3 0 0 .7-2.1 4.2-2 3.5-.1 16.1-.2 22-1.8z"/><path fill="#7F7B97" d="M1530 587.9c3.9-.3 21.5-.8 25.8-.8 2.1 0 3.6.2 4.8.7 1.4.6 2.4 1.5 3.7 3 2.4 2.9 5.8 5.9 9.8 7.3 4 1.5 5.9.7 6.6 3.9.7 3.2 0 12.8-4.4 20.4l-51.9-20.5c1.7-4.6 1.9-8.4 1.5-11.1-.1 0 .2-2.7 4.1-2.9z"/><path fill="#FFF" d="M1524.5 586.5c.3.7 1 2.1 1.3 4.3.4 2.7.3 6.4-1.5 11.1l-23.9-9.5s4.2-10.4 23.9-6.3l.2.4z"/></g><g stroke="#5F5A76" stroke-linecap="round" stroke-linejoin="round" stroke-width="2.238"><path d="M1576.3 622.4l-52-20.5-23.9-9.5-3.4 7.3 75.9 30z"/><path d="M1500.4 592.4s4.2-10.4 23.9-6.3c0 0 .1.1.2.4.3.7 1 2.1 1.3 4.3.4 2.7.3 6.4-1.5 11.1"/><path d="M1525.8 590.8s.3-2.7 4.2-3c3.9-.3 21.5-.8 25.8-.8 2.1 0 3.6.2 4.8.7 1.4.6 2.4 1.5 3.7 3 2.4 2.9 5.8 5.9 9.8 7.3 4 1.5 5.9.7 6.6 3.9.7 3.2 0 12.8-4.4 20.4"/><path d="M1524.5 586.5s.7-2.1 4.2-2c3.5 0 16-.1 22-1.6 6-1.6 7.7-4.2 9.8-3.2 2.2 1.1 3.6 5 .1 8.2"/></g><path d="M1534.8 591.2c.2.9-.3 1.8-1.2 2-.9.2-1.8-.3-2-1.2l-2-8.1c-.2-.9.3-1.8 1.2-2 .9-.2 1.8.3 2 1.2l2 8.1zm6.9.2c.2.9-.3 1.8-1.2 2-.9.2-1.8-.3-2-1.2l-2.2-8.8c-.2-.9.3-1.8 1.2-2 .9-.2 1.8.3 2 1.2l2.2 8.8zm6.9.2c.2.9-.3 1.8-1.2 2-.9.2-1.8-.3-2-1.2l-2.5-9.5c-.2-.9.3-1.8 1.2-2 .9-.2 1.8.3 2 1.2l2.5 9.5zm7 .1c.2.9-.3 1.8-1.2 2-.9.2-1.8-.3-2-1.2l-2.7-10.2c-.2-.9.3-1.8 1.2-2 .9-.2 1.8.3 2 1.2l2.7 10.2z" fill="#FFF" fill-rule="nonzero" stroke="#5F5A76" stroke-linecap="round" stroke-linejoin="round" stroke-width="1.5"/><path fill="#4390BE" fill-rule="nonzero" stroke="#5F5A76" stroke-linecap="round" stroke-linejoin="round" stroke-width="2.238" d="M1616.1 299.7S1596 405.3 1591.2 432c-4.7 26.7-14.4 91.6-24.7 122.1l30.2 12s28.3-58.2 32.4-75.2c4.1-17 7.2-42.1 10.1-50.8 2.8-8.7 24.2-62.9 27.6-71.3 3.4-8.4 14.8-21.1 13.9-47.9l-63.1-25-1.5 3.8z"/><path fill="#FFDBB3" fill-rule="nonzero" stroke="#5F5A76" stroke-linecap="round" stroke-linejoin="round" stroke-width="2.238" d="M1719.7 558.1l-2.3 44.7h-24.5l-2.7-44.7z"/><g fill-rule="nonzero"><path fill="#FFF" d="M1723.1 621.7l-.5 8H1641l.5-8h25.8z"/><path fill="#6A6683" d="M1684.8 594.3c4.9-3.7 5.6-6.8 8-6.6 2.4.2 5.1 3.3 3.1 7.6-1.3 0-2.8.3-4.7 1.1-4.1 1.6-20.2 8.6-23.7 10.2-3.5 1.7-2.8 4.3-2.8 4.3-1.1-1.9-2.2-3.1-2.8-3.6 0 0-.1-2.2 3.2-3.4 3.1-1.3 14.7-6 19.7-9.6z"/><path fill="#7F7B97" d="M1667.4 606.6c3.5-1.7 19.7-8.6 23.7-10.2 1.9-.8 3.4-1.1 4.7-1.1 1.5 0 2.8.5 4.5 1.5 3.3 1.8 7.5 3.3 11.8 3.2 4.2-.1 5.7-1.5 7.5 1.2 1.8 2.7 4.7 11.9 3.4 20.6h-55.9c-.1-5-1.4-8.5-2.7-10.8.2-.1-.6-2.8 3-4.4z"/><path fill="#FFF" d="M1661.8 607.3c.6.5 1.7 1.6 2.8 3.6 1.3 2.4 2.6 5.9 2.7 10.8h-25.7s0-11.2 19.9-14.7c-.1 0 .1.1.3.3z"/></g><g stroke="#5F5A76" stroke-linecap="round" stroke-linejoin="round" stroke-width="2.238"><path d="M1723.1 621.7h-81.6l-.5 8h81.6zm-81.6 0s0-11.2 19.9-14.7l.3.3c.6.5 1.7 1.6 2.8 3.6 1.3 2.4 2.6 5.9 2.7 10.8"/><path d="M1664.6 610.9s-.7-2.6 2.8-4.3c3.5-1.7 19.7-8.6 23.7-10.2 1.9-.8 3.4-1.1 4.7-1.1 1.5 0 2.8.5 4.5 1.5 3.3 1.8 7.5 3.3 11.8 3.2 4.2-.1 5.7-1.5 7.5 1.2 1.8 2.7 4.7 11.9 3.4 20.6"/><path d="M1661.8 607.3s-.1-2.2 3.2-3.4c3.2-1.2 14.9-6 19.8-9.6 4.9-3.7 5.6-6.8 8-6.6 2.4.2 5.1 3.3 3.1 7.6"/></g><path d="M1673.1 607.9c.5.7.3 1.8-.4 2.3-.7.5-1.8.3-2.3-.4l-4.8-6.8c-.5-.7-.4-1.8.4-2.3.7-.5 1.8-.3 2.3.4l4.8 6.8zm6.5-2.4c.5.7.4 1.8-.4 2.3-.7.5-1.8.3-2.3-.4l-5.3-7.4c-.5-.7-.4-1.7.4-2.3.7-.5 1.8-.3 2.3.4l5.3 7.4zm6.5-2.4c.5.7.3 1.8-.4 2.3-.7.5-1.8.3-2.3-.4l-5.8-7.9c-.5-.7-.4-1.8.4-2.3.7-.5 1.8-.3 2.3.4l5.8 7.9zm6.5-2.3c.5.7.3 1.8-.4 2.3-.7.5-1.8.4-2.3-.4l-6.3-8.5c-.5-.7-.4-1.8.4-2.3.7-.5 1.7-.3 2.3.4l6.3 8.5z" fill="#FFF" fill-rule="nonzero" stroke="#5F5A76" stroke-linecap="round" stroke-linejoin="round" stroke-width="1.5"/><path fill="#579FCA" fill-rule="nonzero" stroke="#5F5A76" stroke-linecap="round" stroke-linejoin="round" stroke-width="2.238" d="M1641.4 306.9s20.1 105.6 25.6 132.2c5.4 26.5 20.3 90.4 21.9 122.6h32.5s4.9-64.5 2.5-81.9c-2.4-17.4-8.8-41.8-9.3-50.9-.6-9.1-.6-67.4-.6-76.4.1-9 6-25-4.7-49.7h-67.9v4.1z"/><path fill="#5F5A76" fill-rule="nonzero" stroke="#5F5A76" stroke-linecap="round" stroke-linejoin="round" stroke-width="2.238" d="M1751.5 61.3c-.9 11.8-10.2 21.4-20.7 21.4s-18.2-9.6-17.3-21.4c.9-11.8 10.2-21.4 20.7-21.4s18.3 9.5 17.3 21.4z"/><path fill="#5F5A76" fill-rule="nonzero" stroke="#5F5A76" stroke-linecap="round" stroke-linejoin="round" stroke-width="2.238" d="M1726.8 72.6c-6.7 33.4-27.4 29-25.2 46.9h-19.4V56.6c0-.1 37-6.5 44.6 16zm-85.6-8.4c-2.1 34.4-6.2 54.8 11.4 60.4 0 0-2.2-12.5 2.2-30.8s7.6-29 7.6-29l-21.2-.6z"/><path fill="#FFF" fill-rule="nonzero" d="M1705.1 125.8c7.1 7.7 13.5 9.6 16.5 11.1 9.9 5 18.3 9.2 15.2 32-3.1 22.8-18.2 41.5-26.8 63.2-8.5 21.7-8.6 27.6-5.5 38.7 3.1 11.1 7.6 28.8 8.2 30.1.6 1.3-2.2 4.8-2.2 4.8s-49.8 19-96.1 0c0 0-2.2-4.2-1.2-8.3 1-4.1 10.5-37.1 12.4-58 1.8-20.9 1.9-27.6.6-34.9-1.3-7.3-4-20.2-1.5-27.5 2.5-7.3 9.3-17.7 12.3-23.3 3-5.6 6.5-17.2 10.1-19.8 3.6-2.6 11.3-4.5 14.4-6.6l43.6-1.5z"/><path d="M1625.3 198.9c.2 1.3.4 2.4.6 3.5 15.4 5.2 42 11.2 82.2 11.2 3.5 0 7.1 0 10.8-.1.5-1 1.1-2.1 1.6-3.1-48.1 1.4-78.9-5.9-95.2-11.5zm1.8 15.4v3.3c15.8 4.9 41.2 10 78.1 10 2.2 0 4.5 0 6.8-.1.4-1 .9-2 1.4-3-41.5.7-69.6-5-86.3-10.2zm-.6 14.6c-.1 1-.2 2.1-.2 3.2 15.9 4.7 40.7 9.4 76.2 9.4 1.4 0 2.8 0 4.2-.1.3-1 .7-2 1.1-3-38.3.4-64.8-4.7-81.3-9.5zm-1.3 14.3c-.1 1-.3 2.1-.4 3.2 16 4.5 40.4 9 74.8 9h3.4c.1-1 .3-2 .5-3-36.3.1-61.9-4.5-78.3-9.2zm111.7-74.7c-51.6 2.4-84.6-5-102.1-10.9-.5.9-1 1.8-1.6 2.8 15.2 5.3 42.1 11.7 83.4 11.7 6.3 0 12.9-.2 19.8-.5.2-.9.3-1.8.5-2.7v-.4zm-113.2 14.9v3.3c14.3 5.5 42.2 13 87.1 13 4.9 0 10-.1 15.3-.3l1.5-3c-55.3 2.1-88.6-7.1-103.9-13zm4.1-13.4c-.5 1-.9 1.9-1.4 2.8 14.3 5.5 42.2 13.1 87.3 13.1 5.9 0 12.2-.2 18.8-.4.4-1 .7-2 1.1-3-55.8 2.4-89.7-6.4-105.8-12.5z" fill="#5F5A76" fill-rule="nonzero"/><path stroke="#5F5A76" stroke-linecap="round" stroke-linejoin="round" stroke-width="2.238" d="M1705.1 125.8c7.1 7.7 13.5 9.6 16.5 11.1 9.9 5 18.3 9.2 15.2 32-3.1 22.8-18.2 41.5-26.8 63.2-8.5 21.7-8.6 27.6-5.5 38.7 3.1 11.1 7.6 28.8 8.2 30.1.6 1.3-2.2 4.8-2.2 4.8s-49.8 19-96.1 0c0 0-2.2-4.2-1.2-8.3 1-4.1 10.5-37.1 12.4-58 1.8-20.9 1.9-27.6.6-34.9-1.3-7.3-4-20.2-1.5-27.5 2.5-7.3 9.3-17.7 12.3-23.3 3-5.6 6.5-17.2 10.1-19.8 3.6-2.6 11.3-4.5 14.4-6.6l43.6-1.5z"/><path fill="#FFDBB3" fill-rule="nonzero" d="M1701.3 91.6s-1.5 14.4-.9 22.6c.6 8.2 7.5 14.9 7.5 14.9s-11.1 18.2-36.6 13.4c-11.1-2.1-12.2-12-10.5-14.4 1.6-2.3 11.5-9.8 11.5-36.6h29v.1z"/><path fill="#F3D0A9" fill-rule="nonzero" d="M1700.3 109.3c0-8 1.1-17.7 1.1-17.7h-29.1c0 26.8-9.8 34.3-11.5 36.6-.8 1.1-.9 4 .3 6.9 18.7-3 33.1-18.2 39.2-25.8z"/><path stroke="#5F5A76" stroke-linecap="round" stroke-linejoin="round" stroke-width="2.238" d="M1701.3 91.6s-1.5 14.4-.9 22.6c.6 8.2 7.5 14.9 7.5 14.9s-11.1 18.2-36.6 13.4c-11.1-2.1-12.2-12-10.5-14.4 1.6-2.3 11.5-9.8 11.5-36.6h29v.1z"/><path fill="#5F5A76" fill-rule="nonzero" stroke="#5F5A76" stroke-linecap="round" stroke-linejoin="round" stroke-width="2.238" d="M1654.6 26.3c-20.5 12.1-40.4 43-3.8 48.3h11.3V26.3h-7.5z"/><path fill="#FFDBB3" fill-rule="nonzero" stroke="#5F5A76" stroke-linecap="round" stroke-linejoin="round" stroke-width="2.238" d="M1661.5 33.8c-13.6 8.9-16.5 21.7-16.5 35.3 0 13.6.1 14-.6 20.9-.7 6.9 5.9 24.6 14.4 26 9.7 1.6 31.5-3.1 41-18.1 10.8-3.5 19.5-12.1 20.4-34.6 1-27.1-32.4-46.8-58.7-29.5z"/><path fill="#6A6683" fill-rule="nonzero" stroke="#5F5A76" stroke-linecap="round" stroke-linejoin="round" stroke-width="2.238" d="M1653.2 27.3c-4.6 3.4 1.3 26.9 22.5 40.4 19.5 12.5 36.1 13.4 36.1 13.4s12.9.6 15.1-8.6c3.1-13.2.3-34.6-22-46.8-19.6-10.5-43.4-4.7-51.7 1.6z"/><g fill-rule="nonzero"><path fill="#EC4F4F" d="M1672.5 70.3s1.2-.1 3.4-.2c2.1 0 5.2 0 8.8.5 1.8.2 3.8.5 5.8.8 1 .2 2.1.4 3.2.7.6.1 1 .3 1.6.5.5.2.7.4 1.1.6.3.3.6.5.8.8 1 1.3 1 2.9 1.1 3.9 0 .5 0 1.4-.1 2-.1.6-.4 2.6-.6 3.2-.2.6-.4 1.2-.7 1.7-.2.5-.5 1.2-.9 1.7-.8 1.1-1.9 1.9-3.1 2.5-2.4 1-4.9 1.2-7.2 1.4-2.4.2-4.8 0-7.1-.5s-4.3-1.3-6.2-2.3c-.9-.5-1.8-1.1-2.6-1.8-.4-.4-.7-.7-1.1-1.2-.1-.1-.2-.3-.3-.4l-.2-.3c-.2-.4-.2-.5-.3-.8-.4-2 0-5.1.1-6.5 0-.4.1-.7.1-1.1.1-.4.1-.8.2-1.1.2-.7.4-1.3.8-1.8.7-1 1.4-1.7 2.3-2 .7-.2.9-.2.9-.2l.2-.1z"/><path fill="#FFDBB3" d="M1672.8 72.3s-.4 0-.8.2c-.2.1-.8.4-1.2 1.2-.3.3-.5.8-.6 1.3-.1.3-.1.5-.2.8 0 .3-.1.7-.1 1-.2 1.4-.5 4.4-.3 6 0 .1.1.4.1.5l.1.3c.1.1.1.1.1.2.2.2.5.6.8.9.7.6 1.5 1.2 2.3 1.7 1.7 1 3.7 1.9 5.8 2.4 2.1.5 4.4.8 6.7.5 1.2 0 2.3-.2 3.5-.4l1.7-.4c.5-.2 1-.4 1.6-.6.9-.6 1.8-1.2 2.3-2.1.2-.5.4-.9.6-1.5.2-.6.4-1.1.5-1.6.2-.5.3-2.4.4-2.9.1-.3 0-.5 0-.7v-.8c-.1-1.2-.3-2.1-.7-2.6l-.3-.3c-.1-.1-.4-.2-.4-.2-.5-.1-1.1-.3-1.6-.4-1-.2-1.9-.5-3-.6-2-.4-3.9-.7-5.6-.9-1.8-.3-3.4-.4-4.8-.5-1.4-.1-2.7-.1-3.7-.2h-3.2v-.3z"/><path fill="#EC4F4F" d="M1645.3 67h.1s.2 0 .7-.1c.4 0 1.1-.2 1.9-.2.8 0 1.8-.1 2.9.1 1.1.1 2.4.3 3.7.5 1.4.3 2.7.6 4.5 1.3l.5.3.1.1h.1l.1.1c.1.1.3.2.4.3.3.2.4.5.6.8.2.3.2.6.3.8.3 1.1.2 2 .1 2.9-.1.4-.1.9-.2 1.3-.1.5-.1 1-.3 1.4-.2.9-.6 1.8-.9 2.6-.7 1.5-1.5 3.5-3.2 4.7-1.6 1.2-3.7 1.5-5.4 1.6-1.8.1-3.8-.3-5.3-1.3s-2.7-2.1-3.6-3.7c-.2-.4-.4-.8-.5-1.2l-.1-.3c-.1-.3 0-.3 0-.4V78c-.1-.8 0-1.5.1-2.2.1-1.4.3-2.6.4-3.7.2-1.2.4-2.2.8-3 .2-.4.4-.8.6-1.1.1-.2.2-.3.3-.4.2-.2.3-.3.5-.4.4-.3.4-.2.5-.3.2.2.2.1.3.1z"/><path fill="#FFDBB3" d="M1645.9 68.9l-.2.1c-.1 0-.4.1-.3.2l-.2.2c-.1.2-.3.4-.4.7-.3.6-.6 1.4-.8 2.4-.2 1.1-.4 2.3-.6 3.6-.1.6-.2 1.3-.1 2v.7l.1.3c.1.2.1.4.2.5l.2.4c.6 1.1 1.7 2.4 3 3.2 1.3.9 2.9 1.3 4.5 1.2.9 0 1.7-.2 2.5-.4.8-.3 1.5-.6 2.1-1.1 1.2-1 1.6-2.6 2.2-4.3l.6-2.4c.1-.4.1-.8.1-1.1 0-.4.1-.8.1-1.3.1-.8.1-1.5-.1-2 0-.1-.1-.3-.1-.3 0-.1-.1-.2-.1-.2v-.1s.2.1.1 0h-.1l-.1-.1-.5-.3c-1.1-.4-2.6-.9-3.8-1.2-1.3-.3-2.4-.5-3.5-.6-1-.2-1.9-.1-2.7-.2-.7 0-1.3.1-1.7.1h-.6.2z"/><path fill="#EC4F4F" d="M1696.1 72.9s2.8.9 3.4 1.1c.6.2.9 1.1.9 1.8s-.3 2-.3 2.2c0 .2-.7.7-1.1.9-.4.2-.7.7-.7.7l-2.2-6.7z"/><path fill="#EC4F4F" d="M1699.4 74.1l9.4 3.7-1.8 2.7-7.6-2.4zm-55.1-6.5s-1.7.5-2 .7c-.3.2-.6.5-.6.9s-.1 1.1-.1 1.4c0 .3 1.2.9 1.2.9l1.5-3.9zm16.5 4.6s4.8-.6 8.5 1.7l-.9 3.2s-5-3-8.3-1.5l.7-3.4z"/></g><path fill="#FFDBB3" fill-rule="nonzero" d="M1703.1 81.9s4.3-7.6 11-7.2c6.8.4 4.3 11.1 0 16.5s-11.4 7-14.3 6.7c0 0-.1-7.9 3.3-16z"/><path stroke="#5F5A76" stroke-linecap="round" stroke-linejoin="round" stroke-width="2.238" d="M1703.1 81.9s4.3-7.6 11-7.2c6.8.4 4.3 11.1 0 16.5s-11.4 7-14.3 6.7"/><path fill="#5F5A76" fill-rule="nonzero" d="M1687.2 80.2c-.2 2.1-1.6 3.6-3.2 3.5-1.6-.1-2.8-1.9-2.6-4 .2-2.1 1.6-3.6 3.3-3.5 1.5.1 2.7 1.9 2.5 4zm-31.1-3.7c-.2 1.8-1.3 3.2-2.7 3.1-1.3-.1-2.3-1.7-2.1-3.5.1-1.8 1.3-3.2 2.7-3.1 1.3.1 2.2 1.7 2.1 3.5z"/><path stroke="#5F5A76" stroke-linecap="round" stroke-linejoin="round" stroke-width="2.238" d="M1659.3 92.1s-1.9-1.3-.6-4.5"/><path stroke="#EC4F4F" stroke-linecap="round" stroke-linejoin="round" stroke-width="2.238" d="M1658 101.2s5.8 2.4 12.2-.7"/><path stroke="#5F5A76" stroke-linecap="round" stroke-linejoin="round" stroke-width="2.238" d="M1673.6 68.4s3.2-1.4 10.5.9m-27.2-3s-1.8-1.2-4.3-1.4"/><path fill="#FFDBB3" fill-rule="nonzero" d="M1721.5 271.1c.4 3.9-1.4 6.2-2.1 6.4-.7.2-1.3-1.9-1.8-3.8-.1-.4-.2-.9-.4-1.4.6 1.6-.7 3.8-1.5 4.1-.8.3-1.5-1.9-2.1-3.8-.4-1.3-3-8.1-3-10.2.1-2.1.2-10.4 1-12.5.7-2.1 8.3-16.4 9.6-19.5 1.3-3.1 2.7-5.3 5.4-6.6 2.7-1.3 25.2-10.8 25.2-10.8l8.5 15.2s-20.7 5-21.9 5.7c-1.1.7-1.1 3.2-1.8 6.4-1.5 6.7-5.5 10.9-5.8 11.6-.3.8.3 7.3.4 9 .1 1.6 1.6 2.5 2.6 5.4 1.1 2.9-.4 4.6-1.1 3.9-.7-.7-5.6-5.2-6-7.1-.1-.6-.4-1.8-.6-3.2.3 2-.2 4.7.3 6.4.5 1.7 1.3 3.8 1 6.2-.2 2.4-2.3 2.1-2.8 1-.6-1.1-2.9-5.2-3.4-7.6-.1-.5-.3-1.4-.4-2.5.1 1.6.2 3.7.7 7.7z"/><g stroke="#5F5A76" stroke-linecap="round" stroke-linejoin="round" stroke-width="2.238"><path d="M1726 259.9c.3 1.4.5 2.6.6 3.2.4 1.9 5.3 6.4 6 7.1.7.7 2.2-1 1.1-3.9s-2.6-3.8-2.6-5.4c-.1-1.6-.7-8.2-.4-9 .3-.7 4.3-5 5.8-11.6.7-3.2.7-5.6 1.8-6.4 1.1-.7 21.9-5.7 21.9-5.7l-8.5-15.2s-22.5 9.5-25.2 10.8c-2.7 1.3-4.1 3.5-5.4 6.6-1.3 3.1-8.8 17.4-9.6 19.5-.7 2.1-.9 10.4-1 12.5-.1 2.1 2.6 8.9 3 10.2.6 2 1.3 4.1 2.1 3.8.8-.2 2.1-2.5 1.5-4.1m7.6-19.4s.7 3.8 1.3 6.8"/><path d="M1719.4 253.9s.7 5.8 1.3 9.6c.2 1.1.3 1.9.4 2.5.5 2.4 2.9 6.4 3.4 7.6.6 1.1 2.7 1.5 2.8-1 .2-2.4-.5-4.5-1-6.2-.5-1.7 0-4.4-.3-6.4v-.1"/><path d="M1714.9 253.9s-.1 9.3 0 11.5c.1 1.8 1.5 4.7 2.3 6.8.2.5.4 1 .4 1.4.5 2 1 4 1.8 3.8.7-.2 2.6-2.5 2.1-6.4-.4-3.9-.6-6.1-.8-7.6"/></g><path fill="#FFF" fill-rule="nonzero" d="M1803.3 202.3c-.6-.5-1.8-1.6-3.7-3.2-7.9-6.7-25.9-21.5-36.9-30.9-13.5-11.6-30.9-24.8-30.9-24.8-5.6-2.7-16.2 11.3-17 27.6-.9 16.3 3.6 28 11.2 29 7.6 1.1 36.3 5.9 36.3 5.9-5.8 2.8-13.8 6.7-13.8 6.7l10.3 17.8s32.2-2.4 40.8-10.5c8.6-8.1 6.7-14.8 3.7-17.6z"/><path stroke="#5F5A76" stroke-linecap="round" stroke-linejoin="round" stroke-width="2.238" d="M1762.3 205.8s-28.7-4.8-36.3-5.9c-7.6-1-12.1-12.7-11.2-29 .9-16.3 11.5-30.3 17-27.6 0 0 17.4 13.2 30.9 24.8 11 9.4 28.9 24.2 36.9 30.9 1.9 1.6 3.1 2.7 3.7 3.2 3 2.8 4.9 9.5-3.8 17.6-8.6 8.1-40.8 10.5-40.8 10.5l-10.3-17.8s8.1-3.8 13.9-6.7c2.4-1.2 4.4-2.1 5.3-2.6 3-1.5 9.8-5.2 25.8-2.7"/><g fill-rule="nonzero"><path fill="#8ED5FF" d="M1071.171 538.077c-12.974-8.923-5.125-23.643-11.14-33.394-6.013-9.748-2.144-19.753 4.007-26.18 6.152-6.43 7.667-11.703 3.321-20.808-4.343-9.106.557-20.23 4.64-25.322 4.081-5.092 13.911-12.101 17.886-33.678 3.98-21.577 33.164-31.45 33.164-31.45s18.778 24.397 10.085 44.546c-8.69 20.142-4.423 31.424-3.854 37.923.564 6.5-1.553 18.47-10.228 23.632-8.678 5.162-10.351 10.388-8.81 19.144 1.542 8.76-.803 19.224-11.23 23.994-10.423 4.775-12.082 21.37-27.84 21.593z"/><path fill="#5F5A76" d="M1071.171 539.2a1.13 1.13 0 0 1-.638-.198c-8.245-5.669-8.561-13.74-8.842-20.863-.188-4.738-.363-9.212-2.617-12.868-6.418-10.403-2.066-21.05 4.15-27.543 6.21-6.491 7-11.425 3.12-19.549-4.508-9.452.386-21.032 4.776-26.508.706-.88 1.58-1.817 2.565-2.874 4.718-5.057 11.851-12.7 15.094-30.303 4.053-21.974 32.692-31.901 33.911-32.314.452-.15.959 0 1.252.38.786 1.019 19.08 25.156 10.229 45.676-7.095 16.447-5.414 26.763-4.3 33.587.232 1.417.434 2.675.534 3.796.603 6.988-1.767 19.332-10.774 24.694-7.745 4.606-9.835 9.145-8.28 17.985 1.56 8.85-.74 20.12-11.87 25.21-3.903 1.788-6.538 5.41-9.328 9.247-4.193 5.768-8.95 12.306-18.964 12.445h-.018zm51.471-170.61c-4.59 1.745-28.194 11.569-31.649 30.31-3.362 18.25-10.765 26.18-15.662 31.43-.943 1.009-1.78 1.902-2.453 2.745-4.036 5.034-8.566 15.616-4.501 24.137 4.323 9.055 3.4 14.83-3.523 22.066-2.737 2.86-11.097 13.09-3.863 24.816 2.562 4.153 2.758 9.136 2.949 13.956.281 7.138.548 13.883 7.575 18.894 8.637-.266 12.611-5.733 16.817-11.513 2.837-3.901 5.77-7.934 10.21-9.967 12.538-5.736 11.278-18.885 10.592-22.78-1.735-9.853.709-15.168 9.34-20.303 8.121-4.832 10.24-16.146 9.684-22.57-.093-1.068-.29-2.273-.51-3.628-1.157-7.083-2.901-17.787 4.452-34.837 7.558-17.514-6.609-38.76-9.458-42.755z"/><path fill="#5F5A76" d="M1071.171 539.2c-.108 0-.217-.015-.324-.05a1.118 1.118 0 0 1-.75-1.399l51.877-170.832c.182-.595.812-.942 1.401-.75.596.18.932.805.75 1.4L1072.248 538.4c-.147.487-.593.8-1.077.8z"/><path fill="#5F5A76" d="M1080.204 509.465c-.407 0-.8-.222-1-.609l-10.559-20.476a1.125 1.125 0 0 1 2-1.03l10.559 20.476a1.123 1.123 0 0 1-1 1.639zm1.899-5.842a1.122 1.122 0 0 1-.412-2.168l21.45-8.457a1.122 1.122 0 1 1 .826 2.089l-21.45 8.457c-.135.053-.276.08-.414.08zm28.054-92.273a1.122 1.122 0 0 1-.412-2.168l17.602-6.936a1.131 1.131 0 0 1 1.459.631 1.122 1.122 0 0 1-.634 1.458l-17.602 6.935a1.11 1.11 0 0 1-.413.08zm-14.938 48.912a1.122 1.122 0 0 1-.412-2.168l28.375-11.18a1.123 1.123 0 1 1 .827 2.089l-28.376 11.18a1.14 1.14 0 0 1-.414.08zm-1.422 4.437c-.408 0-.8-.222-1-.609l-13.297-25.808a1.125 1.125 0 1 1 2-1.03l13.296 25.808a1.123 1.123 0 0 1-1 1.639zm14.065-46.308c-.407 0-.8-.222-1-.609l-8.154-15.796a1.123 1.123 0 0 1 .484-1.514 1.13 1.13 0 0 1 1.516.483l8.154 15.797a1.123 1.123 0 0 1-1 1.639z"/><path fill="#8ED5FF" d="M1068.783 529.766c12.034-8.112 4.93-21.737 10.553-30.67 5.624-8.93 2.148-18.182-3.464-24.15-5.613-5.977-6.96-10.85-2.881-19.199 4.08-8.351-.334-18.641-4.056-23.37-3.716-4.727-12.708-11.27-16.184-31.179-3.479-19.911-30.28-29.261-30.28-29.261s-17.51 22.314-9.678 40.95c7.834 18.636 3.803 28.993 3.226 34.975-.577 5.984 1.266 17.025 9.218 21.857 7.949 4.833 9.443 9.66 7.949 17.714-1.498 8.054.574 17.717 10.137 22.203 9.564 4.485 10.944 19.785 25.46 20.13z"/><path fill="#5F5A76" d="M1068.783 530.89h-.026c-9.267-.22-13.605-6.3-17.43-11.668-2.528-3.546-4.92-6.897-8.48-8.568-10.256-4.811-12.287-15.256-10.768-23.427 1.5-8.085-.373-12.262-7.427-16.549-8.292-5.039-10.376-16.47-9.751-22.926.1-1.033.299-2.195.525-3.502 1.08-6.267 2.717-15.739-3.67-30.927-7.995-19.028 9.097-41.146 9.83-42.08a1.13 1.13 0 0 1 1.258-.369c1.119.393 27.464 9.804 31.016 30.132 2.834 16.221 9.326 23.312 13.623 28.003.9.983 1.693 1.856 2.339 2.675 4.012 5.098 8.437 15.844 4.182 24.556-3.622 7.413-2.942 11.94 2.69 17.937 5.695 6.058 9.628 15.94 3.597 25.52-2.096 3.327-2.295 7.435-2.51 11.787-.32 6.579-.685 14.039-8.366 19.215-.19.124-.409.19-.632.19zm-45.916-157.602c-2.74 3.781-15.785 23.101-9.036 39.162 6.641 15.797 4.939 25.657 3.813 32.182-.217 1.244-.407 2.35-.504 3.336-.568 5.89 1.276 16.289 8.684 20.79 7.843 4.766 10.137 9.885 8.47 18.878-.665 3.565-1.937 15.613 9.507 20.98 4.098 1.923 6.774 5.675 9.358 9.304 3.808 5.335 7.4 10.377 15.29 10.71 6.463-4.532 6.764-10.716 7.084-17.26.217-4.448.442-9.045 2.852-12.87 6.732-10.693-.847-20.143-3.332-22.786-6.266-6.672-7.098-12.217-3.071-20.459 3.801-7.784-.266-17.533-3.93-22.185-.613-.778-1.375-1.61-2.23-2.543-4.473-4.887-11.234-12.27-14.176-29.136-3-17.164-24.427-26.397-28.78-28.103z"/><path fill="#5F5A76" d="M1068.783 530.89c-.487 0-.935-.32-1.081-.807l-46.313-157.83c-.173-.597.17-1.22.766-1.396.597-.16 1.219.17 1.398.764l46.312 157.83c.173.597-.17 1.22-.765 1.396a1.228 1.228 0 0 1-.317.043z"/><path fill="#5F5A76" d="M1060.724 503.416a1.123 1.123 0 0 1-.997-1.648l9.903-18.77a1.132 1.132 0 0 1 1.521-.471c.551.29.763.969.472 1.519l-9.903 18.77c-.203.384-.592.6-.996.6zm-1.701-5.396c-.14 0-.284-.027-.422-.083l-19.689-7.974a1.122 1.122 0 0 1-.622-1.463 1.131 1.131 0 0 1 1.466-.621l19.688 7.974a1.122 1.122 0 0 1-.42 2.166zm-25.046-85.248c-.14 0-.284-.026-.422-.083l-16.155-6.543a1.122 1.122 0 0 1-.622-1.463 1.128 1.128 0 0 1 1.466-.62l16.155 6.543a1.122 1.122 0 0 1-.422 2.166zm13.335 45.188c-.14 0-.284-.027-.422-.083l-26.04-10.547a1.122 1.122 0 0 1-.621-1.463 1.128 1.128 0 0 1 1.465-.62l26.04 10.547a1.122 1.122 0 0 1-.422 2.166zm1.275 4.1a1.123 1.123 0 0 1-.997-1.648l12.47-23.66a1.139 1.139 0 0 1 1.523-.472c.55.29.762.97.471 1.52l-12.47 23.66c-.203.38-.592.6-.997.6zm-12.555-42.785a1.124 1.124 0 0 1-.997-1.648l7.646-14.48a1.13 1.13 0 0 1 1.522-.471c.55.29.762.972.471 1.519l-7.646 14.48c-.202.383-.592.6-.996.6z"/><path fill="#8ED5FF" d="M1055.298 532.368c4.356-6.974-2.477-12.39-1.626-18.314.847-5.923-3.088-9.91-7.377-11.706-4.288-1.802-6.113-4.016-5.928-9.276.182-5.265-4.484-9.576-7.503-11.168-3.02-1.591-9.189-2.906-15.592-12.413-6.406-9.511-22.444-8.171-22.444-8.171s-3.907 15.588 4.455 23.432c8.364 7.846 8.675 14.138 9.76 17.368 1.084 3.23 4.59 8.523 9.824 9.192 5.235.67 7.128 2.827 8.212 7.343 1.084 4.513 4.394 9.04 10.382 9.16 5.988.116 10.238 7.72 17.837 4.553z"/><path fill="#5F5A76" d="M1051.647 534.264c-3.125 0-5.71-1.521-8.075-2.912-2.071-1.22-4.033-2.373-6.137-2.414-6.7-.135-10.308-5.265-11.45-10.02-1.044-4.344-2.809-5.922-7.264-6.492-5.68-.729-9.54-6.347-10.747-9.95-.19-.568-.36-1.226-.548-1.97-.876-3.438-2.202-8.638-8.915-14.937-8.743-8.2-4.941-23.862-4.777-24.524a1.128 1.128 0 0 1 1-.848c.685-.052 16.772-1.28 23.472 8.665 5.135 7.627 10.059 9.769 13.317 11.184.706.308 1.334.58 1.865.861 3.365 1.776 8.3 6.488 8.103 12.2-.157 4.478 1.117 6.472 5.24 8.204 4.514 1.894 9.002 6.274 8.054 12.9-.298 2.08.525 4.199 1.398 6.44 1.395 3.585 2.978 7.65.07 12.31a1.108 1.108 0 0 1-.521.441c-1.463.613-2.82.862-4.085.862zm-55.899-71.865c-.63 3.216-2.424 15.223 4.305 21.533 7.193 6.748 8.672 12.554 9.555 16.022.173.682.325 1.288.5 1.809 1.03 3.063 4.248 7.84 8.902 8.434 5.41.694 7.895 2.915 9.162 8.194.46 1.914 2.49 8.162 9.31 8.3 2.694.052 5.004 1.41 7.235 2.724 3.059 1.8 5.943 3.5 9.815 2.048 2.054-3.573.84-6.696-.446-9.996-.937-2.411-1.91-4.908-1.526-7.57.964-6.746-4.883-9.751-6.7-10.513-5.014-2.106-6.808-4.913-6.617-10.35.16-4.68-4.039-8.624-6.902-10.135-.49-.26-1.067-.509-1.715-.79-3.285-1.428-8.783-3.822-14.287-11.993-5.157-7.653-17.344-7.813-20.59-7.717z"/><path fill="#5F5A76" d="M1055.298 533.492a1.13 1.13 0 0 1-.859-.395l-60.47-71.048a1.129 1.129 0 0 1 .129-1.587c.48-.4 1.186-.342 1.589.128l60.47 71.049a1.129 1.129 0 0 1-.129 1.587 1.139 1.139 0 0 1-.73.266z"/><path fill="#5F5A76" d="M1044.774 521.124c-.023 0-.05 0-.073-.003a1.121 1.121 0 0 1-1.05-1.194l.786-12.004c.038-.617.59-1.117 1.196-1.047.621.041 1.09.573 1.049 1.194l-.786 12.004a1.124 1.124 0 0 1-1.122 1.05zm-14.167-1.996a1.125 1.125 0 0 1-.038-2.247l12.037-.407a1.132 1.132 0 0 1 1.163 1.085 1.125 1.125 0 0 1-1.087 1.162l-12.037.407h-.038zm-30.515-38.438a1.125 1.125 0 0 1-.039-2.248l9.877-.337c.592.02 1.143.465 1.163 1.086.02.62-.465 1.142-1.087 1.162l-9.876.336h-.038zm11.306 20.528a1.125 1.125 0 0 1-.038-2.247l15.92-.541a1.125 1.125 0 0 1 .076 2.247l-15.92.541h-.038z"/><path fill="#5F5A76" d="M1028.928 502.506c-.023 0-.047 0-.074-.003a1.121 1.121 0 0 1-1.049-1.194l.988-15.127c.038-.618.498-1.127 1.196-1.047.621.04 1.09.573 1.049 1.194l-.988 15.126a1.125 1.125 0 0 1-1.122 1.05zm-16.392-19.262c-.024 0-.05 0-.074-.003a1.123 1.123 0 0 1-1.049-1.194l.61-9.26c.038-.617.577-1.15 1.195-1.047.622.041 1.09.576 1.05 1.194l-.61 9.26a1.124 1.124 0 0 1-1.122 1.05z"/><path fill="#8ED5FF" d="M1083.663 532.368c-4.356-6.974 2.477-12.39 1.626-18.314-.847-5.923 3.09-9.91 7.376-11.706 4.289-1.802 6.114-4.016 5.93-9.276-.182-5.265 4.484-9.576 7.503-11.168 3.019-1.591 9.188-2.906 15.592-12.413 6.407-9.511 22.444-8.171 22.444-8.171s3.907 15.588-4.455 23.432c-8.365 7.846-8.675 14.138-9.76 17.368-1.084 3.23-4.59 8.523-9.824 9.192-5.235.67-7.128 2.827-8.212 7.343-1.085 4.513-4.393 9.04-10.382 9.16-5.99.116-10.24 7.72-17.838 4.553z"/><path fill="#5F5A76" d="M1087.314 534.264c-1.266 0-2.62-.25-4.085-.86a1.113 1.113 0 0 1-.522-.443c-2.907-4.659-1.324-8.724.07-12.309.875-2.241 1.697-4.36 1.399-6.44-.947-6.626 3.54-11.007 8.054-12.9 4.123-1.732 5.398-3.726 5.24-8.203-.196-5.713 4.74-10.425 8.104-12.201.53-.281 1.158-.553 1.865-.86 3.259-1.417 8.183-3.56 13.317-11.185 6.7-9.95 22.79-8.721 23.473-8.665.48.041.881.38 1 .848.163.662 3.964 16.324-4.778 24.524-6.715 6.299-8.039 11.498-8.915 14.938-.188.743-.358 1.401-.548 1.969-1.208 3.602-5.067 9.221-10.747 9.95-4.456.57-6.22 2.148-7.263 6.491-1.144 4.756-4.751 9.885-11.45 10.02-2.105.042-4.066 1.195-6.137 2.415-2.368 1.39-4.952 2.91-8.077 2.91zm-2.884-2.8c3.875 1.45 6.758-.247 9.815-2.05 2.23-1.313 4.54-2.671 7.233-2.724 6.82-.137 8.85-6.385 9.311-8.3 1.266-5.278 3.751-7.5 9.162-8.193 4.654-.595 7.872-5.37 8.901-8.434.176-.521.328-1.127.5-1.809.883-3.467 2.363-9.273 9.555-16.022 6.74-6.322 4.938-18.32 4.308-21.533-3.28-.096-15.434.058-20.592 7.717-5.504 8.171-11.002 10.565-14.287 11.993-.648.281-1.225.53-1.715.79-2.863 1.51-7.063 5.455-6.902 10.134.19 5.438-1.603 8.245-6.617 10.351-1.817.762-7.664 3.767-6.7 10.512.384 2.663-.59 5.16-1.526 7.57-1.287 3.301-2.5 6.424-.446 9.997z"/><path fill="#5F5A76" d="M1083.663 533.492c-.258 0-.516-.088-.73-.266a1.128 1.128 0 0 1-.13-1.587l60.471-71.049a1.132 1.132 0 0 1 1.59-.128c.47.404.53 1.112.128 1.587l-60.47 71.048a1.13 1.13 0 0 1-.86.395z"/><path fill="#5F5A76" d="M1094.187 521.124c-.59 0-1.084-.457-1.122-1.05l-.786-12.004a1.122 1.122 0 0 1 1.05-1.194c.588-.064 1.154.43 1.195 1.047l.785 12.004a1.122 1.122 0 0 1-1.049 1.194c-.023.003-.05.003-.073.003zm14.168-1.996h-.039l-12.036-.407a1.124 1.124 0 0 1-1.087-1.162c.02-.62.497-1.097 1.163-1.085l12.037.407a1.124 1.124 0 0 1-.038 2.247zm30.515-38.438h-.039l-9.876-.337a1.124 1.124 0 0 1-1.088-1.162c.02-.62.598-1.063 1.164-1.086l9.877.337a1.124 1.124 0 0 1-.039 2.247zm-11.307 20.528h-.038l-15.92-.54a1.124 1.124 0 0 1-1.087-1.163c.023-.62.56-1.106 1.163-1.085l15.92.541a1.124 1.124 0 0 1-.038 2.247z"/><path fill="#5F5A76" d="M1110.034 502.506c-.59 0-1.084-.457-1.122-1.05l-.988-15.127a1.122 1.122 0 0 1 1.05-1.194c.679-.077 1.154.43 1.195 1.047l.987 15.127a1.122 1.122 0 0 1-1.048 1.194c-.028.003-.05.003-.074.003zm16.391-19.262a1.124 1.124 0 0 1-1.122-1.05l-.61-9.26a1.124 1.124 0 0 1 1.05-1.194c.6-.097 1.154.43 1.195 1.047l.61 9.26a1.123 1.123 0 0 1-1.05 1.194c-.022.003-.049.003-.073.003z"/><path fill="#ECF0F1" d="M1105.46 582.6h-71.378l-11.52-62.095h94.418z"/><path fill="#5F5A76" d="M1105.46 583.718h-71.378c-.543 0-1.01-.384-1.11-.917l-11.52-62.095a1.119 1.119 0 0 1 1.11-1.318h94.418a1.118 1.118 0 0 1 1.11 1.318l-11.52 62.095c-.1.533-.567.917-1.11.917zm-70.44-2.235h69.5l11.107-59.86h-91.712l11.106 59.86z"/><path fill="#ECF0F1" d="M1021.793 564.124h8.925v46.923h-8.925z"/><path fill="#5F5A76" d="M1030.718 612.164h-8.925c-.62 0-1.122-.5-1.122-1.115v-46.923c0-.616.502-1.115 1.122-1.115h8.925c.62 0 1.122.499 1.122 1.115v46.923a1.12 1.12 0 0 1-1.122 1.115zm-7.803-2.232h6.68V565.24h-6.68v44.692z"/><path fill="#ECF0F1" d="M1108.829 564.124h8.925v46.923h-8.925z"/><path fill="#5F5A76" d="M1117.753 612.164h-8.925c-.62 0-1.122-.5-1.122-1.115v-46.923c0-.616.503-1.115 1.122-1.115h8.925c.62 0 1.122.499 1.122 1.115v46.923a1.12 1.12 0 0 1-1.122 1.115zm-7.802-2.232h6.68V565.24h-6.68v44.692z"/><path fill="#ECF0F1" d="M1030.718 583.29h78.111v8.18h-78.111z"/><path fill="#5F5A76" d="M1108.828 592.583h-78.11c-.62 0-1.122-.499-1.122-1.115v-8.18c0-.615.502-1.115 1.122-1.115h78.11c.62 0 1.123.5 1.123 1.116v8.18c0 .615-.503 1.114-1.123 1.114zm-76.988-2.23h75.866v-5.948h-75.866v5.948z"/><path fill="#ECF0F1" d="M1065.31 564.124h8.925v46.923h-8.925z"/><path fill="#5F5A76" d="M1074.236 612.164h-8.925c-.62 0-1.122-.5-1.122-1.115v-46.923c0-.616.502-1.115 1.122-1.115h8.925c.62 0 1.122.499 1.122 1.115v46.923a1.12 1.12 0 0 1-1.122 1.115zm-7.803-2.232h6.68V565.24h-6.68v44.692z"/></g><g stroke="#5F5A76" stroke-linecap="round" stroke-linejoin="round" stroke-width="1.492" transform="translate(787 1)"><path d="M160.2 270.9l6 6m0-6l-6 6M678.6 5.2l6 6m0-6l-6 6M1029 147.6l6 6m0-6l-6 6"/><circle cx="213" cy="222.2" r="4.3"/><circle cx="334" cy="76.2" r="4.3"/><path d="M1043 11.2l10.1 1.6-6.4 7.9zM794.3 61.9l-10.1 1.6 6.4 8zM371.5.4L361.3 2l6.5 8zM139.1 354c3.4 0 3.4 2.5 6.7 2.5 3.4 0 3.4-2.5 6.7-2.5 3.4 0 3.4 2.5 6.7 2.5 3.4 0 3.4-2.5 6.7-2.5 3.4 0 3.4 2.5 6.7 2.5 3.4 0 3.4-2.5 6.7-2.5m882.2-28c3.4 0 3.4 2.5 6.7 2.5 3.4 0 3.4-2.5 6.7-2.5 3.4 0 3.4 2.5 6.7 2.5 3.4 0 3.4-2.5 6.7-2.5 3.4 0 3.4 2.5 6.7 2.5 3.4 0 3.4-2.5 6.7-2.5M497.3 60.6c3.4 0 3.4 2.5 6.7 2.5 3.4 0 3.4-2.5 6.7-2.5 3.4 0 3.4 2.5 6.7 2.5 3.4 0 3.4-2.5 6.7-2.5 3.4 0 3.4 2.5 6.7 2.5 3.4 0 3.4-2.5 6.7-2.5M234 24.7l-1.6-1c-3.8-2.4-3.8-4.2-3.8-4.9 0-1.6 1.3-2.9 2.9-2.9 1 0 1.9.5 2.4 1.3.5-.8 1.4-1.3 2.4-1.3 1.6 0 2.9 1.3 2.9 2.9 0 .7 0 2.4-3.7 4.9l-1.5 1z"/></g></g></svg>