<svg xmlns="http://www.w3.org/2000/svg" xmlns:xlink="http://www.w3.org/1999/xlink" width="178" height="197" viewBox="0 0 178 197"><defs><rect id="b" width="103.918" height="117.878" y="32.122" rx="4"/><filter id="a" width="212.6%" height="199.3%" x="-56.3%" y="-39.4%" filterUnits="objectBoundingBox"><feOffset dy="12" in="SourceAlpha" result="shadowOffsetOuter1"/><feGaussianBlur in="shadowOffsetOuter1" result="shadowBlurOuter1" stdDeviation="17.5"/><feComposite in="shadowBlurOuter1" in2="SourceAlpha" operator="out" result="shadowBlurOuter1"/><feColorMatrix in="shadowBlurOuter1" values="0 0 0 0 0.925490196 0 0 0 0 0.941176471 0 0 0 0 0.945098039 0 0 0 1 0"/></filter></defs><g fill="none" fill-rule="evenodd" transform="translate(35)"><rect width="103.418" height="117.378" x="35.923" y=".25" fill="#FFF" stroke="#5F5A76" stroke-width=".5" rx="4"/><circle cx="55.837" cy="27.918" r="4.653" fill="#579FCA"/><circle cx="55.837" cy="48.082" r="4.653" fill="#2DB0EA"/><circle cx="55.837" cy="69.796" r="4.653" fill="#2DB0EA"/><circle cx="55.837" cy="89.959" r="4.653" fill="#2DB0EA"/><path stroke="#579FCA" stroke-linecap="square" d="M72.122 28.694h52.735M72.122 48.857h52.735M72.122 70.571h52.735"/><path stroke="#8ED5FF" stroke-linecap="square" d="M72.122 90.735h52.735"/><use fill="#000" filter="url(#a)" xlink:href="#b"/><rect width="103.418" height="117.378" x=".25" y="32.372" fill="#FFF" stroke="#5F5A76" stroke-linejoin="square" stroke-width=".5" rx="4"/><path stroke="#0E936E" stroke-linecap="square" d="M36.449 57.714h52.735M36.449 77.878h52.735M36.449 99.592h52.735"/><path stroke="#EC4F4F" stroke-linecap="square" d="M36.449 122.857h52.735"/><path fill="#0E936E" fill-rule="nonzero" d="M20.443 60.513l-3.7-3.874-1.233 1.291 4.933 5.166 10.57-11.07-1.233-1.291zm0 21.714l-3.7-3.874-1.233 1.291 4.933 5.166 10.57-11.07-1.233-1.291zm0 20.163l-3.7-3.874-1.233 1.292 4.933 5.165 10.57-11.07-1.233-1.29z"/><path stroke="#EC4F4F" stroke-width="1.5" d="M28.052 116.661L15.93 128.783m0-12.122l12.122 12.122"/><circle cx="116.327" cy="115.327" r="26.367" fill="#579FCA"/><text fill="#FFF" font-family="Roboto-Medium, Roboto" font-size="18" font-weight="400"><tspan x="103.715" y="121.959">8.0</tspan></text></g></svg>