<svg xmlns="http://www.w3.org/2000/svg" width="27" height="27" viewBox="0 0 27 27"><path fill="#6F5AFF" d="M19.468 9.216c.412.412.412 1.08 0 1.492l-7.076 7.076a1.055 1.055 0 0 1-1.491 0l-3.369-3.369a1.054 1.054 0 1 1 1.492-1.491l2.622 2.622 6.33-6.33a1.055 1.055 0 0 1 1.492 0zM27 13.5C27 20.962 20.961 27 13.5 27 6.038 27 0 20.961 0 13.5 0 6.038 6.039 0 13.5 0 20.962 0 27 6.039 27 13.5zm-2.11 0c0-6.296-5.095-11.39-11.39-11.39A11.384 11.384 0 0 0 2.11 13.5c0 6.296 5.095 11.39 11.39 11.39 6.296 0 11.39-5.095 11.39-11.39z"/></svg>