<svg xmlns="http://www.w3.org/2000/svg" width="17" height="44" viewBox="0 0 17 44"><g fill="none" fill-rule="evenodd"><path fill="#FFF" fill-rule="nonzero" d="M8.478 0C3.803 0 0 3.803 0 8.478v11.866c0 4.674 3.803 8.477 8.478 8.477 4.674 0 8.477-3.803 8.477-8.477V8.478C16.955 3.803 13.152 0 8.478 0zm6.748 20.344a6.756 6.756 0 0 1-6.748 6.748 6.756 6.756 0 0 1-6.749-6.748V8.478a6.756 6.756 0 0 1 6.749-6.749 6.756 6.756 0 0 1 6.748 6.749v11.866z"/><path fill="#FFF" fill-rule="nonzero" d="M8.515 5.95a.864.864 0 0 0-.865.865v3.98a.865.865 0 0 0 1.73 0v-3.98a.864.864 0 0 0-.865-.865z"/><path stroke="#FFF" stroke-linecap="round" stroke-linejoin="round" stroke-width="1.9" d="M3.4 37.1l4.832 5.368L13.6 37.1"/></g></svg>