<svg xmlns="http://www.w3.org/2000/svg" width="71" height="71" viewBox="0 0 71 71"><g fill="none"><path fill="#4390BE" stroke="#FFF" d="M66.3 38.065V31.62a2.031 2.031 0 0 0-2.031-2.032c-4.199 0-8.113.354-11.81 1.078a18.348 18.348 0 0 0-7.63-4.418c3.103-2.611 5.079-6.522 5.079-10.885C49.908 7.443 43.526 1 35.683 1c-7.844 0-14.226 6.442-14.226 14.36 0 4.364 1.976 8.275 5.079 10.886a18.351 18.351 0 0 0-7.63 4.418c-3.697-.724-7.611-1.078-11.81-1.078-1.122 0-2.032.91-2.032 2.032v6.446A6.106 6.106 0 0 0 1 43.812v4.065a6.106 6.106 0 0 0 4.064 5.747v6.446c0 1.122.91 2.032 2.033 2.032 10.625 0 19.35 2.517 27.459 7.923a2.037 2.037 0 0 0 2.254 0c8.108-5.406 16.833-7.923 27.459-7.923 1.122 0 2.032-.91 2.032-2.032v-6.446a6.106 6.106 0 0 0 4.065-5.747v-4.065c0-2.649-1.7-4.908-4.065-5.747z"/><path fill="#FFF" d="M25.522 15.362c0-5.678 4.558-10.297 10.16-10.297 5.603 0 10.161 4.62 10.161 10.297 0 5.602-4.558 10.16-10.16 10.16-5.603 0-10.161-4.558-10.161-10.16zM7.096 49.909a2.034 2.034 0 0 1-2.032-2.032v-4.065c0-1.12.912-2.032 2.032-2.032 1.121 0 2.033.912 2.033 2.032v4.065c0 1.12-.912 2.032-2.033 2.032z"/><path fill="#FFF" d="M33.65 64.688c-7.377-4.22-15.293-6.352-24.521-6.621v-4.443a6.106 6.106 0 0 0 4.064-5.747v-4.065a6.106 6.106 0 0 0-4.064-5.747V33.68c9.548.274 17.224 2.523 24.521 7.17v23.838zm2.033-27.36c-3.751-2.367-7.656-4.169-11.823-5.435a14.255 14.255 0 0 1 7.758-2.306h8.129c2.773 0 5.468.818 7.759 2.306-4.168 1.266-8.073 3.068-11.823 5.435zm26.553 20.739c-9.227.27-17.144 2.402-24.521 6.62V40.852c7.298-4.647 14.972-6.897 24.521-7.171v4.385a6.106 6.106 0 0 0-4.064 5.747v4.065a6.106 6.106 0 0 0 4.064 5.747v4.443z"/><path fill="#FFF" d="M66.3 47.877c0 1.12-.91 2.032-2.031 2.032a2.034 2.034 0 0 1-2.033-2.032v-4.065c0-1.12.912-2.032 2.033-2.032 1.12 0 2.032.912 2.032 2.032v4.065z"/></g></svg>