<svg xmlns="http://www.w3.org/2000/svg" width="77" height="70" viewBox="0 0 77 70"><g fill="none"><path fill="#4390BE" d="M63.408.05H6.34A6.347 6.347 0 0 0 0 6.39v57.067a6.347 6.347 0 0 0 6.34 6.34h57.068a6.347 6.347 0 0 0 6.34-6.34V6.39a6.347 6.347 0 0 0-6.34-6.34z"/><path fill="#FFF" d="M6.34 3.22h57.068a3.175 3.175 0 0 1 3.17 3.17v6.341H3.17v-6.34A3.175 3.175 0 0 1 6.34 3.22zm57.068 63.407H6.34a3.175 3.175 0 0 1-3.17-3.17V15.901h63.407v47.556a3.175 3.175 0 0 1-3.17 3.17z"/><g fill="#4390BE" transform="translate(6.242 6.39)"><circle cx="1.684" cy="1.585" r="1.585"/><circle cx="8.025" cy="1.585" r="1.585"/><circle cx="14.366" cy="1.585" r="1.585"/><path d="M46.07 25.363H11.195a1.584 1.584 0 1 1 0-3.17H46.07a1.584 1.584 0 1 1 0 3.17zm-3.174 9.511h-31.7a1.584 1.584 0 1 1 0-3.17h31.7a1.584 1.584 0 1 1 0 3.17zm-12.678 9.511H11.195a1.584 1.584 0 1 1 0-3.17h19.023a1.584 1.584 0 1 1 0 3.17z"/><path d="M63.78 12.681c-1.602 0-3.165.65-4.292 1.778L40.193 33.75a1.578 1.578 0 0 0-.433.81l-1.586 7.929a1.582 1.582 0 0 0 1.555 1.896c.102 0 .207-.01.31-.03l7.922-1.586c.31-.062.592-.212.811-.433l15.854-15.851.001-.001.001-.001 3.442-3.442v-.002a6.108 6.108 0 0 0 1.777-4.29 6.074 6.074 0 0 0-6.068-6.068z"/></g><path fill="#FFF" d="M53.113 46.145l-5.12 1.025 1.024-5.127 14.39-14.39 4.1 4.1zM72.07 27.19l-2.322 2.322-4.1-4.1 2.323-2.323a2.922 2.922 0 0 1 2.05-.847c1.597 0 2.898 1.3 2.898 2.898 0 .762-.31 1.51-.849 2.05z"/><path d="M70.02 19.072c-.091 0-.18.023-.272.027V6.39a6.347 6.347 0 0 0-6.34-6.34H6.34A6.347 6.347 0 0 0 0 6.39v57.067a6.347 6.347 0 0 0 6.34 6.34h57.068a6.347 6.347 0 0 0 6.34-6.34V33.994l1.12-1.119 3.444-3.444a6.114 6.114 0 0 0 1.777-4.291 6.074 6.074 0 0 0-6.068-6.068z"/></g></svg>