<svg xmlns="http://www.w3.org/2000/svg" width="71" height="70" viewBox="0 0 71 70"><g fill="none"><path fill="#4390BE" d="M70.483 35.241c0-9.413-3.666-18.269-10.32-24.922C53.512 3.666 44.656 0 35.242 0S16.972 3.666 10.32 10.319C3.666 16.972 0 25.828 0 35.241v16.686c0 9.429 7.679 17.107 17.108 17.107a2.028 2.028 0 0 0 2.036-2.036V36.87a2.028 2.028 0 0 0-2.036-2.037 17.05 17.05 0 0 0-13.035 6.035V35.24c0-17.183 13.985-31.168 31.168-31.168 17.184 0 31.168 13.985 31.168 31.168 0 .136.016.272.046.408-.03.135-.046.271-.046.407v5.627a17.051 17.051 0 0 0-13.034-6.034 2.028 2.028 0 0 0-2.037 2.036v30.127c0 1.132.906 2.037 2.037 2.037 9.429 0 17.108-7.679 17.108-17.108V36.056c0-.136-.015-.272-.046-.407a1.89 1.89 0 0 0 .046-.408z"/><path fill="#FFF" d="M15.056 39.058v25.737c-6.215-.98-10.998-6.381-10.998-12.868.015-6.487 4.783-11.888 10.998-12.869zM55.427 65.61V39.873c6.215.98 10.998 6.381 10.998 12.868-.016 6.503-4.783 11.888-10.998 12.869z"/></g></svg>