<svg xmlns="http://www.w3.org/2000/svg" width="62" height="66" viewBox="0 0 62 66"><g fill="#6f5aff" stroke="#FFF" stroke-width=".5"><path d="M59.09 49.711c-1.34-1.962-3.207-3.325-5.402-3.94a.934.934 0 0 0-.08-.018l-9.286-1.735-3.123-4.136c2.957-3.362 4.817-8.07 4.817-12.984V16.154l4.101-1.406v10.39a2.942 2.942 0 0 0-2 2.784v3.564c0 .517.42.937.938.937h4c.517 0 .937-.42.937-.937v-3.564a2.942 2.942 0 0 0-2-2.784V14.105l2.292-.786a2.496 2.496 0 0 0 1.708-2.391c0-1.097-.67-2.035-1.708-2.39l-20.34-6.974a10.526 10.526 0 0 0-6.796 0L6.808 8.537A2.496 2.496 0 0 0 5.1 10.928c0 1.096.67 2.035 1.708 2.39l9.277 3.182v10.39c0 4.912 1.865 9.621 4.829 12.986l-3.127 4.142-9.285 1.735a.945.945 0 0 0-.081.019c-2.195.614-4.063 1.977-5.402 3.94a10.94 10.94 0 0 0-1.902 6.102v5.48c0 1.966 1.766 3.565 3.938 3.565h52c2.17 0 3.937-1.599 3.937-3.564v-5.48c0-2.14-.675-4.308-1.901-6.104zm-6.973-19.163h-2.125v-2.627a1.064 1.064 0 0 1 2.125 0v2.627zm3.654 18.331l-3.036 3.036a8.879 8.879 0 0 0-2.618 6.32v4.749H35.823l-.348-1.74v-.004l-1.432-7.159c.188-.173.353-.37.491-.588l.935 1.16a.906.906 0 0 0 .067.075 1.93 1.93 0 0 0 1.553.559 1.931 1.931 0 0 0 1.42-.842l5.777-8.527 8.935 1.67a7.535 7.535 0 0 1 2.55 1.291zM32.443 62.984l-3.537-3.537.39-1.957 4.395 4.394.22 1.1h-1.468zm-3.46-23.125h4.144c-.017 1.714-.272 5.585-2.072 8.469-1.801-2.884-2.055-6.755-2.072-8.469zm1.354 10.666a.938.938 0 0 0 1.435 0c.063-.075.125-.152.186-.229l1.175 1.458a.945.945 0 0 0-.016.168c0 .585-.476 1.062-1.062 1.062h-2a1.064 1.064 0 0 1-1.063-1.063.934.934 0 0 0-.016-.167l1.175-1.458c.06.077.123.154.186.23zm-.282 4.334h2c.077 0 .153-.004.229-.01l.744 3.72-3.29-3.289.087-.43c.076.005.152.009.23.009zm-1.591 6.797l1.327 1.328h-1.593l.266-1.328zm8.493-8.263a.053.053 0 0 1-.045.027.06.06 0 0 1-.033-.005l-3.843-4.77c.747-1.392 1.216-2.903 1.507-4.311 1.95-.595 3.754-1.672 5.327-3.1l2.807 3.717-5.72 8.442zm.097-31.409a4.94 4.94 0 0 0-4.311 2.536 2.92 2.92 0 0 0-1.688-.536 2.92 2.92 0 0 0-1.689.536 4.94 4.94 0 0 0-4.311-2.536 4.945 4.945 0 0 0-4.541 3H17.96v-1.825a.939.939 0 0 0 .032-.237c0-.265.615-1.126 3.42-1.928 2.563-.732 5.988-1.135 9.643-1.135 3.655 0 7.079.403 9.642 1.135 2.805.802 3.42 1.663 3.42 1.928 0 .07.009.14.024.206v1.856h-2.545a4.945 4.945 0 0 0-4.541-3zm3.063 4.938a3.066 3.066 0 0 1-3.063 3.062 3.066 3.066 0 0 1-3.062-3.063 3.066 3.066 0 0 1 3.063-3.062 3.066 3.066 0 0 1 3.062 3.063zm-15.062-3.063a3.066 3.066 0 0 1 3.062 3.063 3.066 3.066 0 0 1-3.063 3.062 3.066 3.066 0 0 1-3.062-3.063 3.066 3.066 0 0 1 3.063-3.062zm-7.095-4.7a.939.939 0 0 0 .032-.237c0-.265.614-1.126 3.42-1.928 2.563-.732 5.988-1.135 9.643-1.135 3.654 0 7.079.403 9.642 1.136 2.805.801 3.42 1.662 3.42 1.927 0 .07.009.14.024.206v1.242c-.75-.441-1.728-.835-2.93-1.178-2.725-.779-6.332-1.208-10.156-1.208-3.825 0-7.432.429-10.157 1.208-1.207.344-2.186.74-2.938 1.183v-1.216zm26.18-3.874a.93.93 0 0 0 0 .42v.665c-.75-.441-1.727-.835-2.928-1.178-2.726-.779-6.333-1.208-10.158-1.208-3.824 0-7.43.429-10.156 1.208-1.207.344-2.186.74-2.938 1.183v-.28a.931.931 0 0 0 0-.507v-3.429a.939.939 0 0 0 .032-.237c0-.265.614-1.126 3.42-1.927 2.563-.733 5.988-1.136 9.643-1.136 3.654 0 7.079.403 9.642 1.136 2.805.801 3.42 1.662 3.42 1.927 0 .07.009.14.024.206v3.157zm-36.724-3.74a.625.625 0 0 1-.441-.617c0-.14.043-.48.44-.617l20.342-6.974a8.642 8.642 0 0 1 5.579 0l20.34 6.974c.398.136.441.477.441.617s-.043.48-.44.617l-7.661 2.627v-2.25a.937.937 0 0 0-.041-.274c-.178-1.441-1.778-2.603-4.763-3.456-2.726-.78-6.333-1.208-10.157-1.208s-7.432.429-10.157 1.208c-2.96.845-4.558 1.995-4.758 3.419a.933.933 0 0 0-.054.31v2.597l-8.67-2.973zM17.96 26.859h2.159l-.002.063a4.943 4.943 0 0 0 4.938 4.937 4.943 4.943 0 0 0 4.937-4.938 1.064 1.064 0 0 1 2.125 0 4.943 4.943 0 0 0 4.938 4.938 4.943 4.943 0 0 0 4.937-4.938l-.002-.062h2.15v.039c0 3.513-1.066 7.056-3.003 9.978-1.671 2.52-3.867 4.389-6.267 5.356.2-1.867.122-3.241.114-3.37a.938.938 0 0 0-.935-.878H28.06a.937.937 0 0 0-.936.879c-.008.127-.086 1.498.114 3.361-2.401-.972-4.598-2.842-6.27-5.363a18.227 18.227 0 0 1-3.009-9.971v-.031zm4.284 14.368c1.572 1.427 3.374 2.503 5.321 3.1.29 1.411.76 2.924 1.508 4.318l-3.843 4.77a.06.06 0 0 1-.032.006c-.03-.003-.041-.02-.046-.027l-5.72-8.443 2.812-3.724zM8.888 47.588l8.935-1.67 5.776 8.527a1.932 1.932 0 0 0 1.606.851 1.93 1.93 0 0 0 1.369-.568.906.906 0 0 0 .067-.074l.934-1.16c.138.216.303.414.492.588l-1.781 8.902H11.992v-4.749a8.88 8.88 0 0 0-2.618-6.32L6.338 48.88a7.53 7.53 0 0 1 2.55-1.29zM2.992 61.294v-5.48c0-1.888.682-3.98 2.01-5.62l3.046 3.047a7.016 7.016 0 0 1 2.069 4.994v4.749H5.054c-1.137 0-2.062-.758-2.062-1.69zm56.125 0c0 .932-.925 1.69-2.063 1.69h-5.062v-4.749c0-1.886.735-3.66 2.069-4.994l3.047-3.047c1.327 1.64 2.009 3.732 2.009 5.62v5.48z"/><path d="M26.794 36.202c.573 0 1.159-.2 1.65-.367.959-.326 1.576-.5 2.067-.15l.018.012a.963.963 0 0 0 .052.033l.032.018a1.08 1.08 0 0 0 .13.057.956.956 0 0 0 .574.016.92.92 0 0 0 .09-.031c.014-.006.029-.012.043-.02a.824.824 0 0 0 .045-.022l.034-.019a.529.529 0 0 0 .05-.032l.02-.012c.49-.349 1.108-.176 2.066.15.491.167 1.077.367 1.65.367.528 0 1.045-.17 1.467-.69a.933.933 0 0 0-.14-1.314.942.942 0 0 0-1.313.13c-.181.03-.729-.155-1.06-.268-.892-.304-2.068-.703-3.214-.21-1.147-.493-2.323-.094-3.215.21-.33.113-.878.3-1.06.267a.937.937 0 0 0-1.453 1.186c.422.52.94.689 1.467.689zm-1.739-7.343a1.94 1.94 0 0 0 1.937-1.938.938.938 0 0 0-1.875 0 .063.063 0 0 1-.063.063.938.938 0 0 0 0 1.875zm11.062-.937c0 .517.42.937.938.937a1.94 1.94 0 0 0 1.937-1.938.938.938 0 0 0-1.875 0 .063.063 0 0 1-.063.063.938.938 0 0 0-.937.938z"/></g></svg>