<svg xmlns="http://www.w3.org/2000/svg" xmlns:xlink="http://www.w3.org/1999/xlink" width="588" height="477" viewBox="0 0 588 477"><defs><rect id="a" width="486" height="407" rx="2"/><filter id="b" width="124.1%" height="128.7%" x="-12%" y="-11.4%" filterUnits="objectBoundingBox"><feOffset dy="12" in="SourceAlpha" result="shadowOffsetOuter1"/><feGaussianBlur in="shadowOffsetOuter1" result="shadowBlurOuter1" stdDeviation="17.5"/><feColorMatrix in="shadowBlurOuter1" values="0 0 0 0 0.925490196 0 0 0 0 0.941176471 0 0 0 0 0.945098039 0 0 0 1 0"/></filter><rect id="e" width="518" height="71.803" y="109" rx="4"/><filter id="d" width="111%" height="179.4%" x="-5.5%" y="-27.2%" filterUnits="objectBoundingBox"><feOffset dy="9" in="SourceAlpha" result="shadowOffsetOuter1"/><feGaussianBlur in="shadowOffsetOuter1" result="shadowBlurOuter1" stdDeviation="8"/><feColorMatrix in="shadowBlurOuter1" values="0 0 0 0 0 0 0 0 0 0 0 0 0 0 0 0 0 0 0.113196332 0"/></filter><path id="g" d="M0 109h518v73H0z"/><filter id="f" width="122.6%" height="260.3%" x="-11.3%" y="-63.7%" filterUnits="objectBoundingBox"><feOffset dy="12" in="SourceAlpha" result="shadowOffsetOuter1"/><feGaussianBlur in="shadowOffsetOuter1" result="shadowBlurOuter1" stdDeviation="17.5"/><feColorMatrix in="shadowBlurOuter1" values="0 0 0 0 0.556862745 0 0 0 0 0.835294118 0 0 0 0 1 0 0 0 0.520787806 0"/></filter></defs><g fill="none" fill-rule="evenodd"><g transform="translate(50 23)"><mask id="c" fill="#fff"><use xlink:href="#a"/></mask><use fill="#000" filter="url(#b)" xlink:href="#a"/><use fill="#FFF" xlink:href="#a"/><g mask="url(#c)"><path fill="#ECF0F1" d="M1 1h484v47H1z" opacity=".5"/><g transform="translate(10 15)"><circle cx="6.5" cy="6.5" r="6.5" fill="#FF6057"/><circle cx="28.5" cy="6.5" r="6.5" fill="#FFC12E"/><circle cx="52.5" cy="6.5" r="6.5" fill="#28CA40"/></g></g></g><g transform="translate(35 23)"><use fill="#000" filter="url(#d)" xlink:href="#e"/><use fill="#FFF" xlink:href="#e"/></g><path fill="#FAFAFA" d="M51 204h64v225H51z"/><text fill="#393649" font-family="Roboto-Regular, Roboto" font-size="20" letter-spacing=".4" transform="translate(35 23)"><tspan x="43.685" y="225">2</tspan></text><text fill="#393649" font-family="Roboto-Regular, Roboto" font-size="20" letter-spacing=".4" transform="translate(35 23)"><tspan x="43.185" y="282">3</tspan></text><text fill="#393649" font-family="Roboto-Regular, Roboto" font-size="20" letter-spacing=".4" transform="translate(35 23)"><tspan x="43.185" y="335">4</tspan></text><text fill="#393649" font-family="Roboto-Regular, Roboto" font-size="20" letter-spacing=".4" transform="translate(35 23)"><tspan x="43.185" y="391">5</tspan></text><g transform="translate(35 23)"><use fill="#000" filter="url(#f)" xlink:href="#g"/><use fill="#579FCA" xlink:href="#g"/></g><text fill="#FFF" font-family=".SFNSDisplay, .SF NS Display" font-size="23" letter-spacing=".46" transform="translate(35 23)"><tspan x="41.671" y="156">1</tspan></text><text fill="#FFF" font-family="Roboto-Regular, Roboto" font-size="18" letter-spacing=".36" transform="translate(35 23)"><tspan x="110.5" y="153">Opinion (Agree or Disagree)</tspan></text><text fill="#393649" font-family="Roboto-Regular, Roboto" font-size="16" letter-spacing=".32" transform="translate(35 23)"><tspan x="111" y="223">Advantages and Disadvantages</tspan></text><text fill="#393649" font-family="Roboto-Regular, Roboto" font-size="20" letter-spacing=".4" transform="translate(35 23)"><tspan x="58" y="93">Choose Essay Type</tspan></text><text fill="#393649" font-family="Roboto-Regular, Roboto" font-size="16" letter-spacing=".32" transform="translate(35 23)"><tspan x="111" y="277">Problem and Solution</tspan></text><text fill="#393649" font-family="Roboto-Regular, Roboto" font-size="16" letter-spacing=".32" transform="translate(35 23)"><tspan x="111" y="332">Discussion (Discuss both views)</tspan></text><text fill="#393649" font-family="Roboto-Regular, Roboto" font-size="16" letter-spacing=".32" transform="translate(35 23)"><tspan x="111" y="387">Two-part Question</tspan></text><path d="M512.908 293.346l-5.345-5.253a.323.323 0 0 0-.453 0 .31.31 0 0 0 0 .446l5.116 5.029-5.116 5.03a.31.31 0 0 0 0 .445c.061.06.145.093.225.093.081 0 .164-.03.226-.093l5.344-5.253a.31.31 0 0 0 .003-.444zm0-55l-5.345-5.253a.323.323 0 0 0-.453 0 .31.31 0 0 0 0 .446l5.116 5.029-5.116 5.03a.31.31 0 0 0 0 .445c.061.06.145.093.225.093.081 0 .164-.03.226-.093l5.344-5.253a.31.31 0 0 0 .003-.444zm-.016 109l-5.344-5.253a.323.323 0 0 0-.454 0 .31.31 0 0 0 0 .446l5.117 5.029-5.117 5.03a.31.31 0 0 0 0 .445.33.33 0 0 0 .226.093c.08 0 .164-.03.225-.093l5.345-5.253a.31.31 0 0 0 .002-.444zm0 55l-5.344-5.253a.323.323 0 0 0-.454 0 .31.31 0 0 0 0 .446l5.117 5.029-5.117 5.03a.31.31 0 0 0 0 .445.33.33 0 0 0 .226.093c.08 0 .164-.03.225-.093l5.345-5.253a.31.31 0 0 0 .002-.444z" fill="#AFAEAE" fill-rule="nonzero" stroke="#979797"/><path fill="#FFF" fill-rule="nonzero" stroke="#FFF" d="M512.407 170.28l-6.718 6.603a.407.407 0 0 1-.57 0 .39.39 0 0 1 0-.56L511.55 170l-6.432-6.322a.39.39 0 0 1 0-.56.41.41 0 0 1 .283-.118c.102 0 .206.038.284.117l6.718 6.605a.39.39 0 0 1 .003.557z"/></g></svg>