<svg xmlns="http://www.w3.org/2000/svg" width="52" height="52" viewBox="0 0 52 52"><g fill="none"><path fill="#5F5A76" stroke="#FFF" d="M48.07 27.717v-4.646c0-.81-.656-1.465-1.465-1.465-3.026 0-5.847.255-8.513.777a13.226 13.226 0 0 0-5.499-3.184 10.236 10.236 0 0 0 3.66-7.847c0-5.708-4.6-10.351-10.253-10.351-5.654 0-10.254 4.643-10.254 10.351 0 3.146 1.424 5.964 3.66 7.847a13.228 13.228 0 0 0-5.498 3.184c-2.666-.522-5.487-.777-8.513-.777-.81 0-1.465.656-1.465 1.465v4.646A4.401 4.401 0 0 0 1 31.86v2.93a4.401 4.401 0 0 0 2.93 4.142v4.647c0 .809.656 1.464 1.465 1.464 7.659 0 13.948 1.815 19.793 5.711a1.47 1.47 0 0 0 1.625 0c5.844-3.896 12.133-5.71 19.793-5.71.809 0 1.464-.656 1.464-1.465v-4.647A4.401 4.401 0 0 0 51 34.79v-2.93a4.402 4.402 0 0 0-2.93-4.143z"/><path fill="#FFF" d="M18.676 11.352C18.676 7.26 21.96 3.93 26 3.93c4.038 0 7.324 3.33 7.324 7.422 0 4.039-3.286 7.324-7.324 7.324-4.039 0-7.324-3.285-7.324-7.324zM5.394 36.254A1.467 1.467 0 0 1 3.93 34.79v-2.93c0-.808.657-1.465 1.464-1.465.808 0 1.465.657 1.465 1.465v2.93c0 .807-.657 1.464-1.465 1.464zm19.141 10.653c-5.318-3.04-11.024-4.578-17.676-4.772v-3.203a4.401 4.401 0 0 0 2.93-4.142v-2.93a4.401 4.401 0 0 0-2.93-4.143v-3.16c6.883.197 12.416 1.818 17.676 5.167v17.183zM26 27.186a34.813 34.813 0 0 0-8.522-3.918 10.275 10.275 0 0 1 5.592-1.662h5.86c1.998 0 3.941.59 5.592 1.662A34.812 34.812 0 0 0 26 27.186zm19.14 14.949c-6.651.194-12.358 1.732-17.675 4.773V29.725c5.26-3.35 10.792-4.971 17.676-5.169v3.161a4.401 4.401 0 0 0-2.93 4.143v2.93a4.401 4.401 0 0 0 2.93 4.142v3.203zm2.93-7.345c0 .807-.657 1.464-1.465 1.464a1.467 1.467 0 0 1-1.464-1.464v-2.93c0-.808.657-1.465 1.464-1.465.808 0 1.465.657 1.465 1.465v2.93z"/></g></svg>