<svg xmlns="http://www.w3.org/2000/svg" width="55" height="50" viewBox="0 0 55 50"><g fill="none"><path fill="#5F5A76" d="M45.291.035H4.53A4.534 4.534 0 0 0 0 4.565v40.761a4.534 4.534 0 0 0 4.53 4.53h40.76a4.534 4.534 0 0 0 4.53-4.53V4.564A4.534 4.534 0 0 0 45.29.035z"/><path fill="#FFF" d="M4.53 2.3h40.76a2.268 2.268 0 0 1 2.265 2.264v4.53H2.265v-4.53A2.268 2.268 0 0 1 4.529 2.3zm40.761 45.291H4.53a2.268 2.268 0 0 1-2.264-2.265V11.358h45.29v33.968a2.268 2.268 0 0 1-2.264 2.265z"/><g fill="#5F5A76" transform="translate(4.458 4.564)"><circle cx="1.203" cy="1.132" r="1.132"/><circle cx="5.732" cy="1.132" r="1.132"/><circle cx="10.261" cy="1.132" r="1.132"/><path d="M32.907 18.116H7.997a1.132 1.132 0 1 1 0-2.264h24.91a1.132 1.132 0 1 1 0 2.264zM30.64 24.91H7.997a1.132 1.132 0 1 1 0-2.264H30.64a1.132 1.132 0 1 1 0 2.264zm-9.056 6.794H7.997a1.132 1.132 0 1 1 0-2.265h13.587a1.132 1.132 0 1 1 0 2.265z"/><path d="M45.556 9.058a4.36 4.36 0 0 0-3.065 1.27L28.71 24.108a1.13 1.13 0 0 0-.31.578l-1.132 5.663a1.13 1.13 0 0 0 1.332 1.333l5.659-1.133c.221-.044.422-.151.58-.31l11.321-11.32.001-.001 2.46-2.46a4.363 4.363 0 0 0 1.269-3.064 4.339 4.339 0 0 0-4.335-4.335z"/></g><path fill="#FFF" d="M37.938 32.96l-3.658.733.732-3.662L45.29 19.752l2.929 2.929zm13.541-13.539L49.82 21.08l-2.928-2.929 1.659-1.659a2.073 2.073 0 0 1 3.534 1.465c0 .544-.221 1.078-.606 1.464z"/><path d="M50.015 13.623c-.066 0-.13.016-.195.02v-9.08A4.534 4.534 0 0 0 45.291.035H4.53A4.534 4.534 0 0 0 0 4.565v40.761a4.534 4.534 0 0 0 4.53 4.53h40.76a4.534 4.534 0 0 0 4.53-4.53V24.282l.799-.8 2.46-2.46a4.367 4.367 0 0 0 1.27-3.065 4.339 4.339 0 0 0-4.335-4.334z"/></g></svg>