<svg xmlns="http://www.w3.org/2000/svg" width="95" height="104" viewBox="0 0 95 104"><g fill="none"><path fill="#579FCA" stroke="#5F5A76" stroke-width="4" d="M92.036 82.258l-6.451 16.13-6.452-16.13V17.742a6.452 6.452 0 0 1 12.903 0v64.516z"/><path fill="#579FCA" d="M79.8 27.42h6.451v54.838H79.8z"/><path fill="#4390BE" d="M84.918 27.42h6.452v54.838h-6.452z"/><path fill="#579FCA" d="M79.8 20.968h10.903v6.451H79.8z"/><path fill="#7F7B97" d="M8.165 1.613h64.516v90.322H8.165z"/><path fill="#F2F2E9" d="M1.714 98.387V8.065h51.613v12.903H66.23v77.42z"/><path fill="#FFFFF5" d="M1.714 88.426c26.235-2.974 46.774-29.87 46.774-62.62a75.79 75.79 0 0 0-2.095-17.741H1.713v80.361z"/><path fill="#F2F2E9" d="M66.23 20.968L53.327 8.065v12.903z"/><path fill="#5F5A76" d="M72.681 93.548H66.23v-3.225h4.839V3.226H9.779v4.839H6.551V1.613A1.614 1.614 0 0 1 8.165 0h64.516c.893 0 1.613.723 1.613 1.613v90.322c0 .89-.72 1.613-1.613 1.613z"/><path fill="#5F5A76" d="M66.23 100H1.714A1.612 1.612 0 0 1 .1 98.387V8.065c0-.89.72-1.613 1.613-1.613h51.613c.892 0 1.613.723 1.613 1.613v11.29h11.29c.892 0 1.613.723 1.613 1.613v77.42c0 .889-.72 1.612-1.613 1.612zM3.327 96.774h61.29V22.581h-11.29a1.612 1.612 0 0 1-1.613-1.613V9.678H3.327v87.096z"/><path fill="#6A6683" d="M52.185 9.205l2.281-2.28L67.37 19.826l-2.28 2.284zM6.552 51.613h38.71v3.226H6.552zm12.904-6.452h25.806v3.226H19.456zM6.552 35.484h38.71v3.226H6.552zm12.904-6.452h25.806v3.226H19.456zM6.552 83.871h38.71v3.226H6.552zm12.904-6.451h25.806v3.225H19.456zM6.552 67.742h38.71v3.226H6.552zm12.904-6.452h25.806v3.226H19.456z"/><path fill="#5F5A76" d="M79.133 19.355h12.903v3.226H79.133zm0 6.451h12.903v3.226H79.133zm0 54.839h12.903v3.226H79.133z"/><path fill="#6A6683" d="M54.94 38.71c-.427 0-.838-.168-1.14-.473l-3.227-3.226 2.281-2.28 1.836 1.834 5.36-8.041 2.683 1.79-6.451 9.677a1.609 1.609 0 0 1-1.342.719zm0 16.129c-.427 0-.838-.168-1.14-.473l-3.227-3.226 2.281-2.28 1.836 1.834 5.36-8.041 2.683 1.79-6.451 9.677a1.609 1.609 0 0 1-1.342.719zm0 16.129c-.427 0-.838-.168-1.14-.473l-3.227-3.226 2.281-2.28 1.836 1.834 5.36-8.041 2.683 1.79-6.451 9.677a1.609 1.609 0 0 1-1.342.719zm0 16.129c-.427 0-.838-.168-1.14-.473l-3.227-3.226 2.281-2.28 1.836 1.834 5.36-8.041 2.683 1.79-6.451 9.677a1.609 1.609 0 0 1-1.342.719z"/></g></svg>