<svg width="614" height="271" viewBox="0 0 614 271" xmlns="http://www.w3.org/2000/svg" xmlns:xlink="http://www.w3.org/1999/xlink"><defs><path id="b" d="M0 0h486v56H0z"/><filter x="-1.3%" y="-9.8%" width="102.7%" height="123.2%" filterUnits="objectBoundingBox" id="a"><feOffset dy="1" in="SourceAlpha" result="shadowOffsetOuter1"/><feGaussianBlur stdDeviation="2" in="shadowOffsetOuter1" result="shadowBlurOuter1"/><feColorMatrix values="0 0 0 0 0.551887183 0 0 0 0 0.535284821 0 0 0 0 0.646258503 0 0 0 0.195804196 0" in="shadowBlurOuter1"/></filter><path id="d" d="M0 46h486v56H0z"/><filter x="-1.3%" y="-9.8%" width="102.7%" height="123.2%" filterUnits="objectBoundingBox" id="c"><feOffset dy="1" in="SourceAlpha" result="shadowOffsetOuter1"/><feGaussianBlur stdDeviation="2" in="shadowOffsetOuter1" result="shadowBlurOuter1"/><feColorMatrix values="0 0 0 0 0.551887183 0 0 0 0 0.535284821 0 0 0 0 0.646258503 0 0 0 0.195804196 0" in="shadowBlurOuter1"/></filter><path id="f" d="M27 142h486v56H27z"/><filter x="-1.3%" y="-9.8%" width="102.7%" height="123.2%" filterUnits="objectBoundingBox" id="e"><feOffset dy="1" in="SourceAlpha" result="shadowOffsetOuter1"/><feGaussianBlur stdDeviation="2" in="shadowOffsetOuter1" result="shadowBlurOuter1"/><feColorMatrix values="0 0 0 0 0.551887183 0 0 0 0 0.535284821 0 0 0 0 0.646258503 0 0 0 0.195804196 0" in="shadowBlurOuter1"/></filter><rect id="h" x="0" y=".803" width="544" height="65" rx="4"/><filter x="-10.8%" y="-71.5%" width="121.5%" height="280%" filterUnits="objectBoundingBox" id="g"><feOffset dy="12" in="SourceAlpha" result="shadowOffsetOuter1"/><feGaussianBlur stdDeviation="17.5" in="shadowOffsetOuter1" result="shadowBlurOuter1"/><feColorMatrix values="0 0 0 0 0.925490196 0 0 0 0 0.941176471 0 0 0 0 0.945098039 0 0 0 1 0" in="shadowBlurOuter1"/></filter></defs><g fill="none" fill-rule="evenodd"><path fill="#FAFAFA" d="M62 3h114v56H62z"/><g transform="translate(62 3)"><use fill="#000" filter="url(#a)" xlink:href="#b"/><use fill="#FFF" xlink:href="#b"/></g><text font-family="Roboto-Regular, Roboto" font-size="18" letter-spacing=".36" fill="#5F5A76" transform="translate(62 3)"><tspan x="27" y="35">Line 09</tspan></text><text font-family="Roboto-Regular, Roboto" font-size="16" letter-spacing=".32" fill="#393649" text-decoration="line-through" transform="translate(62 3)"><tspan x="139.5" y="35">I was really a long dey and as was</tspan></text><path fill="#FAFAFA" d="M62 210h114v56H62z"/><g transform="translate(62 164)"><use fill="#000" filter="url(#c)" xlink:href="#d"/><use fill="#FFF" xlink:href="#d"/></g><text font-family="Roboto-Regular, Roboto" font-size="18" letter-spacing=".36" fill="#5F5A76" transform="translate(62 164)"><tspan x="27" y="80">Line 30</tspan></text><text font-family="Roboto-Regular, Roboto" font-size="16" letter-spacing=".32" fill="#393649" text-decoration="line-through" transform="translate(62 164)"><tspan x="139.5" y="81">I haven’t had something for dinner</tspan></text><g fill="#EB4335" fill-rule="nonzero"><path d="M515.816 176.648a1.02 1.02 0 0 0-1.009 1.009c0 .549.46 1.009 1.01 1.009.528 0 1.008-.46.984-.985a.985.985 0 0 0-.985-1.033z"/><path d="M525.155 180.223a3.445 3.445 0 0 0 .008-3.487l-6.32-10.945a3.434 3.434 0 0 0-3.023-1.755 3.446 3.446 0 0 0-3.023 1.751l-6.328 10.958a3.473 3.473 0 0 0 .012 3.507 3.454 3.454 0 0 0 3.015 1.731h12.624a3.476 3.476 0 0 0 3.035-1.76zm-1.372-.79a1.907 1.907 0 0 1-1.667.964h-12.624a1.881 1.881 0 0 1-1.647-.944 1.91 1.91 0 0 1-.004-1.925l6.329-10.954a1.873 1.873 0 0 1 1.65-.956c.69 0 1.308.359 1.651.96l6.324 10.954c.34.589.335 1.3-.012 1.9z"/><path d="M515.566 169.565c-.48.137-.779.573-.779 1.102.024.318.045.641.069.96.068 1.215.137 2.405.206 3.62a.74.74 0 0 0 .754.71.755.755 0 0 0 .755-.734c0-.25 0-.48.024-.734.045-.78.093-1.558.137-2.337.025-.505.069-1.01.093-1.514 0-.181-.024-.343-.093-.504a1.012 1.012 0 0 0-1.166-.57z"/></g><path fill="#FAFAFA" d="M62 145h114v56H62z"/><g transform="translate(35 3)"><use fill="#000" filter="url(#e)" xlink:href="#f"/><use fill="#FFF" xlink:href="#f"/></g><text font-family="Roboto-Regular, Roboto" font-size="18" letter-spacing=".36" fill="#5F5A76" transform="translate(35 3)"><tspan x="54" y="177">Line 12</tspan></text><text font-family="Roboto-Regular, Roboto" font-size="16" letter-spacing=".32" fill="#393649" text-decoration="line-through" transform="translate(35 3)"><tspan x="166.5" y="177">Then i see the bus coming, i waited</tspan></text><path d="M515.816 33.648a1.02 1.02 0 0 0-1.009 1.009c0 .549.46 1.009 1.01 1.009.528 0 1.008-.46.984-.985a.985.985 0 0 0-.985-1.033z" fill="#EB4335" fill-rule="nonzero"/><path d="M525.155 37.223a3.445 3.445 0 0 0 .008-3.487l-6.32-10.945a3.434 3.434 0 0 0-3.023-1.755 3.446 3.446 0 0 0-3.023 1.751l-6.328 10.958a3.473 3.473 0 0 0 .012 3.507 3.454 3.454 0 0 0 3.015 1.731h12.624a3.476 3.476 0 0 0 3.035-1.76zm-1.372-.79a1.907 1.907 0 0 1-1.667.964h-12.624a1.881 1.881 0 0 1-1.647-.944 1.91 1.91 0 0 1-.004-1.925l6.329-10.954a1.873 1.873 0 0 1 1.65-.956c.69 0 1.308.359 1.651.96l6.324 10.954c.34.589.335 1.3-.012 1.9z" fill="#EB4335" fill-rule="nonzero"/><path d="M515.566 26.565c-.48.137-.779.573-.779 1.102.024.318.045.641.069.96.068 1.215.137 2.405.206 3.62a.74.74 0 0 0 .754.71.755.755 0 0 0 .755-.734c0-.25 0-.48.024-.734.045-.78.093-1.558.137-2.337.025-.505.069-1.01.093-1.514 0-.181-.024-.343-.093-.504a1.012 1.012 0 0 0-1.166-.57zm.25 149.083a1.02 1.02 0 0 0-1.009 1.009c0 .549.46 1.009 1.01 1.009.528 0 1.008-.46.984-.985a.985.985 0 0 0-.985-1.033z" fill="#EB4335" fill-rule="nonzero"/><path d="M525.155 179.223a3.445 3.445 0 0 0 .008-3.487l-6.32-10.945a3.434 3.434 0 0 0-3.023-1.755 3.446 3.446 0 0 0-3.023 1.751l-6.328 10.958a3.473 3.473 0 0 0 .012 3.507 3.454 3.454 0 0 0 3.015 1.731h12.624a3.476 3.476 0 0 0 3.035-1.76zm-1.372-.79a1.907 1.907 0 0 1-1.667.964h-12.624a1.881 1.881 0 0 1-1.647-.944 1.91 1.91 0 0 1-.004-1.925l6.329-10.954a1.873 1.873 0 0 1 1.65-.956c.69 0 1.308.359 1.651.96l6.324 10.954c.34.589.335 1.3-.012 1.9z" fill="#EB4335" fill-rule="nonzero"/><path d="M515.566 168.565c-.48.137-.779.573-.779 1.102.024.318.045.641.069.96.068 1.215.137 2.405.206 3.62a.74.74 0 0 0 .754.71.755.755 0 0 0 .755-.734c0-.25 0-.48.024-.734.045-.78.093-1.558.137-2.337.025-.505.069-1.01.093-1.514 0-.181-.024-.343-.093-.504a1.012 1.012 0 0 0-1.166-.57zm.25 72.083a1.02 1.02 0 0 0-1.009 1.009c0 .549.46 1.009 1.01 1.009.528 0 1.008-.46.984-.985a.985.985 0 0 0-.985-1.033z" fill="#EB4335" fill-rule="nonzero"/><path d="M525.155 244.223a3.445 3.445 0 0 0 .008-3.487l-6.32-10.945a3.434 3.434 0 0 0-3.023-1.755 3.446 3.446 0 0 0-3.023 1.751l-6.328 10.958a3.473 3.473 0 0 0 .012 3.507 3.454 3.454 0 0 0 3.015 1.731h12.624a3.476 3.476 0 0 0 3.035-1.76zm-1.372-.79a1.907 1.907 0 0 1-1.667.964h-12.624a1.881 1.881 0 0 1-1.647-.944 1.91 1.91 0 0 1-.004-1.925l6.329-10.954a1.873 1.873 0 0 1 1.65-.956c.69 0 1.308.359 1.651.96l6.324 10.954c.34.589.335 1.3-.012 1.9z" fill="#EB4335" fill-rule="nonzero"/><path d="M515.566 233.565c-.48.137-.779.573-.779 1.102.024.318.045.641.069.96.068 1.215.137 2.405.206 3.62a.74.74 0 0 0 .754.71.755.755 0 0 0 .755-.734c0-.25 0-.48.024-.734.045-.78.093-1.558.137-2.337.025-.505.069-1.01.093-1.514 0-.181-.024-.343-.093-.504a1.012 1.012 0 0 0-1.166-.57z" fill="#EB4335" fill-rule="nonzero"/><g transform="translate(35 69)"><use fill="#000" filter="url(#g)" xlink:href="#h"/><use fill="#FFF" xlink:href="#h"/></g><path d="M36 74.496a3.996 3.996 0 0 1 3.99-3.996H150V134H39.99a4 4 0 0 1-3.99-3.996V74.496z" fill="#ECF0F1"/><text font-family="Roboto-Regular, Roboto" font-size="18" letter-spacing=".36" fill="#393649" transform="translate(35 69)"><tspan x="25.5" y="39">Line 11</tspan></text><text font-family="Roboto-Regular, Roboto" font-size="16" letter-spacing=".32" fill="#393649" transform="translate(35 69)"><tspan x="144" y="38">But i knew what i wanted, and i worked…</tspan></text><g transform="translate(519 87)"><circle fill="#579FCA" cx="14.416" cy="14.416" r="14.416"/><path stroke="#FFF" fill="#FFF" fill-rule="nonzero" d="M12.5 17.12l-2.625-2.821-.875.94L12.5 19l7.5-8.06-.875-.94z"/></g></g></svg>