<svg width="178" height="197" viewBox="0 0 178 197" xmlns="http://www.w3.org/2000/svg" xmlns:xlink="http://www.w3.org/1999/xlink"><defs><rect id="b" x="0" y="32.122" width="103.918" height="117.878" rx="4"/><filter x="-56.3%" y="-39.4%" width="212.6%" height="199.3%" filterUnits="objectBoundingBox" id="a"><feOffset dy="12" in="SourceAlpha" result="shadowOffsetOuter1"/><feGaussianBlur stdDeviation="17.5" in="shadowOffsetOuter1" result="shadowBlurOuter1"/><feComposite in="shadowBlurOuter1" in2="SourceAlpha" operator="out" result="shadowBlurOuter1"/><feColorMatrix values="0 0 0 0 0.925490196 0 0 0 0 0.941176471 0 0 0 0 0.945098039 0 0 0 1 0" in="shadowBlurOuter1"/></filter></defs><g transform="translate(35)" fill="none" fill-rule="evenodd"><rect stroke="#5F5A76" stroke-width=".5" fill="#FFF" x="35.923" y=".25" width="103.418" height="117.378" rx="4"/><circle fill="#579FCA" cx="55.837" cy="27.918" r="4.653"/><circle fill="#2DB0EA" cx="55.837" cy="48.082" r="4.653"/><circle fill="#2DB0EA" cx="55.837" cy="69.796" r="4.653"/><circle fill="#2DB0EA" cx="55.837" cy="89.959" r="4.653"/><path d="M72.122 28.694h52.735M72.122 48.857h52.735M72.122 70.571h52.735" stroke="#579FCA" stroke-linecap="square"/><path d="M72.122 90.735h52.735" stroke="#8ED5FF" stroke-linecap="square"/><use fill="#000" filter="url(#a)" xlink:href="#b"/><rect stroke="#5F5A76" stroke-width=".5" stroke-linejoin="square" fill="#FFF" x=".25" y="32.372" width="103.418" height="117.378" rx="4"/><path d="M36.449 57.714h52.735M36.449 77.878h52.735M36.449 99.592h52.735" stroke="#0E936E" stroke-linecap="square"/><path d="M36.449 122.857h52.735" stroke="#EC4F4F" stroke-linecap="square"/><path fill="#0E936E" fill-rule="nonzero" d="M20.443 60.513l-3.7-3.874-1.233 1.291 4.933 5.166 10.57-11.07-1.233-1.291zm0 21.714l-3.7-3.874-1.233 1.291 4.933 5.166 10.57-11.07-1.233-1.291zm0 20.163l-3.7-3.874-1.233 1.292 4.933 5.165 10.57-11.07-1.233-1.29z"/><path d="M28.052 116.661L15.93 128.783m0-12.122l12.122 12.122" stroke="#EC4F4F" stroke-width="1.5"/><circle fill="#579FCA" cx="116.327" cy="115.327" r="26.367"/><text font-family="Roboto-Medium, Roboto" font-size="18" font-weight="400" fill="#FFF"><tspan x="103.715" y="121.959">8.0</tspan></text></g></svg>