<svg xmlns="http://www.w3.org/2000/svg" xmlns:xlink="http://www.w3.org/1999/xlink" width="837" height="516" viewBox="0 0 837 516"><defs><path id="a" d="M318.8 284.8h370.4l-41.8-276H277.2z"/><filter id="b" width="100.7%" height="101.1%" x="-.4%" y="-.5%" filterUnits="objectBoundingBox"><feGaussianBlur in="SourceAlpha" result="shadowBlurInner1" stdDeviation="1.5"/><feOffset in="shadowBlurInner1" result="shadowOffsetInner1"/><feComposite in="shadowOffsetInner1" in2="SourceAlpha" k2="-1" k3="1" operator="arithmetic" result="shadowInnerInner1"/><feColorMatrix in="shadowInnerInner1" values="0 0 0 0 0.551887183 0 0 0 0 0.535284821 0 0 0 0 0.646258503 0 0 0 0.64330201 0"/></filter></defs><g fill="none" fill-rule="evenodd"><path fill="#8ED5FF" fill-rule="nonzero" stroke="#5F5A76" stroke-linecap="round" stroke-linejoin="round" stroke-width="1.71" d="M758.2 209.2c0 80.6-19.8 122.6-44.2 122.6-24.4 0-44.2-42-44.2-122.6S689.6 40 714 40c24.4 0 44.2 88.6 44.2 169.2z"/><path stroke="#5F5A76" stroke-linecap="round" stroke-linejoin="round" stroke-width="2" d="M714 40v291.6m-39-58.8l39 38.8 38.8-38.8m-83-73.2l44.2 44 44-44m-83.2-63.2l39.2 39.2 39-39.2m-66.4-56.2l27.4 27.2 27.2-27.2"/><path fill="#8ED5FF" fill-rule="nonzero" stroke="#5F5A76" stroke-linecap="round" stroke-linejoin="round" stroke-width="2" d="M669.6 225.8c24.8 62.4 22.6 101 3.6 108.6-19 7.6-47.2-19-72-81.4-24.8-62.4-37-137.2-18-144.8 18.8-7.6 61.6 55 86.4 117.6z"/><path stroke="#5F5A76" stroke-linecap="round" stroke-linejoin="round" stroke-width="2" d="M583.2 108.2l90 226.2m-48.4-33.8l42.2 18.2 18.2-42.2m-87-31L646 266l20.6-47.6m-84-23.4l42.4 18.4 18.2-42.6m-68.8-23l29.6 12.8 12.8-29.6"/><path fill="#8ED5FF" fill-rule="nonzero" stroke="#5F5A76" stroke-linecap="round" stroke-linejoin="round" stroke-width="2" d="M748.2 242.4c-21.2 53.2-19.2 86.2-3 92.6 16.2 6.4 40.2-16.2 61.4-69.4 21.2-53.2 31.4-117 15.4-123.4-16.2-6.4-52.6 47-73.8 100.2z"/><path stroke="#5F5A76" stroke-linecap="round" stroke-linejoin="round" stroke-width="2" d="M822 142.2L745.2 335m41.2-28.6l-36 15.4-15.4-36m74-26.4l-40.6 17.4-17.6-40.6m71.6-20l-36.2 15.6-15.4-36m58.6-19.8l-25.2 10.8-10.8-25.2"/><path fill="#F5F7FA" fill-rule="nonzero" d="M632.2 314.4h163.4l39.8 161.2h-243z"/><path fill="#D7DADA" fill-rule="nonzero" d="M632.2 314.4h34.4l84.2 161.2H592.4z"/><path stroke="#5F5A76" stroke-linecap="round" stroke-linejoin="round" stroke-width="3" d="M632.2 314.4h163.4l39.8 161.2h-243z"/><path fill="#8D88A5" fill-opacity=".617" fill-rule="nonzero" stroke="#007DEA" stroke-linecap="round" stroke-linejoin="round" stroke-width="1.71" d="M240.8 293.8L315 115.4H122.2L48 293.8z"/><path fill="#ECF0F1" fill-rule="nonzero" stroke="#5F5A76" stroke-linecap="round" stroke-linejoin="round" stroke-width="1.71" d="M50.4 293.8l74.2-178.4h-15L35.4 293.8z"/><path fill="#ECF0F1" fill-rule="nonzero" stroke="#5F5A76" stroke-linecap="round" stroke-linejoin="round" stroke-width="1.71" d="M490.4 1.8c7.6 0 14.8 6.2 16 14L546.2 280c1.2 7.6-4.2 14-11.8 14H143.6c-7.6 0-14.8-6.2-16-14L87.8 15.6C86.6 8 92 1.6 99.6 1.6h390.8v.2z"/><path fill="#FFF" fill-rule="nonzero" stroke="#5F5A76" stroke-linecap="round" stroke-linejoin="round" stroke-width="1.71" d="M506.2 1.8c7.6 0 14.8 6.2 16 14L562 280c1.2 7.6-4.2 14-11.8 14h-391c-7.6 0-14.8-6.2-16-14L103.4 15.6c-1.2-7.6 4.2-14 11.8-14h391v.2z"/><g fill-rule="nonzero" transform="translate(-157 1)"><use fill="#F5F7FA" xlink:href="#a"/><use fill="#000" filter="url(#b)" xlink:href="#a"/></g><path fill="#ECF0F1" fill-rule="nonzero" stroke="#5F5A76" stroke-linecap="round" stroke-linejoin="round" stroke-width="1.3" d="M515 144.4l1 7c.6 3.8 4.2 7 8 7h7c3.8 0 6.4-3.2 5.8-7l-1-7c-.6-3.8-4.2-7-8-7h-7c-3.8 0-6.4 3-5.8 7z"/><path fill="#4390BE" fill-rule="nonzero" d="M398.6 83.2l-68.6-22c-4.4-1.4-11.4-1.4-15.4 0l-62.2 22c-4 1.4-3.8 3.8.8 5.2l68.6 22c4.4 1.4 11.4 1.4 15.4 0l62.2-22c4-1.4 3.6-3.6-.8-5.2z"/><path fill="#4390BE" fill-rule="nonzero" d="M322.4 115.6L277.2 101l3.6 24.8c.6 4.4 4.8 9.4 9.4 10.8l37 12c4.4 1.4 11.4 1.4 15.4 0l33.6-12c4-1.4 6.8-6.2 6.2-10.8l-3.6-24.8-41 14.6c-4 1.4-11 1.4-15.4 0zm-90.8 67.6l3.2 22H232l-3.2-22zm18 11.8H241l1.2 8h9.6l.4 2.4h-12.4l-3.2-22h12l.4 2.4h-9l1 7h8.6zm3-11.8h2.8l2.8 19.6h9.4l.4 2.4h-12.2zm17.2 2.4H263l-.4-2.4H279l.4 2.4h-6.8l2.8 19.6h-2.8zm13.8 16.2c1.4.8 3.4 1.4 5.4 1.4 3 0 4.4-1.6 4-3.8-.4-2-1.6-3.2-4.8-4.4-3.8-1.2-6.2-3.2-6.8-6.2-.6-3.4 2-6 6.2-6 2.2 0 4 .6 5 1l-.4 2.4c-.8-.4-2.4-1-4.4-1-3 0-3.8 1.8-3.6 3.4.4 2 1.8 3 5 4.2 4 1.4 6 3.2 6.6 6.4.4 3.4-1.6 6.4-6.8 6.4-2.2 0-4.6-.6-5.8-1.4l.4-2.4zm23 0c1.4.8 3.4 1.4 5.4 1.4 3 0 4.4-1.6 4-3.8-.4-2-1.6-3.2-4.8-4.4-3.8-1.2-6.2-3.2-6.8-6.2-.6-3.4 2-6 6.2-6 2.2 0 4 .6 5 1l-.4 2.4c-.8-.4-2.4-1-4.4-1-3 0-3.8 1.8-3.6 3.4.4 2 1.8 3 5 4.2 4 1.4 6 3.2 6.6 6.4.4 3.4-1.6 6.4-6.8 6.4-2.2 0-4.6-.6-5.8-1.4l.4-2.4zm18.4-16.2h-6.8l-.4-2.4h16.4l.4 2.4h-6.8l2.8 19.6h-2.8zm15 12.8l-1.2 7h-3l4.2-22h3.4l10.8 22h-3l-3.4-7z"/><path fill="#F5F7FA" fill-rule="nonzero" d="M347 196l-3-6.4c-.8-1.4-1.2-2.8-1.8-4-.2 1.4-.2 2.6-.6 4l-1.2 6.4h6.6z"/><path fill="#4390BE" fill-rule="nonzero" d="M357.4 205.2l-3.2-22h3.2l8.6 11.2c2 2.6 3.6 5 5 7.2-.6-3-1.2-5.6-1.6-9l-1.4-9.2h2.6l3.2 22H371l-8.6-11.2c-1.8-2.4-3.8-5-5.2-7.4.6 2.8 1 5.4 1.6 9l1.4 9.4h-2.8zm18.4-21.8c1.6-.2 3.8-.4 6-.4 4 0 7.2 1 9.4 2.8 2.2 1.8 3.8 4.4 4.2 8 .6 3.6-.2 6.6-2 8.6s-5 3.2-9.2 3.2c-2 0-3.8 0-5.2-.2l-3.2-22z"/><path fill="#F5F7FA" fill-rule="nonzero" d="M381.6 203c.8.2 1.8.2 3 .2 6 0 8.8-3.4 8-9.4-.8-5.2-4.2-8.6-10.2-8.6-1.4 0-2.6.2-3.2.2l2.4 17.6z"/><path fill="#4390BE" fill-rule="nonzero" d="M402.8 198.4l-1.2 7h-3l4.2-22h3.4l10.8 22h-3l-3.4-7z"/><path fill="#F5F7FA" fill-rule="nonzero" d="M409.8 196l-3-6.4c-.8-1.4-1.2-2.8-1.8-4-.2 1.4-.4 2.6-.6 4l-1.2 6.4h6.6z"/><path fill="#4390BE" fill-rule="nonzero" d="M417.2 183.4c1.4-.2 3.4-.4 5.4-.4 3 0 5 .6 6.6 1.8 1.2 1 2 2.4 2.4 4.2.4 3-1.2 4.8-3.4 5.6 1.8.6 3 2.2 3.8 4.4 1.2 3 2 5.2 2.6 6h-3c-.4-.6-1.2-2.6-2.2-5.2-1-3-2.4-4.2-5-4.2h-2.6l1.4 9.6h-2.8l-3.2-21.8z"/><path fill="#F5F7FA" fill-rule="nonzero" d="M421.4 193.6h3c3 0 4.8-1.6 4.4-4.2-.4-2.8-2.6-4-5.6-4.2-1.4 0-2.4.2-2.8.2l1 8.2z"/><path fill="#4390BE" fill-rule="nonzero" d="M434.8 183.4c1.6-.2 3.8-.4 6-.4 4 0 7.2 1 9.4 2.8 2.2 1.8 3.8 4.4 4.2 8 .6 3.6-.2 6.6-2 8.6s-5 3.2-9.2 3.2c-2 0-3.8 0-5.2-.2l-3.2-22z"/><path fill="#F5F7FA" fill-rule="nonzero" d="M440.4 203c.8.2 1.8.2 3 .2 6 0 8.8-3.4 8-9.4-.8-5.2-4.2-8.6-10.2-8.6-1.4 0-2.6.2-3.2.2l2.4 17.6z"/><path fill="#4390BE" fill-rule="nonzero" d="M262 224.8h-6.8l-.4-2.4h16.4l.4 2.4h-6.8l2.8 19.6h-2.8zm24.8 9.4h-8.6l1.2 8h9.6l.4 2.4H277l-3.2-22h12l.4 2.4h-9l1 7h8.6zm5.4 6.8c1.4.8 3.4 1.4 5.4 1.4 3 0 4.4-1.6 4-3.8-.4-2-1.6-3.2-4.8-4.4-3.8-1.2-6.2-3.2-6.8-6.2-.6-3.4 2-6 6.2-6 2.2 0 4 .6 5 1l-.4 2.4c-.8-.4-2.4-1-4.4-1-3 0-3.8 1.8-3.6 3.4.4 2 1.8 3 5 4.2 4 1.4 6 3.2 6.6 6.4.4 3.4-1.6 6.4-6.8 6.4-2.2 0-4.6-.6-5.8-1.4l.4-2.4zm18.2-16.2h-6.8l-.4-2.4h16.4l.4 2.4h-6.8l2.8 19.6h-2.8zm21 16.2c1.4.8 3.4 1.4 5.4 1.4 3 0 4.4-1.6 4-3.8-.4-2-1.6-3.2-4.8-4.4-3.8-1.2-6.2-3.2-6.8-6.2-.6-3.4 2-6 6.2-6 2.2 0 4 .6 5 1l-.4 2.4c-.8-.4-2.4-1-4.4-1-3 0-3.8 1.8-3.6 3.4.4 2 1.8 3 5 4.2 4 1.4 6 3.2 6.6 6.4.4 3.4-1.6 6.4-6.8 6.4-2.2 0-4.6-.6-5.8-1.4l.4-2.4zm32.4 2.8c-1 .6-3 1-5.6 1-6.2 0-11.4-4-12.6-11.2-1-7 3-11.6 9.8-11.6 2.8 0 4.6.6 5.4 1l-.4 2.4c-1.2-.6-2.8-1-4.6-1-5.2 0-8.2 3.4-7.2 9 .8 5.4 4.4 8.8 9.8 8.8 1.8 0 3.4-.4 4.6-1l.8 2.6zm.4-21c1.4-.2 3.4-.4 5.4-.4 3 0 5 .6 6.6 1.8 1.2 1 2 2.4 2.4 4.2.4 3-1.2 4.8-3.4 5.6 1.8.6 3 2.2 3.8 4.4 1.2 3 2 5.2 2.6 6h-3c-.4-.6-1.2-2.6-2.2-5.2-1-3-2.4-4.2-5-4.2h-2.6l1.4 9.6h-2.8l-3.2-21.8z"/><path fill="#F5F7FA" fill-rule="nonzero" d="M368.6 232.8h3c3 0 4.8-1.6 4.4-4.2-.4-2.8-2.6-4-5.6-4.2-1.4 0-2.4.2-2.8.2l1 8.2z"/><path fill="#4390BE" fill-rule="nonzero" d="M384.6 222.4l3.2 22H385l-3.2-22zm5 .4c1.4-.2 3.2-.4 5.4-.4 2.8 0 5 .6 6.4 1.8 1.4 1 2.4 2.6 2.6 4.6.2 2 0 3.6-1 4.8-1.2 1.6-3.6 2.4-6.4 2.4-.8 0-1.6 0-2.4-.2l1.2 8.8h-2.8l-3-21.8z"/><path fill="#F5F7FA" fill-rule="nonzero" d="M394 233.4c.6.2 1.4.2 2.4.2 3.4 0 5.2-1.6 4.8-4.8-.4-3-2.6-4.4-5.8-4.4-1.2 0-2.2 0-2.6.2l1.2 8.8z"/><path fill="#4390BE" fill-rule="nonzero" d="M411.6 224.8h-6.8l-.4-2.4h16.4l.4 2.4h-6.8l2.8 19.6h-2.8zm13.8 16.2c1.4.8 3.4 1.4 5.4 1.4 3 0 4.4-1.6 4-3.8-.4-2-1.6-3.2-4.8-4.4-3.8-1.2-6.2-3.2-6.8-6.2-.4-3.4 2-6 6.2-6 2.2 0 4 .6 5 1l-.4 2.4c-.8-.4-2.4-1-4.4-1-3 0-3.8 1.8-3.6 3.4.4 2 1.8 3 5 4.2 4 1.4 6.2 3.2 6.6 6.4.4 3.4-1.6 6.4-6.8 6.4-2.2 0-4.6-.6-5.8-1.4l.4-2.4z"/><path fill="#F5F7FA" fill-rule="nonzero" d="M246 305v75.8c-.6 0-1.4.2-2 .2H-21.2v-76H244c.8-.2 1.4-.2 2 0z"/><path d="M-21.2 309.8H246m-267.2 4.4H246m-267.2 4.4H246M-21.2 323H246m-267.2 4.4H246m-267.2 4.4H246m-267.2 4.4H246m-267.2 4.2H246m-267.2 4.4H246m-267.2 4.4H246m-267.2 4.4H246M-21.2 358H246m-267.2 4.4H246m-267.2 4.4H246m-267.2 4.4H246m-267.2 4.4H246" stroke="#8D88A5" stroke-linecap="round" stroke-linejoin="round" stroke-width=".57"/><path fill="#4390BE" fill-rule="nonzero" d="M267.2 328c0-12-9.4-22-21.2-23.2-.6 0-1.4-.2-2-.2H-35.2v-11H244c19 0 34.2 15.4 34.2 34.2v29.6c0 19-15.4 34.2-34.2 34.2H-35.4v-11H244c.8 0 1.4 0 2-.2 11.8-1 21.2-11 21.2-23.2V328z"/><path fill="#579FCA" fill-rule="nonzero" d="M267.2 328v29.6c0 12-9.4 22-21.2 23.2V305c12 1 21.2 11 21.2 23z"/><path fill="#579FCA" fill-rule="nonzero" d="M634.6 328v29.6c0 19-15.4 34.2-34.2 34.2H244c19 0 34.2-15.4 34.2-34.2V328c0-19-15.4-34.2-34.2-34.2h356.2c19 0 34.4 15.4 34.4 34.2z"/><path fill="#4390BE" fill-rule="nonzero" d="M320.4 293.8c19 0 34.2 15.4 34.2 34.2v29.6c0 19-15.4 34.2-34.2 34.2h-31.6c19 0 34.2-15.4 34.2-34.2V328c0-19-15.4-34.2-34.2-34.2h31.6z"/><path fill="#579FCA" fill-rule="nonzero" d="M580 292.8h25v99h-25z"/><path stroke="#5F5A76" stroke-linecap="round" stroke-linejoin="round" stroke-width="1.71" d="M244 391.8c19 0 34.2-15.4 34.2-34.2V328c0-19-15.4-34.2-34.2-34.2"/><path stroke="#5F5A76" stroke-linecap="round" stroke-linejoin="round" stroke-width="2" d="M288.8 391.8c19 0 34.2-15.4 34.2-34.2V328c0-19-15.4-34.2-34.2-34.2"/><path stroke="#5F5A76" stroke-linecap="round" stroke-linejoin="round" stroke-width="2" d="M320.4 391.8c19 0 34.2-15.4 34.2-34.2V328c0-19-15.4-34.2-34.2-34.2"/><path stroke="#5F5A76" stroke-linecap="round" stroke-linejoin="round" stroke-width="1.71" d="M241.6 293.8h-277v11H244c.8 0 1.4 0 2 .2 11.8 1 21.2 11 21.2 23.2v29.6c0 12-9.4 22-21.2 23.2-.6 0-1.4.2-2 .2H-35.2v11h276.8"/><path stroke="#5F5A76" stroke-linecap="round" stroke-linejoin="round" stroke-width="2" d="M241.6 391.8h358.6c18.8 0 34.2-15.4 34.2-34.2V328c0-19-15.4-34.2-34.2-34.2H241.6M246 305v75.6"/><path fill="#F5F7FA" fill-rule="nonzero" d="M290.8 403.4v75.8c-.6 0-1.4.2-2 .2H23.4v-76h267.4z"/><path d="M23.4 408.4h267.4m-267.4 4.4h267.4m-267.4 4.4h267.4m-267.4 4.2h267.4m-267.4 4.4h267.4m-267.4 4.4h267.4m-267.4 4.4h267.4M23.4 439h267.4m-267.4 4.4h267.4m-267.4 4.4h267.4m-267.4 4.4h267.4m-267.4 4.4h267.4M23.4 461h267.4m-267.4 4.2h267.4m-267.4 4.4h267.4M23.4 474h267.4" stroke="#7F7B97" stroke-linecap="round" stroke-linejoin="round" stroke-width=".57"/><path fill="#4390BE" fill-rule="nonzero" d="M312 426.6c0-12-9.4-22-21.2-23.2-.6 0-1.4-.2-2-.2H9.4v-11h279.2c19 0 34.2 15.4 34.2 34.2V456c0 19-15.4 34.2-34.2 34.2H9.4v-11h279.2c.8 0 1.4 0 2-.2 11.8-1 21.2-11 21.2-23.2v-29.2h.2z"/><path fill="#579FCA" fill-rule="nonzero" d="M312 426.6v29.6c0 12-9.4 22-21.2 23.2v-75.8c11.8.8 21.2 10.8 21.2 23z"/><path fill="#579FCA" fill-rule="nonzero" d="M679.2 426.6v29.6c0 19-15.4 34.2-34.2 34.2H288.8c19 0 34.2-15.4 34.2-34.2v-29.6c0-19-15.4-34.2-34.2-34.2H645c19 0 34.2 15.2 34.2 34.2z"/><path fill="#4390BE" fill-rule="nonzero" d="M365 392.4c19 0 34.2 15.4 34.2 34.2v29.6c0 19-15.4 34.2-34.2 34.2h-31.6c19 0 34.2-15.4 34.2-34.2v-29.6c0-19-15.4-34.2-34.2-34.2H365zm220.8-1h25v99h-25z"/><path stroke="#5F5A76" stroke-linecap="round" stroke-linejoin="round" stroke-width="2" d="M288.8 490.4c19 0 34.2-15.4 34.2-34.2v-29.6c0-19-15.4-34.2-34.2-34.2m44.6 98c19 0 34.2-15.4 34.2-34.2v-29.6c0-19-15.4-34.2-34.2-34.2"/><path stroke="#5F5A76" stroke-linecap="round" stroke-linejoin="round" stroke-width="2" d="M365 490.4c19 0 34.2-15.4 34.2-34.2v-29.6c0-19-15.4-34.2-34.2-34.2m-78.8 0H9.4v11h279.2c.8 0 1.4 0 2 .2 11.8 1 21.2 11 21.2 23.2v29.6c0 12-9.4 22-21.2 23.2-.6 0-1.4.2-2 .2H9.4v11h276.8"/><path stroke="#5F5A76" stroke-linecap="round" stroke-linejoin="round" stroke-width="2" d="M286.2 490.4h358.6c18.8 0 34.2-15.4 34.2-34.2v-29.6c0-19-15.4-34.2-34.2-34.2H286.4m4.4 11v75.8"/><path stroke="#007DEA" stroke-linecap="round" stroke-linejoin="round" stroke-width="1.71" d="M23.4 403.4v76"/><path fill="#FFDBB3" fill-rule="nonzero" stroke="#5F5A76" stroke-linecap="round" stroke-linejoin="round" stroke-width="2" d="M564.2 222.2c.2-.4.4-.6.8-1 0-.2.2-.2.2-.4l.4-.4c1-1 1.6-1.6 3.2-2.4.2-.2 1-.6 1.4-.6.8-.4.8-.4 2-.8.4-.2 1.6-.4 3.6-.6 1.4 0 2.6.2 3.2.2 1.8.4 4.2 1.4 5.6 2.6.4.4 1.4 1.2 2 2.2.6 1 1 1.6 1.4 3l5.2 17.8c.6 2-.2 4.2-2.4 6.4-4.2 4.2-12.4 6.6-18 5-2.8-.8-4.6-2.2-5.2-4.2-1.6-5.4-3.6-12.4-5.2-17.8-.2-.6-.2-1-.4-1.4 0-.4 0-.8-.2-1.4 0-.8.2-2 .4-2.6 0-.2 0-.2.2-.4 0-.2.2-.4.2-.6v-.2c0-.2 0-.2.2-.4 0-.2.2-.4.2-.4v-.2c0-.2.2-.2.2-.4v-.4c.6-.2.8-.4 1-.6z"/><path fill="#5F5A76" fill-rule="nonzero" d="M659 491.8s-8-2.6-13.2 4.4c3.6 5.2 6.8 9.8 7.8 11 2.6 3 5.2 1.8 5.4-1.8v-13.6z"/><path fill="#FFDBB3" fill-rule="nonzero" d="M647.4 464.2L635 470l-1.2 8.6s6.4 9.4 12 17.4c5.2-6.8 13.2-4.4 13.2-4.4-.2-11.2-.2-24.8-.2-24.8l-11.4-2.6z"/><path fill="#8ED5FF" fill-rule="nonzero" d="M583.6 243.2l63.8 221 11.4 2.8-64-221.2z"/><path fill="#8ED5FF" fill-rule="nonzero" d="M583.6 243.2l-12.4 5.8h-.2l64 221 12.4-5.8z"/><path fill="#6A6683" fill-rule="nonzero" d="M571 249l-3.4-12.4-1.4 8.6 3.6 12.4z"/><path fill="#8D88A5" fill-rule="nonzero" d="M580 230.8l3.6 12.4 11.2 2.6-3.6-12.2z"/><path fill="#7F7B97" fill-rule="nonzero" d="M567.6 236.6L571 249h.2l12.4-5.8-3.6-12.4z"/><path fill="#579FCA" fill-rule="nonzero" d="M569.8 257.6l64 221 1.2-8.6-64-221z"/><path stroke="#5F5A76" stroke-linecap="round" stroke-linejoin="round" stroke-width="2" d="M567.6 236.6l-1.4 8.6 3.6 12.4 64 221"/><path stroke="#5F5A76" stroke-linecap="round" stroke-linejoin="round" stroke-width="2" d="M580 230.8l-12.4 5.8L571 249l64 221"/><path stroke="#5F5A76" stroke-linecap="round" stroke-linejoin="round" stroke-width="2" d="M658.8 467l-64-221.2-3.6-12.2-11.2-2.8 3.6 12.4 63.8 221m11.4 2.8s.2 13.6.2 24.8v13.6c0 3.6-2.8 5-5.4 1.8-1-1.2-4.2-5.8-7.8-11-5.6-8-12-17.4-12-17.4l1.2-8.6 12.4-5.8 11.4 2.6z"/><path stroke="#5F5A76" stroke-linecap="round" stroke-linejoin="round" stroke-width="1.71" d="M659 491.8s-8-2.6-13.2 4.4m-51-250.4l-11.2-2.6-12.4 5.8h-.2l-1.2 8.6"/><path fill="#F5F7FA" fill-rule="nonzero" stroke="#5F5A76" stroke-linecap="round" stroke-linejoin="round" stroke-width="2" d="M59.8 514.2h-177.6l-21-253.4H81z"/><path fill="#ECF0F1" fill-rule="nonzero" stroke="#5F5A76" stroke-linecap="round" stroke-linejoin="round" stroke-width="2" d="M83.6 258h-225l22.6-59.2H60.8z"/><path fill="#D7DADA" fill-rule="nonzero" stroke="#5F5A76" stroke-linecap="round" stroke-linejoin="round" stroke-width="1.71" d="M-156.6 241.4H98.8V288h-255.4z"/><path stroke="#5F5A76" stroke-linecap="round" stroke-linejoin="round" stroke-width="2" d="M16.8 251.8v26m23-26v26m23-26v26m23-26v26"/><path fill="#D7DADA" fill-rule="nonzero" stroke="#5F5A76" stroke-linecap="round" stroke-linejoin="round" stroke-width="2" d="M92 241.4h-241.8l7.8-15.8H84.2zm-22.4 221l12-137.4h-221l12 137.4z"/></g></svg>