<svg xmlns="http://www.w3.org/2000/svg" width="24" height="20" viewBox="0 0 24 20"><g fill="#FFF"><path d="M22.336 3.978a2.997 2.997 0 0 0-2.191-.901h-2.712l-.618-1.634c-.153-.393-.433-.732-.841-1.016C15.566.142 15.149 0 14.721 0H8.523c-.428 0-.846.142-1.253.427-.408.284-.688.623-.842 1.016l-.617 1.634H3.099c-.856 0-1.586.3-2.191.901A2.954 2.954 0 0 0 0 6.154v10.769c0 .85.303 1.575.908 2.175A2.997 2.997 0 0 0 3.099 20h17.045c.856 0 1.586-.3 2.191-.902a2.95 2.95 0 0 0 .908-2.175V6.153c0-.849-.302-1.574-.907-2.175zm-6.883 11.365c-1.061 1.053-2.338 1.58-3.831 1.58-1.493 0-2.77-.527-3.832-1.58-1.061-1.054-1.592-2.322-1.592-3.804 0-1.483.531-2.75 1.592-3.804 1.061-1.054 2.339-1.58 3.832-1.58 1.493 0 2.77.526 3.831 1.58 1.062 1.053 1.592 2.321 1.592 3.804 0 1.482-.53 2.75-1.592 3.804z"/><path d="M11.622 8.108c-.968 0-1.796.344-2.483 1.031a3.384 3.384 0 0 0-1.03 2.483c0 .968.343 1.795 1.03 2.482a3.384 3.384 0 0 0 2.483 1.031c.967 0 1.795-.343 2.482-1.03a3.384 3.384 0 0 0 1.031-2.483c0-.968-.344-1.796-1.03-2.483a3.384 3.384 0 0 0-2.483-1.03z"/></g></svg>