<svg xmlns="http://www.w3.org/2000/svg" width="124" height="100" viewBox="0 0 124 100"><g fill="none"><path fill="#7F7B97" stroke="#5F5A76" stroke-width="3" d="M29.14 6.402v.002l-.113 44.692a4.858 4.858 0 0 0 4.853 4.877l72.15.192a4.858 4.858 0 0 0 4.878-4.852l.073-29.589.441-.438 10.017-9.942a.628.628 0 0 0-.44-1.073l-9.988-.026.004-1.5.006-2.124a4.858 4.858 0 0 0-4.853-4.877l-72.15-.193a4.858 4.858 0 0 0-4.877 4.851z"/><path fill="#8D88A5" stroke="#5F5A76" stroke-width="3" d="M93.982 48.734v-.002a4.858 4.858 0 0 0-4.879-4.851l-72.15.193a4.857 4.857 0 0 0-4.851 4.878l.01 3.623-1.5.004-8.486.022a.628.628 0 0 0-.447 1.068l10.463 10.385.002.623.071 28.967a4.857 4.857 0 0 0 4.88 4.851l72.15-.192a4.857 4.857 0 0 0 4.85-4.88l-.113-44.69z"/><path fill="#FFDBB3" stroke="#5F5A76" stroke-width="3" d="M76.47 78.611l.045 19.175-38.196.102-.068-27.514 10.61-.029c-3.94-5.125-3.856-13.698-3.208-17.477a4.77 4.77 0 0 1 4.721-3.896c.379 0 .756.043 1.125.125a4.884 4.884 0 0 1 3.684 4.828l.007 2.738a15.906 15.906 0 0 0 2.826 9.18 11.419 11.419 0 0 0 5.699 4.463 40.075 40.075 0 0 1 12.754 8.305z"/><g fill="#FFFFF5" stroke="#5F5A76" stroke-width="3" transform="translate(44.471 21.154)"><circle cx="6.509" cy="6.483" r="6.366"/><circle cx="25.607" cy="6.483" r="6.366"/><circle cx="44.705" cy="6.483" r="6.366"/></g><path fill="#F09372" d="M47.5 74.47h-9.252c-.165.001-.33-.02-.488-.064.155-.06.321-.09.488-.085h8.488c.262-.006.523.045.764.149z"/><g fill="#FDD7AD"><path d="M46.736 79.354h-8.488a4.244 4.244 0 1 1 0-8.488h8.488a4.244 4.244 0 1 1 0 8.488zm6.366 8.488H34.004a4.244 4.244 0 1 1 0-8.488h19.098a4.244 4.244 0 1 1 0 8.488z"/><path d="M31.924 96.33a4.218 4.218 0 0 1-.912-.749 4.708 4.708 0 0 1-1.14-4.268 4.423 4.423 0 0 1 4.33-3.47h18.9a4.022 4.022 0 0 1 2.992 1.338 4.697 4.697 0 0 1-.913 7.15H31.924z"/></g><path fill="#5F5A76" d="M80.078 78.55c-.361-.36-8.935-8.72-15.71-10.929a9.325 9.325 0 0 1-4.615-3.659 13.695 13.695 0 0 1-2.44-7.972l-.008-2.737a6.933 6.933 0 0 0-10.817-5.892 6.788 6.788 0 0 0-2.937 4.485 30.633 30.633 0 0 0 1.59 15.572l-6.896.018a6.385 6.385 0 0 0-6.35 6.383 6.22 6.22 0 0 0 .474 2.354A6.338 6.338 0 0 0 29.362 86.6a6.723 6.723 0 0 0-1.52 3.06 6.181 6.181 0 0 0-.124 1.21 5.85 5.85 0 0 0 1.73 4.346 6.353 6.353 0 0 0 4.61 1.94l19.162-.052a6.234 6.234 0 0 0 6.308-6.085 6.693 6.693 0 0 0-1.689-4.495 6.295 6.295 0 0 0 1.665-4.29 6.385 6.385 0 0 0-6.383-6.35l-.382.001a5.884 5.884 0 0 0 .377-2.123 6.35 6.35 0 0 0-2.305-4.874l-.021-.021a1.44 1.44 0 0 0-.256-.467c-3.28-4.277-3.449-12.001-2.801-15.844a2.516 2.516 0 0 1 1.12-1.658 2.674 2.674 0 0 1 4.208 2.366L53.07 56a18.056 18.056 0 0 0 3.21 10.41 13.332 13.332 0 0 0 6.783 5.245c5.82 1.894 13.968 9.83 14.053 9.915.397.39.93.61 1.487.611a2.071 2.071 0 0 0 1.505-.64 2.095 2.095 0 0 0-.029-2.992zm-42.352-6.783h.043c.155-.062.32-.09.487-.087l8.488-.022c.262-.007.523.043.764.146a2.118 2.118 0 0 1-.752 4.098l-8.488.023a2.128 2.128 0 0 1-2.128-2.117 2.096 2.096 0 0 1 1.586-2.041zM53.209 92.86l-19.161.052a2.164 2.164 0 0 1-1.573-.654 1.774 1.774 0 0 1-.512-1.272c.001-.177.015-.355.04-.53a2.3 2.3 0 0 1 2.245-1.789l18.907-.05a2.016 2.016 0 0 1 1.466.675c.441.478.679 1.11.663 1.76a2 2 0 0 1-2.075 1.808zm-.076-12.731a2.124 2.124 0 0 1 .117 4.243l-19.204.051a2.122 2.122 0 0 1-.011-4.244l19.098-.05z"/><path fill="#579FCA" stroke="#5F5A76" stroke-width="3" d="M94.042 79.12a.628.628 0 0 0-.622-.625H78.57a.628.628 0 0 0-.626.622v19.169h11.234a4.857 4.857 0 0 0 4.864-4.866v-14.3z"/></g></svg>