<svg xmlns="http://www.w3.org/2000/svg" width="69" height="101" viewBox="0 0 69 101"><g fill="none"><path fill="#AF8066" d="M63.413 39.033a3.446 3.446 0 0 0 3.433-3.438 3.46 3.46 0 0 0-3.433-3.438h-.017c.017-.292.017-2.303.017-2.578C63.171 13.679 50.11.982 34.232 1.215 18.354.982 5.292 13.678 5.05 29.579c0 .275 0 2.286.017 2.578H5.05a3.46 3.46 0 0 0-3.433 3.438 3.446 3.446 0 0 0 3.433 3.438s1.716 8.595-1.717 15.471c-3.055 6.12-2.025 13.615 3.09 17.603l.017.017a20.272 20.272 0 0 1 9.236-5.02h6.093L32.98 77.42l1.253 1.151 1.201-1.22 10.145-10.246h7.21a20.256 20.256 0 0 1 9.2 4.986l4.583-13.323a16 16 0 0 0-1.442-4.263c-3.433-6.876-1.716-15.47-1.716-15.47z"/><path fill="#5F5A76" stroke="#5F5A76" stroke-width="2" d="M66.577 58.736L61.994 72.08a20.25 20.25 0 0 0-9.203-4.994h-7.21L35.435 77.348l-1.202 1.222-1.253-1.153-11.21-10.33h-6.095a20.266 20.266 0 0 0-9.236 5.027l-.018-.018c-5.116-3.994-6.145-11.5-3.09-17.63 3.434-6.886 1.717-15.495 1.717-15.495H8.98c-.085-.379-.154-.74-.206-1.102.069.345.138.672.206 1.016.188.867.423 1.724.704 2.566l.31.826c.12.275.223.55.343.826a23.06 23.06 0 0 0 3.914 6.095c.377.43.79.86 1.202 1.257.188.19.377.378.566.55.412.363.841.741 1.27 1.085.035.018.07.052.103.07.447.36.91.705 1.391 1.032.498.345 1.013.672 1.545.981.515.311 1.064.603 1.614.88.446.223.91.447 1.373.636l.618.258c.395.155.79.31 1.185.43.16.073.327.13.498.173.41.152.828.279 1.253.379.196.068.397.119.601.154.095.032.193.055.292.07.36.103.72.171 1.081.24.275.052.55.104.807.138.344.07.705.12 1.048.155.306.051.616.086.926.103.43.052.859.069 1.289.086.446.018.875.035 1.321.035.447 0 .876-.017 1.322-.035.43-.017.858-.034 1.287-.086.31-.017.62-.052.928-.103.343-.035.703-.086 1.047-.155.257-.034.532-.086.807-.137.36-.07.721-.138 1.081-.241.1-.015.197-.038.292-.07.198-.035.394-.086.584-.154.494-.123.981-.273 1.459-.448.034 0 .052 0 .069-.017.55-.173 1.064-.38 1.596-.586.155-.068.293-.12.447-.189a28.27 28.27 0 0 0 2.97-1.498 26.008 26.008 0 0 0 2.884-1.98c.069-.051.12-.103.189-.155.429-.344.858-.706 1.27-1.085.446-.413.859-.826 1.27-1.257.395-.43.79-.878 1.168-1.325.275-.345.532-.688.807-1.05a23.106 23.106 0 0 0 2.404-4.201c.12-.259.223-.517.342-.792a21.91 21.91 0 0 0 1.03-3.375h3.932s-1.717 8.609 1.717 15.496a16.04 16.04 0 0 1 1.442 4.269z"/><path fill="#FFDBB3" d="M42.049 67.25l-2.504 3.683-5.178 7.637-5.179-7.637-2.503-3.684z"/><path fill="#F3D0A9" stroke="#5F5A76" stroke-width="2" d="M39.052 72.64c-.968 0-1.752-.766-1.752-1.71V57.64c0-.945.784-1.71 1.752-1.71s1.752.765 1.752 1.71v13.29c0 .944-.784 1.71-1.752 1.71zm-9.807 0c-.967 0-1.752-.766-1.752-1.71V57.64c0-.945.785-1.71 1.752-1.71.968 0 1.752.765 1.752 1.71v13.29c0 .944-.784 1.71-1.752 1.71z"/><path fill="#FFDBB3" d="M29.777 57.546h8.667v16.667h-8.667z"/><path fill="#579FCA" stroke="#5F5A76" stroke-width="3" d="M67.233 94.976L65.8 89.192l-3.672-14.89a19.794 19.794 0 0 0-1.004-.993 18.804 18.804 0 0 0-8.362-4.56h-6.414l-9.712 9.764-2.217 2.242-1.064-.974-1.256-1.148-10.79-9.884h-5.333C7.495 70.91 1.536 78.51 1.5 87.24v10.273a1.94 1.94 0 0 0 1.937 1.93h61.855a1.94 1.94 0 0 0 1.941-1.926v-2.54z"/><path fill="#F3D0A9" d="M39.353 57.546v3.308c-3.384.62-6.858.62-10.242 0v-3.308h10.242z"/><path fill="#4390BE" stroke="#5F5A76" d="M36.167 77.553a.935.935 0 0 0-.233-.572l-1.586 1.179-1.66-1.116a.853.853 0 0 0-.188.504v21.735h3.667v-21.73z"/><path fill="#FFF" stroke="#5F5A76" stroke-width="2" d="M34.232 78.56l-5.29 6.642a1.704 1.704 0 0 1-2.813-.208l-9.723-16.751a1.727 1.727 0 0 1 .842-2.464l5.431-2.182a1.7 1.7 0 0 1 2.055.653l1.881 2.838 2.482 3.732 5.135 7.74zm17.826-10.317l-9.724 16.751a1.708 1.708 0 0 1-2.815.208l-5.287-6.643 5.134-7.739 2.482-3.732 1.882-2.838a1.699 1.699 0 0 1 2.054-.653l5.43 2.183c.463.186.823.564.984 1.037.162.474.11.994-.14 1.426z"/><path fill="#FDD7AD" d="M9.704 41.643a18.747 18.747 0 0 1-.626-2.426 14.91 14.91 0 0 1-.183-1.078c.06.337.122.657.183.994.167.848.376 1.686.626 2.51z"/><path fill="#6A6683" stroke="#5F5A76" stroke-width="2" d="M63.342 29.626c0 .276 0 2.29-.017 2.583h-3.527c-.052-.62-.155-1.24-.257-1.86a21.83 21.83 0 0 0-.343-1.446c0-.017-.017-.035-.017-.052v-.017a29.887 29.887 0 0 0-4.4-6.956c-14.18 1.188-21.851-4.185-25.207-7.629a14.256 14.256 0 0 1-2.192-2.703 8.524 8.524 0 0 1-.976 2.015c-1.575 2.548-5.462 6.939-14.35 9.54-.582.189-1.181.344-1.798.498l-.908 4.96v.016c-.153.586-.308 1.172-.428 1.775-.102.62-.205 1.239-.256 1.859H5.138c-.017-.293-.017-2.307-.017-2.583.24-15.927 13.271-28.645 29.11-28.411 15.84-.234 28.87 12.484 29.111 28.411z"/><path fill="#F3D0A9" stroke="#5F5A76" stroke-width="2" d="M9.164 38.947H5.28c-1.872-.005-3.388-1.51-3.393-3.369.013-1.855 1.524-3.356 3.393-3.37h3.512a18.135 18.135 0 0 0-.12 2.174c.003.8.048 1.598.136 2.392.034.371.102.724.153 1.095.051.354.119.708.203 1.078zm57.682-3.369c-.005 1.859-1.52 3.364-3.392 3.37h-3.885a22.9 22.9 0 0 0 .356-2.174c.088-.794.134-1.593.136-2.392a18.465 18.465 0 0 0-.119-2.173h3.512c1.867.013 3.378 1.514 3.392 3.37z"/><path fill="#FFDBB3" stroke="#5F5A76" stroke-width="2" d="M59.97 36.982a23.654 23.654 0 0 1-.36 2.215 21.813 21.813 0 0 1-1.03 3.366c-.12.274-.223.532-.343.79a23.03 23.03 0 0 1-2.403 4.19c-.274.36-.532.703-.807 1.046-.377.447-.772.893-1.166 1.322-.412.43-.824.842-1.27 1.254-.412.378-.84.739-1.27 1.081-.069.052-.12.104-.188.155a26 26 0 0 1-2.883 1.975 28.348 28.348 0 0 1-2.97 1.494c-.154.068-.291.12-.446.189-.532.206-1.046.411-1.595.584-.018.017-.035.017-.07.017-.477.174-.964.324-1.458.446-.19.068-.385.12-.583.154a1.775 1.775 0 0 1-.292.07c-.36.103-.72.17-1.081.24-.274.051-.55.103-.807.137-.343.07-.703.12-1.046.155a8.55 8.55 0 0 1-.927.103c-.43.05-.858.068-1.287.085-.446.018-.875.035-1.321.035-.447 0-.875-.017-1.322-.035a16.32 16.32 0 0 1-1.287-.085 8.514 8.514 0 0 1-.926-.103 10.923 10.923 0 0 1-1.048-.155c-.257-.034-.531-.086-.806-.137-.36-.07-.72-.137-1.081-.24a1.766 1.766 0 0 1-.292-.07 3.852 3.852 0 0 1-.6-.154 10.52 10.52 0 0 1-1.254-.378 2.86 2.86 0 0 1-.497-.171c-.395-.12-.79-.275-1.184-.43l-.618-.257a19.75 19.75 0 0 1-1.373-.635 23.957 23.957 0 0 1-1.613-.877 23.362 23.362 0 0 1-1.544-.978c-.48-.326-.944-.67-1.39-1.03-.034-.017-.069-.052-.103-.069-.43-.343-.858-.72-1.27-1.081-.19-.173-.378-.361-.566-.55a20.795 20.795 0 0 1-1.201-1.254 22.991 22.991 0 0 1-3.913-6.078c-.12-.275-.223-.55-.344-.824l-.308-.824a24.264 24.264 0 0 1-.704-2.559c-.068-.343-.138-.67-.206-1.013-.051-.378-.12-.738-.155-1.116a23.057 23.057 0 0 1-.137-2.438c-.003-.74.037-1.48.12-2.215.052-.619.155-1.236.258-1.854.12-.601.275-1.185.429-1.77v-.016l.91-4.946a27.394 27.394 0 0 0 1.801-.497c8.907-2.593 12.802-6.972 14.38-9.513a8.483 8.483 0 0 0 .98-2.01 14.23 14.23 0 0 0 2.196 2.697c3.363 3.434 11.051 8.791 25.26 7.607a29.783 29.783 0 0 1 4.41 6.936v.018c0 .017.018.034.018.051.12.48.24.962.343 1.443.103.618.206 1.235.257 1.854.084.735.124 1.475.12 2.215a23.033 23.033 0 0 1-.137 2.438z"/><path fill="#FFF" stroke="#5F5A76" d="M42.857 94.068a1.752 1.752 0 1 1-3.504.001 1.752 1.752 0 0 1 3.504 0z"/><path fill="#FFFFF5" d="M30.997 32.344a6.873 6.873 0 0 1-6.87 6.873 6.713 6.713 0 0 1-3.846-1.185 6.868 6.868 0 0 1 3.132-12.526 6.86 6.86 0 0 1 6.88 3.848c.471.925.713 1.95.704 2.99zm20.485 0a6.867 6.867 0 0 1-2.012 4.86 6.868 6.868 0 0 1-4.86 2.013 6.912 6.912 0 0 1-6.874-6.873 6.865 6.865 0 0 1 13.059-2.972c.457.923.692 1.94.687 2.972z"/><path fill="#8D88A5" stroke="#5F5A76" stroke-width="2" d="M18.868 32.299a1.712 1.712 0 0 1-1.708 1.707 21.114 21.114 0 0 0-7.766 1.52c-.225.124-.478.19-.735.187-.016-.393-.033-.803-.033-1.212-.004-.736.036-1.471.12-2.202 0-.069.016-.137.016-.205a25.591 25.591 0 0 1 8.398-1.502 1.713 1.713 0 0 1 1.708 1.707zm41.24 2.202c0 .41-.018.819-.035 1.212a1.476 1.476 0 0 1-.733-.188 21.115 21.115 0 0 0-7.767-1.52 1.707 1.707 0 0 1 0-3.413 25.59 25.59 0 0 1 8.398 1.502c0 .068.017.136.017.205.083.73.123 1.466.12 2.202zm-22.464-.405c-.454 0-.89-.18-1.21-.5a4.248 4.248 0 0 0-2.21-1.207 4.25 4.25 0 0 0-2.216 1.212 1.712 1.712 0 0 1-2.4-.023 1.706 1.706 0 0 1-.013-2.397 7.519 7.519 0 0 1 4.63-2.207 7.519 7.519 0 0 1 4.627 2.207 1.706 1.706 0 0 1-1.208 2.915z"/><path fill="#F2F2E9" d="M30.997 32.267a6.967 6.967 0 0 1-2.024 4.915 6.889 6.889 0 0 1-4.888 2.035 6.729 6.729 0 0 1-3.87-1.199c.743-3.475 3.076-7.975 10.073-8.774.475.935.719 1.972.709 3.023zm20.485-.012a7.034 7.034 0 0 1-1.995 4.923 6.737 6.737 0 0 1-4.82 2.039 6.6 6.6 0 0 1-3.697-1.131c.857-4.93 4.936-8.599 9.83-8.842a6.84 6.84 0 0 1 .682 3.01z"/><path fill="#8D88A5" stroke="#5F5A76" stroke-width="2" d="M23.989 40.834a8.625 8.625 0 1 1 8.626-8.625 8.636 8.636 0 0 1-8.626 8.625zm0-13.8a5.175 5.175 0 1 0 0 10.35 5.175 5.175 0 0 0 0-10.35zm20.755 13.8a8.625 8.625 0 1 1 8.625-8.625 8.637 8.637 0 0 1-8.625 8.625zm0-13.8a5.175 5.175 0 1 0 0 10.35 5.175 5.175 0 0 0 0-10.35z"/></g></svg>