<svg xmlns="http://www.w3.org/2000/svg" width="1920" height="742" viewBox="0 0 1920 742"><g fill="none"><path fill="#ECF0F1" d="M0 721h1920v2.238H0z"/><path fill="#F5F7FA" d="M1646 287.567c-62.738-11.516-107.7 8.409-142.774 39.069-35.078 30.664-46.182 78.723-152.78 100.44-106.598 21.72-143.04 72.663-150.51 136.954-7.466 64.295 43.038 158.262 161.305 158.262h234.365c42.983 0 139.818-9.892 181.318-104.847 41.502-94.962 46.936-297.24-130.924-329.878z"/><path fill="#D7DADA" d="M1694.012 336.74c-11.024-17.837-17.38-24.196-42.82-30.131-25.448-5.935-119.314 25.467-142.185 39.315-22.867 13.849-56.668 61.328-96.687 86.098-40.019 24.772-138.335 42.33-154.005 152.452-11.593 81.509 33.957 120.005 80.862 136.657a209.517 209.517 0 0 0 22.063 1.16h112.82c12.116-35.758 46.832-96.103 120.728-159.58 102.1-87.703 110.251-208.133 99.224-225.97z"/><path fill="#5F5A76" d="M1595.606 723.706H1361.24c-65.768 0-104.88-28.449-126.109-52.31-26.781-30.11-40.807-71.312-36.6-107.53 8.709-74.97 56.89-118.876 151.63-138.18 79.809-16.26 105.728-47.327 128.595-74.738 7.61-9.123 14.8-17.74 23.538-25.38 41.877-36.604 88.967-49.495 143.96-39.395 59.877 10.985 103.53 41.601 129.757 90.993 38.698 72.886 30.406 176.33 2.213 240.844-40.196 91.966-131.667 105.696-182.618 105.696zm15.707-438.01c-39.69 0-74.99 13.886-107.154 42.005-8.573 7.494-15.692 16.027-23.232 25.062-23.165 27.769-49.42 59.242-130.198 75.699-93.368 19.026-140.839 62.154-149.388 135.728-4.115 35.44 9.645 75.796 35.907 105.319 20.842 23.43 59.271 51.362 123.993 51.362h234.367c50.257 0 140.473-13.512 180.02-103.998 27.921-63.889 36.16-166.285-2.117-238.378-25.797-48.588-68.784-78.714-127.765-89.537-11.839-2.17-23.309-3.261-34.433-3.261z"/><path fill="#F3D0A9" d="M1196.995 600.366l-46.793 61.17 5.293 21.844 22.75 10.705s2.645-9.16 8.89-17.262c6.244-8.102 40.36-50.435 40.36-50.435l-30.5-26.022z"/><path fill="#5F5A76" d="M1178.245 695.501c-.206 0-.412-.044-.6-.133l-22.751-10.705a1.412 1.412 0 0 1-.774-.947l-5.293-21.845a1.428 1.428 0 0 1 .25-1.199l46.794-61.169a1.41 1.41 0 0 1 2.04-.214l30.498 26.023c.582.498.668 1.368.185 1.965-.343.424-34.18 42.415-40.34 50.413-6.014 7.796-8.625 16.698-8.652 16.79a1.412 1.412 0 0 1-1.357 1.021zm-21.535-13.113l20.688 9.732c1.046-3.017 3.757-9.857 8.618-16.162 5.624-7.297 34.156-42.736 39.512-49.384l-28.315-24.16-45.479 59.447 4.976 20.527z"/><path fill="#FFF" d="M1167.263 728.35l-8.137 12.081-128.177-75.263 8.13-12.085 40.404 23.742z"/><path fill="#5F5A76" d="M1132.298 649.804c11.179-1.238 15.033-5.479 18.621-3.016 3.622 2.51 5.011 10-2.123 14.746-2.083-1.31-4.662-2.12-8.442-2.662-7.863-1.195-39.667-5.174-46.761-5.79-7.092-.62-8.364 4.208-8.364 4.208.037-4.093-.696-6.91-1.118-8.183 0 0 1.849-3.514 8.13-2.471 6.247 1.041 28.915 4.364 40.057 3.168z"/><path fill="#7F7B97" d="M1093.593 653.083c7.094.616 38.898 4.594 46.761 5.789 3.779.543 6.36 1.354 8.442 2.662 2.278 1.39 3.934 3.4 5.745 6.486 3.51 5.945 8.792 12.198 15.54 15.941 6.74 3.743 10.364 2.895 10.755 8.8.346 5.903-3.587 23.044-13.572 35.588l-87.78-51.526c4.435-7.877 5.668-14.592 5.745-19.533 0 .001 1.272-4.826 8.364-4.207z"/><path fill="#FFF" d="M1084.11 649.108c.423 1.272 1.156 4.09 1.12 8.183-.078 4.942-1.311 11.657-5.746 19.534l-40.403-23.74s10.412-17.602 44.76-4.707c0 0 .113.266.27.73z"/><g fill="#5F5A76"><path d="M1159.126 741.847c-.242 0-.49-.063-.714-.195l-128.18-75.264a1.411 1.411 0 0 1-.663-.907 1.426 1.426 0 0 1 .206-1.106l8.132-12.084a1.411 1.411 0 0 1 1.89-.428l128.18 75.268c.338.195.578.524.663.907a1.4 1.4 0 0 1-.206 1.106l-8.136 12.08c-.27.401-.718.623-1.172.623zm-126.163-77.137l125.732 73.825 6.553-9.728-125.736-73.829-6.549 9.732z"/><path d="M1079.482 678.24c-.234 0-.473-.059-.693-.18a1.42 1.42 0 0 1-.537-1.933c3.597-6.387 5.467-12.73 5.563-18.858.036-3.861-.64-6.49-1.046-7.715a1.655 1.655 0 0 1-.024-.074c-32.214-11.848-42.042 3.659-42.45 4.33a1.417 1.417 0 0 1-1.94.486 1.42 1.42 0 0 1-.49-1.936c.452-.755 11.406-18.467 46.473-5.31.358.136.649.416.802.766 0 0 .132.307.313.838.463 1.397 1.23 4.37 1.192 8.648-.104 6.615-2.098 13.415-5.929 20.218-.26.462-.741.72-1.234.72z"/><path d="M1167.263 729.767a1.415 1.415 0 0 1-1.106-2.298c9.483-11.919 13.616-28.624 13.266-34.623-.222-3.303-1.378-3.78-4.81-5.199-1.422-.59-3.194-1.32-5.22-2.445-8.22-4.557-13.598-12.268-16.072-16.46-1.809-3.083-3.333-4.82-5.264-5.997-1.91-1.202-4.342-1.957-7.905-2.471-7.935-1.206-39.542-5.159-46.683-5.779-5.865-.564-6.867 3.12-6.875 3.157a1.408 1.408 0 0 1-1.729 1.007 1.416 1.416 0 0 1-1.007-1.73c.547-2.068 3.333-5.775 9.856-5.258 7.171.624 38.9 4.594 46.85 5.8 3.963.568 6.736 1.453 8.982 2.865 2.344 1.43 4.15 3.452 6.212 6.966 2.328 3.941 7.37 11.188 15.005 15.422 1.886 1.047 3.502 1.714 4.928 2.304 3.609 1.49 6.216 2.566 6.552 7.64.354 6.026-3.461 23.475-13.877 36.562a1.402 1.402 0 0 1-1.103.537z"/><path d="M1148.797 662.951c-.458 0-.907-.221-1.18-.63a1.422 1.422 0 0 1 .396-1.965c2.855-1.9 4.442-4.473 4.467-7.25.02-2.12-.907-4.14-2.366-5.15-1.34-.923-2.755-.509-6.095.586-2.698.884-6.392 2.097-11.566 2.673-12.834 1.368-40.17-3.13-40.443-3.178-5.092-.844-6.599 1.652-6.66 1.755-.385.667-1.235.926-1.916.545a1.407 1.407 0 0 1-.573-1.888c.096-.18 2.406-4.403 9.612-3.208 9.366 1.564 29.708 4.22 39.674 3.158 4.877-.538 8.267-1.653 10.99-2.549 3.5-1.146 6.03-1.98 8.581-.229 2.248 1.56 3.622 4.436 3.593 7.515-.023 2.169-.796 6.295-5.733 9.58a1.42 1.42 0 0 1-.78.235z"/></g><path fill="#FFF" d="M1101.32 660.433a2.98 2.98 0 0 1-2.703 3.227 2.968 2.968 0 0 1-3.22-2.707l-1.33-15.214a2.974 2.974 0 0 1 2.698-3.227 2.979 2.979 0 0 1 3.223 2.703l1.332 15.218z"/><path fill="#5F5A76" d="M1098.347 665.086a4.35 4.35 0 0 1-2.814-1.029 4.358 4.358 0 0 1-1.546-2.984l-1.33-15.21a4.368 4.368 0 0 1 1.006-3.208 4.361 4.361 0 0 1 2.977-1.556c2.376-.118 4.543 1.581 4.754 3.99l1.334 15.218v.003a4.401 4.401 0 0 1-3.989 4.76 4.04 4.04 0 0 1-.392.016zm-1.327-21.17a1.54 1.54 0 0 0-1.188.557 1.56 1.56 0 0 0-.357 1.14l1.33 15.214c.036.42.23.796.548 1.061.318.27.696.417 1.14.358a1.563 1.563 0 0 0 1.418-1.693l-1.334-15.214a1.566 1.566 0 0 0-1.557-1.424z"/><path fill="#FFF" d="M1113.733 662.7a2.978 2.978 0 0 1-2.699 3.231 2.98 2.98 0 0 1-3.222-2.71l-1.567-16.52a2.98 2.98 0 0 1 2.698-3.231 2.986 2.986 0 0 1 3.221 2.71l1.569 16.52z"/><path fill="#5F5A76" d="M1110.79 667.358c-2.264 0-4.19-1.733-4.385-4.016l-1.567-16.509a4.407 4.407 0 0 1 3.976-4.771c2.42-.195 4.552 1.597 4.76 3.997l1.569 16.509v.007a4.372 4.372 0 0 1-1.007 3.212 4.36 4.36 0 0 1-3.347 1.571zm-1.603-22.483a1.563 1.563 0 0 0-1.532 1.7l1.567 16.513c.073.867.838 1.483 1.696 1.431a1.534 1.534 0 0 0 1.048-.55 1.55 1.55 0 0 0 .359-1.14l-1.569-16.516a1.575 1.575 0 0 0-1.57-1.438z"/><path fill="#FFF" d="M1126.154 664.968a2.976 2.976 0 0 1-2.703 3.227 2.976 2.976 0 0 1-3.221-2.707l-1.802-17.822a2.977 2.977 0 0 1 2.699-3.227 2.977 2.977 0 0 1 3.221 2.707l1.806 17.822z"/><path fill="#5F5A76" d="M1123.182 669.622a4.354 4.354 0 0 1-2.812-1.029 4.366 4.366 0 0 1-1.548-2.983l-1.801-17.8c-.214-2.427 1.572-4.565 3.98-4.78 2.448-.18 4.548 1.586 4.756 3.994l1.805 17.8.001.023c.206 2.42-1.583 4.554-3.992 4.76-.129.011-.26.015-.39.015zm-1.798-23.777c-.046 0-.09.004-.137.008a1.56 1.56 0 0 0-1.41 1.689l1.8 17.803c.04.436.234.811.553 1.08.318.27.725.425 1.139.359a1.56 1.56 0 0 0 1.417-1.685l-1.804-17.808a1.572 1.572 0 0 0-1.558-1.446z"/><path fill="#FFF" d="M1138.57 667.24a2.976 2.976 0 0 1-2.702 3.222 2.967 2.967 0 0 1-3.22-2.706l-2.041-19.123a2.975 2.975 0 0 1 2.702-3.227 2.975 2.975 0 0 1 3.218 2.703l2.043 19.13z"/><path fill="#5F5A76" d="M1135.593 671.89a4.327 4.327 0 0 1-2.803-1.025 4.357 4.357 0 0 1-1.55-2.988l-2.041-19.094a4.392 4.392 0 0 1 1.006-3.234 4.367 4.367 0 0 1 2.98-1.556c2.4-.145 4.543 1.581 4.75 3.993l2.041 19.102.002.025a4.37 4.37 0 0 1-1.008 3.204 4.367 4.367 0 0 1-3.377 1.573zm-2.028-25.08c-.044 0-.09.004-.134.008a1.54 1.54 0 0 0-1.055.55 1.55 1.55 0 0 0-.359 1.14l2.041 19.097a1.551 1.551 0 0 0 2.745.897c.265-.317.392-.715.359-1.125l-2.041-19.116a1.567 1.567 0 0 0-1.556-1.45z"/><path fill="#579FCA" d="M1303.254 437.507l-113.246 167.796 44.163 39.203 99.986-125.51s61.16 26.683 75.643 26.683h73.04c6.91 0 34.908-4.668 45.316-33.601 5.253-14.621 13.406-51.301-32.801-74.571h-192.1z"/><path fill="#4390BE" d="M1495.356 437.507h-192.102l-40.855 60.535 52.199 45.505 19.56-24.552s61.161 26.684 75.643 26.684h73.041c6.91 0 34.907-4.668 45.316-33.601 5.252-14.621 13.406-51.303-32.802-74.571z"/><path fill="#5F5A76" d="M1234.172 645.922c-.346 0-.677-.125-.939-.358l-44.163-39.203a1.416 1.416 0 0 1-.232-1.851l113.246-167.796c.261-.391.7-.624 1.171-.624h192.102c.222 0 .439.052.637.152 44.878 22.597 40.248 57.515 33.494 76.314-10.19 28.332-37.128 34.538-46.645 34.538h-73.041c-13.756 0-66.961-22.797-75.211-26.37l-99.313 124.662a1.403 1.403 0 0 1-.983.531c-.042.005-.082.005-.123.005zm-42.296-40.855l42.12 37.388 99.058-124.342a1.403 1.403 0 0 1 1.668-.416c.612.266 61.053 26.566 75.079 26.566h73.041c.324 0 32.554-.888 43.986-32.665 6.42-17.877 10.803-51.054-31.807-72.675h-191.015l-112.13 166.144z"/><path fill="#5F5A76" d="M1334.159 520.411a1.414 1.414 0 0 1-1.34-1.861c.083-.266 8.676-26.698.345-47.448-.29-.723.06-1.549.785-1.84a1.415 1.415 0 0 1 1.837.786c8.73 21.727.085 48.278-.287 49.395a1.413 1.413 0 0 1-1.34.968zm-89.565 112.428c-.342 0-.685-.122-.957-.372l-44.58-40.947a1.42 1.42 0 0 1-.085-2.002 1.42 1.42 0 0 1 2-.085l44.58 40.947a1.42 1.42 0 0 1 .084 2.002c-.28.302-.659.457-1.042.457z"/><path fill="#FFF" d="M1555.832 256.993c-5.97 5.226-26.205 14.61-30.647 17.574-4.442 2.965-26.322 30.968-29.284 43.318-2.961 12.354-.162 36.732-2.468 52.872-2.298 16.141-24.508 79.557-24.508 79.557l109.555 61.762s6.424-21.413 7.734-38.87c1.318-17.456 5.591-32.285 19.086-50.402 13.487-18.118 54.862-88.366 58.066-107.14 3.21-18.777.84-26.93-11.02-37.639-7.46-6.736-30.764-18.279-30.764-18.279l-65.75-2.753z"/><path fill="#5F5A76" d="M1578.482 513.494c-.238 0-.478-.064-.692-.181l-109.555-61.763c-.6-.34-.87-1.054-.64-1.703.22-.634 22.187-63.469 24.44-79.287 1.068-7.49 1.024-16.864.98-25.93-.049-10.474-.097-20.365 1.513-27.073 3.135-13.083 25.39-41.173 29.874-44.165 1.646-1.099 5.13-2.917 9.542-5.219 7.278-3.794 17.245-8.994 20.956-12.244.27-.24.622-.389.991-.348l65.753 2.754c.199.008.39.057.568.146.962.473 23.564 11.705 31.085 18.497 12.18 10.995 14.75 19.728 11.465 38.93-3.27 19.17-44.605 89.316-58.325 107.743-13.906 18.674-17.579 33.359-18.809 49.665-1.308 17.409-7.726 38.957-7.79 39.17-.125.413-.427.75-.825.908-.173.067-.35.1-.53.1zm-107.828-63.832l106.963 60.303c1.521-5.396 6.118-22.583 7.19-36.865 1.502-19.876 7.112-34.693 19.36-51.143 13.234-17.774 54.664-88.111 57.806-106.528 3.119-18.227.847-26.04-10.57-36.351-6.81-6.147-27.579-16.628-30.18-17.929l-64.898-2.718c-4.214 3.457-13.535 8.32-21.078 12.254-4.161 2.173-7.755 4.047-9.277 5.061-3.804 2.541-25.789 30.354-28.694 42.47-1.528 6.377-1.481 16.102-1.433 26.4.044 9.167.092 18.648-1.009 26.344-2.15 15.1-21.104 69.87-24.18 78.702z"/><path fill="#FFDBB3" d="M1260.498 600.366l-37.67 61.17 8.552 21.844 24.345 10.705s1.281-9.16 6.32-17.262c5.03-8.102 32.83-50.435 32.83-50.435l-34.377-26.022z"/><path fill="#5F5A76" d="M1255.725 695.501c-.193 0-.387-.04-.568-.118l-24.344-10.704a1.437 1.437 0 0 1-.752-.782l-8.552-21.845a1.43 1.43 0 0 1 .114-1.262l37.67-61.17c.209-.338.551-.571.942-.645a1.38 1.38 0 0 1 1.116.262l34.377 26.023c.593.45.737 1.283.328 1.907-.28.424-27.848 42.41-32.812 50.405-4.825 7.76-6.107 16.62-6.122 16.71a1.408 1.408 0 0 1-1.397 1.219zm-23.24-13.182l22.164 9.75c.645-3.146 2.357-9.821 6.195-15.994 4.527-7.287 27.7-42.616 32.123-49.354l-32.082-24.286-36.484 59.24 8.084 20.644z"/><path fill="#FFF" d="M1244.742 728.35l-8.132 12.081-128.18-75.263 8.133-12.085 40.398 23.742z"/><path fill="#6A6683" d="M1209.782 649.804c11.175-1.238 15.034-5.479 18.618-3.016 3.621 2.51 5.013 10-2.124 14.746-2.078-1.31-4.663-2.12-8.442-2.662-7.86-1.195-39.666-5.174-46.76-5.79-7.093-.62-8.36 4.208-8.36 4.208.037-4.093-.7-6.91-1.12-8.183 0 0 1.85-3.514 8.133-2.471 6.246 1.041 28.911 4.364 40.055 3.168z"/><path fill="#7F7B97" d="M1171.074 653.083c7.094.616 38.9 4.594 46.76 5.789 3.779.543 6.364 1.354 8.442 2.662 2.276 1.39 3.933 3.4 5.745 6.486 3.513 5.945 8.795 12.198 15.535 15.941 6.747 3.743 10.371 2.895 10.758 8.8.35 5.903-3.584 23.044-13.572 35.588l-87.78-51.526c4.442-7.877 5.671-14.592 5.752-19.533 0 .001 1.267-4.826 8.36-4.207z"/><path fill="#FFF" d="M1161.594 649.108c.42 1.272 1.157 4.09 1.12 8.183-.08 4.942-1.31 11.657-5.753 19.534l-40.398-23.74s10.41-17.602 44.759-4.707c0 0 .118.266.272.73z"/><g fill="#5F5A76"><path d="M1236.61 741.847c-.243 0-.49-.063-.714-.195l-128.181-75.264a1.411 1.411 0 0 1-.664-.907 1.426 1.426 0 0 1 .206-1.106l8.134-12.084a1.412 1.412 0 0 1 1.89-.428l128.175 75.268c.34.195.58.524.664.907a1.4 1.4 0 0 1-.206 1.106l-8.133 12.08a1.415 1.415 0 0 1-1.171.623zm-126.166-77.137l125.735 73.825 6.549-9.728-125.732-73.829-6.552 9.732z"/><path d="M1156.961 678.24a1.415 1.415 0 0 1-1.23-2.113c3.594-6.376 5.47-12.721 5.568-18.858.033-3.843-.641-6.487-1.05-7.719a.76.76 0 0 1-.022-.07c-32.214-11.855-42.042 3.662-42.45 4.33a1.416 1.416 0 0 1-2.432-1.45c.451-.755 11.408-18.464 46.473-5.31.354.133.64.408.795.753 0 0 .14.31.321.859.464 1.4 1.23 4.38 1.193 8.64-.11 6.626-2.107 13.426-5.937 20.218-.257.462-.736.72-1.229.72z"/><path d="M1244.742 729.767a1.416 1.416 0 0 1-1.105-2.298c9.492-11.926 13.62-28.624 13.267-34.623-.218-3.303-1.374-3.783-4.81-5.199-1.426-.59-3.198-1.32-5.222-2.445-8.21-4.557-13.59-12.268-16.065-16.457-1.813-3.082-3.337-4.82-5.267-6-1.904-1.198-4.334-1.957-7.903-2.471-7.93-1.206-39.534-5.159-46.683-5.779-5.69-.491-6.832 3.02-6.876 3.17-.218.746-.999 1.2-1.74.978a1.404 1.404 0 0 1-.99-1.715c.545-2.069 3.344-5.789 9.849-5.259 7.182.624 38.906 4.595 46.852 5.8 3.97.573 6.743 1.453 8.983 2.866 2.342 1.43 4.146 3.451 6.209 6.965 2.328 3.942 7.376 11.188 15 15.422 1.886 1.048 3.503 1.715 4.932 2.305 3.61 1.489 6.22 2.566 6.553 7.64.357 6.021-3.455 23.47-13.878 36.562-.28.353-.69.538-1.106.538z"/><path d="M1226.276 662.951a1.416 1.416 0 0 1-.781-2.595c2.855-1.9 4.442-4.473 4.467-7.247.022-2.12-.91-4.145-2.368-5.155-1.337-.922-2.751-.508-6.095.586-2.696.885-6.39 2.098-11.561 2.674-12.862 1.36-40.167-3.134-40.444-3.179-5.108-.855-6.6 1.653-6.662 1.755a1.418 1.418 0 0 1-1.915.546 1.41 1.41 0 0 1-.575-1.888c.096-.181 2.428-4.396 9.616-3.208 9.362 1.557 29.696 4.207 39.674 3.157 4.873-.538 8.265-1.652 10.986-2.548 3.506-1.15 6.037-1.98 8.581-.23 2.247 1.561 3.62 4.44 3.591 7.52-.022 2.165-.795 6.29-5.736 9.576a1.39 1.39 0 0 1-.778.236z"/></g><path fill="#FFF" d="M1178.8 660.433a2.98 2.98 0 0 1-2.702 3.227 2.968 2.968 0 0 1-3.22-2.707l-1.333-15.214a2.976 2.976 0 0 1 2.704-3.227 2.977 2.977 0 0 1 3.219 2.703l1.333 15.218z"/><path fill="#5F5A76" d="M1175.828 665.086a4.36 4.36 0 0 1-2.814-1.029 4.37 4.37 0 0 1-1.547-2.984l-1.333-15.21a4.368 4.368 0 0 1 1.006-3.205 4.382 4.382 0 0 1 2.984-1.56c2.445-.114 4.537 1.585 4.75 3.985l1.337 15.222v.004a4.407 4.407 0 0 1-4.383 4.777zm-1.325-21.17a1.536 1.536 0 0 0-1.193.56 1.557 1.557 0 0 0-.358 1.136l1.337 15.215c.033.42.229.796.545 1.061.317.27.729.436 1.139.358a1.564 1.564 0 0 0 1.417-1.689l-1.333-15.218a1.564 1.564 0 0 0-1.554-1.424z"/><path fill="#FFF" d="M1191.214 662.7a2.974 2.974 0 0 1-2.696 3.231 2.98 2.98 0 0 1-3.219-2.71l-1.568-16.52a2.977 2.977 0 0 1 2.695-3.231 2.982 2.982 0 0 1 3.22 2.71l1.568 16.52z"/><path fill="#5F5A76" d="M1188.27 667.358c-2.26 0-4.188-1.733-4.382-4.016l-1.566-16.509a4.4 4.4 0 0 1 3.974-4.771 4.37 4.37 0 0 1 4.758 3.997l1.566 16.509v.007a4.363 4.363 0 0 1-1.002 3.212 4.369 4.369 0 0 1-2.976 1.556 5.87 5.87 0 0 1-.372.015zm-1.602-22.483a1.564 1.564 0 0 0-1.532 1.7l1.569 16.513c.073.867.869 1.5 1.694 1.431a1.528 1.528 0 0 0 1.05-.55 1.56 1.56 0 0 0 .358-1.14l-1.57-16.516a1.577 1.577 0 0 0-1.57-1.438z"/><path fill="#FFF" d="M1203.635 664.968a2.973 2.973 0 0 1-2.7 3.227 2.979 2.979 0 0 1-3.225-2.707l-1.798-17.822a2.972 2.972 0 0 1 2.696-3.227 2.974 2.974 0 0 1 3.219 2.707l1.808 17.822z"/><path fill="#5F5A76" d="M1200.667 669.622a4.358 4.358 0 0 1-2.821-1.032 4.369 4.369 0 0 1-1.547-2.98l-1.793-17.8a4.37 4.37 0 0 1 1.002-3.226 4.366 4.366 0 0 1 2.976-1.553c2.409-.181 4.549 1.585 4.755 3.993l1.804 17.8c0 .008 0 .015.004.019a4.39 4.39 0 0 1-4.38 4.78zm-1.801-23.777a1.542 1.542 0 0 0-1.19.56 1.547 1.547 0 0 0-.357 1.137l1.797 17.803c.037.436.233.808.552 1.077.318.27.73.432 1.142.362a1.534 1.534 0 0 0 1.056-.545 1.58 1.58 0 0 0 .362-1.137l-1.809-17.81a1.56 1.56 0 0 0-1.553-1.447z"/><path fill="#FFF" d="M1216.05 667.24a2.973 2.973 0 0 1-2.702 3.222 2.966 2.966 0 0 1-3.22-2.706l-2.04-19.123a2.976 2.976 0 0 1 2.703-3.227 2.978 2.978 0 0 1 3.219 2.703l2.04 19.13z"/><path fill="#5F5A76" d="M1213.072 671.89a4.327 4.327 0 0 1-2.803-1.025 4.374 4.374 0 0 1-1.55-2.988l-2.038-19.094a4.397 4.397 0 0 1 3.986-4.79c2.457-.11 4.537 1.585 4.75 3.985l2.042 19.11v.022a4.35 4.35 0 0 1-1.003 3.206 4.382 4.382 0 0 1-2.983 1.56c-.136.01-.268.014-.401.014zm-2.026-25.08c-.044 0-.088.004-.133.008a1.538 1.538 0 0 0-1.056.55 1.55 1.55 0 0 0-.358 1.14l2.038 19.097c.036.447.232.823.552 1.092a1.559 1.559 0 0 0 2.199-.199 1.54 1.54 0 0 0 .357-1.12l-2.04-19.117a1.575 1.575 0 0 0-1.559-1.45z"/><path fill="#579FCA" d="M1342.46 437.507l-88.215 167.796 50.015 39.203 81.262-125.51s65.142 26.683 79.62 26.683h73.041c6.91 0 34.216-4.668 40.3-33.601 3.078-14.621 5.76-51.301-43.92-74.571H1342.46z"/><path fill="#5F5A76" d="M1304.26 645.922a1.41 1.41 0 0 1-.873-.302l-50.016-39.203a1.419 1.419 0 0 1-.379-1.774l88.216-167.797a1.416 1.416 0 0 1 1.252-.755h192.102c.206 0 .412.044.6.133 48.105 22.53 48.657 57.378 44.706 76.145-5.993 28.486-32.123 34.726-41.685 34.726h-73.041c-13.724 0-70.206-22.74-79.071-26.348l-80.626 124.53a1.412 1.412 0 0 1-1.185.645zm-48.214-41.006l47.868 37.521 80.422-124.212a1.405 1.405 0 0 1 1.72-.538c.652.266 65.049 26.576 79.086 26.576h73.041c.321 0 32.27-.884 38.914-32.476 3.772-17.911 3.202-51.158-42.852-72.863h-190.93l-87.27 165.992z"/><path fill="#5F5A76" d="M1385.522 520.411a1.42 1.42 0 0 1-1.393-1.672c.049-.265 4.7-26.697-6.754-47.484a1.413 1.413 0 1 1 2.474-1.364c11.952 21.687 7.267 48.241 7.065 49.359a1.419 1.419 0 0 1-1.392 1.161zm-72.791 112.428c-.313 0-.625-.104-.887-.314l-50.685-40.947a1.418 1.418 0 0 1-.214-1.992 1.418 1.418 0 0 1 1.99-.213l50.685 40.946a1.418 1.418 0 0 1-.889 2.52z"/><path fill="#FFDBB3" d="M1612.208 206.38s-2.132 20.423-1.315 32.12c.822 11.696 10.692 21.247 10.692 21.247s-15.788 25.861-51.986 19.11c-15.708-2.932-17.27-17.133-14.968-20.426 2.305-3.292 16.287-13.939 16.287-52.05h41.29z"/><path fill="#F3D0A9" d="M1610.709 231.596c.06-11.41 1.499-25.216 1.499-25.216h-41.29c0 38.111-13.982 48.758-16.287 52.05-1.097 1.57-1.289 5.62.48 9.747 26.45-4.093 46.898-25.784 55.598-36.581z"/><path fill="#5F5A76" d="M1581.215 281.386c-3.698 0-7.65-.348-11.875-1.138-10.224-1.908-14.212-8.227-15.682-11.822-1.654-4.05-1.731-8.595-.188-10.806.298-.424.77-.963 1.373-1.645 4.008-4.525 14.66-16.544 14.66-49.594 0-.782.632-1.416 1.413-1.416h41.29a1.42 1.42 0 0 1 1.408 1.564c-.021.203-2.11 20.436-1.31 31.872.773 11.027 10.168 20.238 10.264 20.329.475.46.568 1.19.225 1.758-.148.235-13.138 20.898-41.578 20.898zm-8.89-73.59c-.303 33.057-11.22 45.38-15.366 50.057-.512.58-.917 1.031-1.171 1.39-.745 1.069-.991 4.483.49 8.112 1.248 3.062 4.677 8.448 13.58 10.11 31.371 5.852 46.748-13.051 49.918-17.552-2.47-2.655-9.579-11.12-10.293-21.315-.696-9.936.681-25.768 1.164-30.802h-38.323z"/><path fill="#FFDBB3" d="M1555.537 124.19c-19.328 12.686-23.442 30.88-23.442 50.152 0 19.27.122 19.89-.865 29.773-.987 9.882 8.338 35.04 20.44 37.038 13.818 2.287 44.705-4.429 58.28-25.798 15.296-4.941 27.682-17.265 28.912-49.162 1.48-38.539-45.942-66.535-83.325-42.002z"/><path fill="#5F5A76" d="M1557.228 242.976c-2.15 0-4.1-.145-5.79-.423-12.941-2.139-22.69-27.82-21.615-38.576.873-8.74.873-10.183.862-23.982l-.004-5.651c0-16.543 2.736-37.328 24.08-51.335 18.128-11.896 40.134-12.665 58.858-2.069 17.145 9.704 27.357 27.065 26.659 45.31-1.08 27.95-10.427 43.949-29.41 50.296-12.332 18.91-38.157 26.428-53.64 26.43zm-.913-117.6c-20.095 13.188-22.805 32.153-22.805 48.967l.003 5.65c.012 13.927.012 15.384-.877 24.264-.971 9.733 8.324 33.693 19.263 35.5 13.285 2.21 43.63-4.335 56.859-25.16a1.42 1.42 0 0 1 .758-.588c18.021-5.823 26.897-21.033 27.932-47.87.66-17.18-9.005-33.554-25.221-42.734-17.793-10.07-38.695-9.33-55.912 1.97z"/><path fill="#FFDBB3" d="M1614.635 192.626s6.048-10.87 15.668-10.252c9.627.616 6.047 15.812 0 23.47-6.045 7.66-16.162 10.006-20.352 9.511 0 .001-.126-11.239 4.684-22.73z"/><path fill="#5F5A76" d="M1611.21 216.84c-.513 0-.988-.025-1.426-.076a1.414 1.414 0 0 1-1.237-1.573c.092-.779.806-1.315 1.568-1.242 3.808.433 13.347-1.718 19.078-8.981 4.011-5.082 7.009-14.118 5.012-18.604-.714-1.609-2.022-2.451-3.992-2.578-8.75-.528-14.29 9.426-14.345 9.53a1.408 1.408 0 0 1-1.923.547 1.415 1.415 0 0 1-.544-1.927c.261-.473 6.595-11.682 16.994-10.974 3.03.193 5.244 1.662 6.397 4.251 2.501 5.624-.762 15.663-5.381 21.51-5.66 7.178-14.805 10.118-20.202 10.118zm-34.613-30.63c0 2.96-1.878 5.357-4.198 5.357-2.313 0-4.191-2.397-4.191-5.358 0-2.958 1.878-5.359 4.19-5.359 2.321.002 4.199 2.402 4.199 5.36zm-34.882 0c0 2.598-1.528 4.701-3.414 4.701-1.886 0-3.411-2.102-3.411-4.702 0-2.593 1.525-4.702 3.41-4.702 1.886 0 3.415 2.11 3.415 4.702zm6.405 23.149a1.4 1.4 0 0 1-.681-.181c-.154-.089-3.812-2.235-2.007-7.958a1.397 1.397 0 0 1 1.776-.924 1.415 1.415 0 0 1 .921 1.776c-1.072 3.4.54 4.537.73 4.655a1.43 1.43 0 0 1 .474 1.934 1.418 1.418 0 0 1-1.213.698zm4.78 13.832c-3.517 0-5.905-.745-6.092-.806a1.414 1.414 0 0 1-.91-1.779 1.409 1.409 0 0 1 1.776-.918c.081.029 7.967 2.448 16.04-2.222.66-.389 1.532-.162 1.934.517.39.677.158 1.544-.52 1.935a24.291 24.291 0 0 1-12.228 3.273zm27.557-49.037c-.1 0-.206-.011-.31-.035-9.697-2.173-13.922-.138-13.97-.122a1.424 1.424 0 0 1-1.897-.616 1.411 1.411 0 0 1 .593-1.895c.198-.104 5.027-2.567 15.892-.13a1.416 1.416 0 0 1-.308 2.798zm-38.745-1.044a1.41 1.41 0 0 1-.697-.186c-.025-.012-2.453-1.366-5.576-1.366h-.01a1.414 1.414 0 0 1-1.415-1.415c0-.787.708-1.516 1.425-1.418 3.904 0 6.855 1.669 6.98 1.74.678.388.91 1.248.523 1.928-.262.46-.738.716-1.23.716z"/><path fill="#FFDBB3" d="M1531.163 234.545h16.08c3.36 0 6.486.904 8.954 3.294 2.468 2.39 8.475 6.833 9.87 7.987 1.397 1.154 3.783 2.305 3.452 3.46-.325 1.153-4.133 3.908-9.141 1.913-5.001-1.996-7.388-3.891-9.035-4.466-1.647-.575-6.169-.575-6.169-.575v22.07c0 1.645-10.607 13.507-12.5 14.576-1.893 1.07-7.653.413-8.968 0-1.314-.412-10.36-2.828-10.36-2.828s-17.604 59.817-21.221 72.498c-3.624 12.682-21.554 22.123-32.573 20.946-11.024-1.18-12.508-19.961-11.19-28.524 1.319-8.562 50.178-84.888 52.808-87.905 2.628-3.011 27.576-22.446 29.993-22.446z"/><path fill="#5F5A76" d="M1461.498 374.936c-.718 0-1.418-.036-2.099-.108-3.078-.33-5.693-1.866-7.767-4.567-5.222-6.8-5.635-19.299-4.67-25.58 1.352-8.755 49.746-84.726 53.142-88.62 1.993-2.282 27.67-22.93 31.059-22.93h16.08c4.062 0 7.407 1.242 9.937 3.69 1.709 1.655 5.27 4.404 7.625 6.221.975.753 1.76 1.357 2.166 1.693.342.286.754.57 1.167.854 1.455 1.011 3.264 2.267 2.74 4.087-.269.956-1.3 1.96-2.759 2.682-1.443.715-4.438 1.681-8.265.158-3.116-1.243-5.24-2.447-6.795-3.324-.921-.522-1.65-.935-2.184-1.121-.777-.274-2.685-.417-4.287-.471v20.629c0 2.682-11.55 14.868-13.217 15.81-2.501 1.411-8.876.502-10.088.118-.99-.311-6.416-1.771-8.968-2.456-2.614 8.887-17.556 59.681-20.83 71.163-3.545 12.396-20.134 22.072-31.987 22.072zm69.765-138.975c-3.025.889-26.276 18.806-29.03 21.963-3.203 3.678-51.23 79.108-52.472 87.189-.965 6.248-.323 17.649 4.114 23.424 1.584 2.061 3.544 3.231 5.826 3.476 10.707 1.161 27.74-8.31 31.063-19.926 3.576-12.54 21.048-71.912 21.225-72.51a1.407 1.407 0 0 1 1.72-.967s9.096 2.43 10.42 2.844c1.333.417 6.54.865 7.848.118 1.539-.874 11.214-11.693 11.807-13.552l-.025-21.861c0-.782.633-1.416 1.414-1.416.487 0 4.814.019 6.637.654.77.27 1.595.738 2.642 1.33 1.483.838 3.513 1.985 6.449 3.158 3.669 1.452 6.357-.086 7.105-.837-.331-.334-1.028-.818-1.481-1.13a20.509 20.509 0 0 1-1.359-1 102.28 102.28 0 0 0-2.084-1.632c-2.409-1.86-6.043-4.666-7.867-6.43-2.01-1.947-4.618-2.895-7.97-2.895h-15.982z"/><path fill="#DBE2E4" d="M1518.522 427.625h-86.86l7.653 9.882h86.857z"/><path fill="#5F5A76" d="M1526.172 438.923h-86.857c-.438 0-.85-.203-1.116-.55l-7.653-9.882a1.417 1.417 0 0 1-.154-1.489 1.41 1.41 0 0 1 1.27-.793h86.86c.439 0 .851.202 1.12.549l7.65 9.882c.327.428.387 1.004.151 1.49-.24.487-.729.793-1.27.793zm-86.164-2.832h83.28l-5.458-7.05h-83.28l5.458 7.05z"/><path fill="#ECF0F1" d="M1439.315 437.507h-152.992l-40.712-127.977h152.985z"/><path fill="#5F5A76" d="M1439.316 438.923h-152.993c-.615 0-1.16-.399-1.348-.985l-40.713-127.98c-.136-.43-.06-.899.206-1.265.265-.365.689-.58 1.141-.58h152.986c.615 0 1.16.398 1.348.987l40.72 127.976a1.43 1.43 0 0 1-.207 1.269 1.405 1.405 0 0 1-1.14.578zm-151.958-2.832h150.025l-39.82-125.145h-150.018l39.813 125.145z"/><path fill="#5F5A76" d="M1338.26 388.215l-5.811-3.2c-13.834-7.607-15.344-13.164-15.919-15.256-1.37-5.033 1.591-9.12 6.622-9.12 3.167 0 6.401 1.623 8.699 4.083.965-2.46 3.311-4.082 6.474-4.082 5.031 0 10.224 4.086 11.594 9.12.575 2.09 2.084 7.647-7.586 15.255l-4.072 3.2z"/><path fill="#FFDBB3" d="M1609.95 363.183l-6.047 41.917-95 17.542s-18.017-21.99-19.497-23.346c-1.48-1.36-16.779-3.953-18.754-3.953-1.974 0-18.135 8.027-20.729 9.88-2.59 1.855-6.909 15.938-7.646 17.42-.744 1.483-1.237 4.941 1.85 4.941h19.122c1.852 0 19.497 13.463 22.952 16.181 3.455 2.718 7.771 6.302 24.92 2.718 14.558.62 92.37.214 104.215-.117 11.844-.332 20.894-2.633 24.02-13.837 3.123-11.203 18.26-69.345 18.26-69.345h-47.665z"/><path fill="#F3D0A9" d="M1607.132 382.699c6.08 2.854 18.979 7.755 42.285 11.87 4.265-16.288 8.198-31.386 8.198-31.386h-47.666l-2.817 19.516z"/><path fill="#5F5A76" d="M1498.775 449.4c-7.706 0-10.844-2.471-13.337-4.433-5.66-4.454-20.334-15.432-22.366-15.985l-18.946.02c-1.433 0-2.578-.583-3.23-1.642-1.12-1.818-.412-4.296.118-5.351.169-.347.548-1.444 1.068-2.915 2.983-8.47 5.09-13.64 7.02-15.024 2.176-1.556 18.964-10.143 21.55-10.143 1.267 0 17.623 2.407 19.71 4.325 1.411 1.295 15.749 18.751 19.104 22.845l93.181-17.205 5.905-40.913c.1-.697.696-1.213 1.399-1.213h47.666a1.416 1.416 0 0 1 1.37 1.774c-.155.58-15.178 58.282-18.268 69.367-3.502 12.545-14.25 14.563-25.343 14.872-11.278.314-89.615.738-104.314.118-5.076 1.075-9.08 1.503-12.287 1.503zm-28.124-52.64c-1.913.204-17.326 7.772-19.908 9.614-1.58 1.133-4.788 10.233-5.995 13.661-.575 1.634-1.012 2.847-1.204 3.238-.383.763-.572 2.065-.24 2.6.049.081.182.295.822.295h19.123c2.795 0 23.615 16.318 23.826 16.484 3.38 2.658 7.447 5.852 23.759 2.445 15.012.6 93.213.165 104.461-.148 11.9-.332 19.848-2.593 22.699-12.8 2.776-9.959 15.23-57.707 17.793-67.549h-44.61l-5.873 40.704a1.409 1.409 0 0 1-1.142 1.19l-95 17.543a1.425 1.425 0 0 1-1.351-.494c-7.215-8.81-18.328-22.257-19.359-23.203-1.54-1.053-15.845-3.58-17.801-3.58z"/><path fill="#FFF" d="M1609.95 325.05l-4.153 47.194s37.669 2.637 62.176 0c0 0 5.054-47.197-4.625-78.94-7.213.538-50.644-9.013-53.397 31.747z"/><path fill="#5F5A76" d="M1641.027 374.824c-18.345 0-35.081-1.149-35.332-1.166a1.41 1.41 0 0 1-.975-.493 1.422 1.422 0 0 1-.335-1.044l4.154-47.193c.07-.778.71-1.339 1.535-1.287a1.418 1.418 0 0 1 1.286 1.534l-4.03 45.75c6.995.435 37.955 2.148 59.345.031.678-7.377 3.975-48.855-4.68-77.238a1.416 1.416 0 0 1 .938-1.768 1.417 1.417 0 0 1 1.765.943c9.652 31.653 4.732 79.029 4.68 79.504a1.415 1.415 0 0 1-1.256 1.258c-8.164.876-17.835 1.17-27.095 1.17z"/><path fill="#F5F7FA" d="M1677.798 304.106l-9.42 7.83s41.066 16.053 26.232 59.5c-16.215 47.484-88.015 64.187-157.236 88.873-69.221 24.686-120.853 70.428-139.458 134.282-17.328 59.46 9.638 118.922 60.148 126.821 80.936-1.412 228.14-37.628 228.14-37.628l56.206-278.208c2.635-75.138-64.612-101.47-64.612-101.47z"/><path fill="#5F5A76" d="M1469.635 723.707c-23.49 0-44.38-10.575-58.812-29.781-19.553-26.016-24.889-63.3-14.27-99.73 17.86-61.295 67.701-109.318 140.343-135.222 10.51-3.748 21.177-7.343 31.492-10.821 57.262-19.31 111.35-37.55 124.881-77.175 14.232-41.685-23.786-57.09-25.41-57.726a1.416 1.416 0 0 1-.804-1.833 1.423 1.423 0 0 1 1.838-.802c.424.166 42.155 17.058 27.055 61.274-13.977 40.943-68.708 59.4-126.652 78.94-10.307 3.474-20.96 7.07-31.447 10.81-71.764 25.593-120.974 72.948-138.572 133.343-10.218 35.055-4.927 72.315 13.812 97.244 13.885 18.477 33.966 28.65 56.546 28.65a1.416 1.416 0 1 1 0 2.829z"/><path fill="#8ED5FF" d="M1781.686 643.663c-16.336-11.235-6.454-29.768-14.027-42.046-7.572-12.273-2.7-24.871 5.045-32.963 7.746-8.096 9.654-14.735 4.181-26.2-5.469-11.466.702-25.473 5.841-31.883 5.14-6.412 17.517-15.237 22.522-42.404 5.01-27.168 41.757-39.6 41.757-39.6s23.644 30.719 12.698 56.088c-10.941 25.362-5.569 39.567-4.852 47.75.71 8.185-1.956 23.255-12.879 29.755-10.926 6.5-13.033 13.08-11.092 24.105 1.941 11.029-1.012 24.205-14.141 30.21-13.122 6.013-15.212 26.909-35.053 27.188z"/><path fill="#5F5A76" d="M1781.686 645.078c-.288 0-.569-.088-.805-.25-10.38-7.137-10.779-17.3-11.132-26.269-.237-5.965-.457-11.599-3.295-16.201-8.081-13.099-2.602-26.504 5.226-34.68 7.819-8.173 8.811-14.385 3.926-24.614-5.675-11.901.488-26.482 6.015-33.377.889-1.109 1.99-2.288 3.229-3.618 5.941-6.368 14.922-15.992 19.005-38.155 5.104-27.668 41.164-40.168 42.698-40.688a1.43 1.43 0 0 1 1.577.48c.989 1.282 24.023 31.673 12.879 57.51-8.934 20.708-6.816 33.697-5.413 42.29.29 1.784.545 3.368.67 4.78.76 8.798-2.224 24.34-13.564 31.091-9.753 5.8-12.384 11.515-10.425 22.646 1.962 11.143-.934 25.333-14.946 31.741-4.915 2.252-8.233 6.813-11.745 11.644-5.28 7.262-11.27 15.495-23.879 15.67h-.021zm64.807-214.816c-5.78 2.196-35.5 14.566-39.85 38.163-4.233 22.978-13.554 32.963-19.72 39.573-1.188 1.27-2.24 2.395-3.089 3.457-5.081 6.338-10.785 19.662-5.667 30.391 5.443 11.401 4.28 18.671-4.436 27.784-3.447 3.6-13.972 16.482-4.864 31.246 3.226 5.228 3.472 11.503 3.713 17.572.355 8.987.69 17.48 9.539 23.79 10.874-.336 15.878-7.219 21.174-14.497 3.572-4.912 7.265-9.99 12.856-12.55 15.786-7.222 14.2-23.778 13.336-28.682-2.185-12.406.892-19.098 11.76-25.564 10.225-6.083 12.893-20.329 12.193-28.417-.118-1.345-.365-2.862-.642-4.57-1.457-8.917-3.653-22.395 5.606-43.863 9.515-22.052-8.322-48.803-11.91-53.833z"/><path fill="#5F5A76" d="M1781.686 645.078c-.137 0-.274-.019-.41-.063a1.408 1.408 0 0 1-.944-1.761l65.32-215.097c.229-.748 1.022-1.186 1.764-.943a1.408 1.408 0 0 1 .944 1.761l-65.32 215.097a1.414 1.414 0 0 1-1.354 1.006z"/><path fill="#5F5A76" d="M1793.059 607.638c-.513 0-1.008-.28-1.259-.766l-13.295-25.782a1.417 1.417 0 0 1 2.517-1.297l13.295 25.781a1.414 1.414 0 0 1-1.258 2.064zm2.391-7.355a1.413 1.413 0 0 1-.52-2.73l27.01-10.648a1.42 1.42 0 0 1 1.836.795 1.413 1.413 0 0 1-.797 1.835l-27.01 10.648c-.169.067-.346.1-.52.1zm35.322-116.183a1.413 1.413 0 0 1-.52-2.73l22.164-8.733c.727-.276 1.554.07 1.837.796a1.413 1.413 0 0 1-.797 1.834L1831.293 484c-.17.067-.347.1-.52.1zm-18.808 61.586a1.413 1.413 0 0 1-.52-2.73l35.729-14.076a1.414 1.414 0 1 1 1.04 2.63l-35.728 14.076c-.17.067-.348.1-.521.1zm-1.791 5.586c-.513 0-1.008-.28-1.258-.766l-16.743-32.495a1.416 1.416 0 1 1 2.517-1.297l16.743 32.495a1.414 1.414 0 0 1-1.259 2.063zm17.71-58.306c-.513 0-1.008-.28-1.259-.766l-10.266-19.89a1.414 1.414 0 0 1 .609-1.905 1.422 1.422 0 0 1 1.908.608l10.266 19.89a1.414 1.414 0 0 1-1.258 2.063z"/><path fill="#8ED5FF" d="M1778.678 633.2c15.152-10.214 6.207-27.37 13.288-38.617 7.08-11.245 2.705-22.894-4.362-30.41-7.067-7.523-8.764-13.66-3.628-24.171 5.137-10.516-.42-23.472-5.107-29.426-4.678-5.951-16-14.19-20.377-39.257-4.38-25.071-38.126-36.844-38.126-36.844s-22.046 28.096-12.185 51.561c9.864 23.464 4.789 36.505 4.062 44.037-.727 7.535 1.594 21.437 11.606 27.521 10.008 6.084 11.89 12.163 10.008 22.304-1.885 10.14.723 22.307 12.764 27.956 12.042 5.647 13.78 24.91 32.057 25.346z"/><path fill="#5F5A76" d="M1778.678 634.614h-.033c-11.668-.277-17.13-7.932-21.945-14.69-3.184-4.466-6.195-8.685-10.68-10.79-12.911-6.057-15.469-19.207-13.557-29.496 1.89-10.18-.468-15.439-9.35-20.836-10.441-6.345-13.065-20.739-12.278-28.867.125-1.301.376-2.764.66-4.41 1.362-7.89 3.422-19.817-4.62-38.94-10.066-23.959 11.455-51.808 12.378-52.984a1.422 1.422 0 0 1 1.582-.464c1.41.495 34.581 12.344 39.054 37.939 3.568 20.425 11.741 29.352 17.152 35.26 1.133 1.237 2.132 2.336 2.945 3.368 5.053 6.419 10.624 19.949 5.266 30.919-4.56 9.333-3.705 15.033 3.388 22.584 7.17 7.628 12.121 20.07 4.528 32.131-2.64 4.19-2.89 9.363-3.16 14.842-.402 8.283-.863 17.676-10.535 24.194-.238.156-.514.24-.795.24zm-57.813-198.437c-3.451 4.76-19.875 29.087-11.378 49.309 8.363 19.89 6.219 32.305 4.802 40.52-.274 1.567-.513 2.96-.634 4.2-.716 7.417 1.605 20.51 10.934 26.177 9.875 6.002 12.763 12.446 10.664 23.77-.837 4.488-2.439 19.658 11.97 26.416 5.16 2.422 8.529 7.145 11.783 11.715 4.794 6.717 9.318 13.066 19.252 13.486 8.137-5.708 8.517-13.494 8.92-21.732.273-5.602.556-11.39 3.59-16.206 8.476-13.464-1.066-25.362-4.195-28.69-7.89-8.401-8.937-15.383-3.867-25.76 4.786-9.801-.335-22.076-4.948-27.933-.771-.98-1.731-2.027-2.809-3.202-5.63-6.154-14.144-15.45-17.849-36.686-3.777-21.611-30.755-33.236-36.235-35.384z"/><path fill="#5F5A76" d="M1778.678 634.614a1.425 1.425 0 0 1-1.361-1.016l-58.313-198.725a1.42 1.42 0 0 1 .964-1.757 1.438 1.438 0 0 1 1.76.962l58.313 198.725a1.42 1.42 0 0 1-.964 1.757 1.546 1.546 0 0 1-.399.054z"/><path fill="#5F5A76" d="M1768.53 600.021a1.414 1.414 0 0 1-1.255-2.075l12.47-23.633a1.425 1.425 0 0 1 1.915-.593c.694.365.96 1.22.594 1.913l-12.469 23.633a1.415 1.415 0 0 1-1.254.755zm-2.14-6.794a1.4 1.4 0 0 1-.532-.104l-24.79-10.04a1.413 1.413 0 0 1-.783-1.843 1.425 1.425 0 0 1 1.845-.781l24.79 10.04a1.413 1.413 0 0 1 .782 1.842 1.412 1.412 0 0 1-1.313.886zm-31.536-107.337c-.177 0-.358-.032-.532-.103l-20.34-8.239a1.413 1.413 0 0 1-.783-1.842 1.42 1.42 0 0 1 1.845-.781l20.34 8.238a1.413 1.413 0 0 1 .783 1.843 1.412 1.412 0 0 1-1.313.885zm16.79 56.897c-.177 0-.358-.033-.532-.104l-32.786-13.28a1.413 1.413 0 0 1-.783-1.841 1.42 1.42 0 0 1 1.845-.782l32.787 13.28a1.414 1.414 0 1 1-.53 2.727zm1.606 5.163a1.414 1.414 0 0 1-1.255-2.075l15.701-29.791a1.434 1.434 0 0 1 1.916-.593c.694.365.96 1.22.594 1.913l-15.701 29.79a1.424 1.424 0 0 1-1.255.756zm-15.81-53.871a1.415 1.415 0 0 1-1.255-2.075l9.628-18.232a1.424 1.424 0 0 1 1.916-.593c.694.365.96 1.224.594 1.913l-9.627 18.232a1.416 1.416 0 0 1-1.255.755z"/><path fill="#8ED5FF" d="M1761.7 636.476c5.483-8.782-3.12-15.602-2.048-23.06 1.066-7.457-3.889-12.477-9.288-14.739-5.4-2.27-7.697-5.056-7.464-11.68.229-6.63-5.647-12.057-9.448-14.061-3.801-2.004-11.57-3.66-19.632-15.63-8.065-11.975-28.26-10.288-28.26-10.288s-4.919 19.628 5.61 29.504c10.531 9.878 10.923 17.8 12.289 21.868 1.365 4.068 5.779 10.73 12.37 11.574 6.59.844 8.975 3.56 10.34 9.245 1.365 5.682 5.532 11.382 13.071 11.534 7.54.145 12.892 9.72 22.46 5.733z"/><path fill="#5F5A76" d="M1757.102 638.863c-3.935 0-7.189-1.916-10.167-3.667-2.608-1.536-5.078-2.988-7.728-3.04-8.435-.169-12.979-6.629-14.417-12.617-1.313-5.468-3.535-7.454-9.145-8.173-7.152-.917-12.011-7.992-13.532-12.528-.24-.715-.453-1.544-.69-2.48-1.103-4.329-2.772-10.877-11.225-18.807-11.008-10.325-6.221-30.045-6.015-30.878a1.42 1.42 0 0 1 1.259-1.069c.863-.066 21.118-1.61 29.555 10.91 6.465 9.603 12.665 12.3 16.767 14.083.89.387 1.68.73 2.348 1.083 4.237 2.237 10.45 8.17 10.203 15.363-.199 5.637 1.406 8.147 6.599 10.328 5.682 2.385 11.332 7.9 10.14 16.242-.377 2.62.66 5.288 1.76 8.11 1.756 4.514 3.749 9.632.088 15.498-.154.25-.387.447-.657.557-1.841.771-3.55 1.085-5.143 1.085zm-70.383-90.486c-.794 4.05-3.051 19.168 5.421 27.112 9.056 8.496 10.919 15.807 12.03 20.174.218.858.41 1.62.631 2.277 1.295 3.858 5.347 9.871 11.208 10.62 6.812.873 9.94 3.67 11.535 10.317.58 2.41 3.136 10.277 11.724 10.45 3.39.066 6.3 1.776 9.108 3.43 3.852 2.266 7.483 4.408 12.358 2.58 2.587-4.5 1.059-8.431-.56-12.587-1.18-3.036-2.406-6.18-1.923-9.533 1.215-8.492-6.147-12.277-8.435-13.235-6.314-2.653-8.573-6.186-8.332-13.033.202-5.892-5.085-10.858-8.69-12.76-.617-.328-1.344-.641-2.16-.995-4.136-1.798-11.059-4.812-17.989-15.1-6.493-9.636-21.837-9.838-25.926-9.717z"/><path fill="#5F5A76" d="M1761.7 637.89c-.403 0-.801-.17-1.082-.497l-76.139-89.457a1.421 1.421 0 0 1 .162-1.998 1.425 1.425 0 0 1 2.001.162l76.139 89.458a1.421 1.421 0 0 1-.162 1.997c-.27.224-.594.335-.92.335z"/><path fill="#5F5A76" d="M1748.448 622.318c-.029 0-.063 0-.092-.003a1.412 1.412 0 0 1-1.321-1.504l.989-15.114c.048-.778.742-1.407 1.506-1.319a1.412 1.412 0 0 1 1.32 1.504l-.989 15.114a1.416 1.416 0 0 1-1.413 1.322zm-17.838-2.513a1.416 1.416 0 0 1-.047-2.83l15.155-.512a1.426 1.426 0 0 1 1.465 1.367 1.417 1.417 0 0 1-1.369 1.463l-15.155.512h-.048zm-38.422-48.399a1.416 1.416 0 0 1-.048-2.83l12.436-.423c.745.025 1.44.585 1.465 1.367a1.417 1.417 0 0 1-1.37 1.463l-12.435.423h-.048zm14.236 25.849a1.416 1.416 0 0 1-.048-2.83l20.045-.681c.794-.03 1.44.585 1.465 1.366a1.417 1.417 0 0 1-1.369 1.463l-20.045.682h-.048z"/><path fill="#5F5A76" d="M1728.496 598.876c-.029 0-.06 0-.092-.004a1.412 1.412 0 0 1-1.321-1.503l1.243-19.047c.049-.777.627-1.418 1.506-1.319a1.412 1.412 0 0 1 1.32 1.504l-1.243 19.046a1.417 1.417 0 0 1-1.413 1.323zm-20.64-24.253c-.029 0-.063 0-.092-.004a1.414 1.414 0 0 1-1.32-1.503l.767-11.66c.048-.777.727-1.447 1.505-1.318a1.414 1.414 0 0 1 1.32 1.503l-.766 11.66a1.415 1.415 0 0 1-1.414 1.322z"/><path fill="#8ED5FF" d="M1797.413 636.476c-5.484-8.782 3.12-15.602 2.048-23.06-1.066-7.457 3.89-12.477 9.288-14.739 5.399-2.27 7.697-5.056 7.465-11.68-.229-6.63 5.647-12.057 9.448-14.061 3.801-2.004 11.568-3.66 19.632-15.63 8.067-11.975 28.26-10.288 28.26-10.288s4.919 19.628-5.61 29.504c-10.533 9.878-10.923 17.8-12.289 21.868-1.365 4.068-5.779 10.73-12.37 11.574-6.59.844-8.975 3.56-10.34 9.245-1.365 5.682-5.53 11.382-13.071 11.534-7.542.145-12.893 9.72-22.46 5.733z"/><path fill="#5F5A76" d="M1802.011 638.863c-1.594 0-3.298-.314-5.143-1.084a1.401 1.401 0 0 1-.658-.556c-3.66-5.867-1.667-10.985.09-15.499 1.1-2.822 2.135-5.49 1.76-8.11-1.192-8.342 4.458-13.858 10.14-16.242 5.192-2.18 6.798-4.69 6.599-10.328-.247-7.193 5.966-13.126 10.203-15.362.667-.354 1.458-.697 2.348-1.084 4.104-1.784 10.303-4.48 16.768-14.082 8.436-12.529 28.695-10.981 29.554-10.91a1.42 1.42 0 0 1 1.259 1.068c.206.833 4.993 20.553-6.015 30.878-8.454 7.93-10.122 14.477-11.225 18.808-.237.935-.45 1.765-.69 2.48-1.52 4.534-6.38 11.61-13.532 12.528-5.61.718-7.83 2.704-9.145 8.173-1.44 5.988-5.982 12.446-14.417 12.617-2.65.052-5.118 1.503-7.727 3.04-2.98 1.75-6.235 3.665-10.169 3.665zm-3.631-3.527c4.878 1.827 8.509-.31 12.358-2.579 2.808-1.654 5.716-3.364 9.107-3.43 8.587-.173 11.144-8.04 11.724-10.45 1.594-6.647 4.723-9.444 11.535-10.317 5.86-.749 9.912-6.762 11.208-10.62.221-.656.412-1.419.63-2.277 1.11-4.366 2.975-11.676 12.03-20.174 8.487-7.96 6.218-23.066 5.424-27.112-4.13-.121-19.433.073-25.927 9.717-6.93 10.288-13.853 13.302-17.99 15.1-.815.354-1.542.666-2.159.995-3.605 1.902-8.893 6.868-8.69 12.76.24 6.847-2.018 10.38-8.332 13.033-2.288.958-9.65 4.743-8.435 13.235.483 3.354-.742 6.497-1.923 9.533-1.619 4.156-3.146 8.088-.56 12.586z"/><path fill="#5F5A76" d="M1797.413 637.89c-.324 0-.65-.11-.919-.335a1.42 1.42 0 0 1-.162-1.997l76.139-89.458a1.426 1.426 0 0 1 2-.162c.594.508.668 1.4.162 1.998l-76.138 89.457a1.42 1.42 0 0 1-1.082.497z"/><path fill="#5F5A76" d="M1810.665 622.318a1.416 1.416 0 0 1-1.414-1.322l-.989-15.114a1.413 1.413 0 0 1 1.321-1.504c.742-.08 1.454.541 1.506 1.319l.989 15.114a1.413 1.413 0 0 1-1.321 1.504c-.03.003-.063.003-.092.003zm17.838-2.513h-.048l-15.155-.512a1.416 1.416 0 0 1-1.37-1.463c.026-.781.628-1.382 1.466-1.367l15.155.512a1.416 1.416 0 0 1-.048 2.83zm38.422-48.399h-.049l-12.435-.423a1.416 1.416 0 0 1-1.369-1.463c.025-.782.752-1.338 1.465-1.367l12.436.423a1.416 1.416 0 0 1-.048 2.83zm-14.237 25.849h-.048l-20.044-.682a1.416 1.416 0 0 1-1.37-1.463 1.433 1.433 0 0 1 1.466-1.366l20.044.681a1.416 1.416 0 0 1-.048 2.83z"/><path fill="#5F5A76" d="M1830.618 598.876a1.416 1.416 0 0 1-1.413-1.323l-1.244-19.046a1.413 1.413 0 0 1 1.321-1.504c.856-.096 1.454.542 1.506 1.32l1.243 19.046a1.413 1.413 0 0 1-1.32 1.503c-.035.004-.064.004-.093.004zm20.638-24.253a1.416 1.416 0 0 1-1.413-1.323l-.767-11.659a1.415 1.415 0 0 1 1.32-1.503c.756-.121 1.454.541 1.506 1.319l.767 11.659a1.414 1.414 0 0 1-1.32 1.503c-.03.004-.062.004-.093.004z"/><path fill="#ECF0F1" d="M1824.859 699.724h-89.873l-14.505-78.185h118.883z"/><path fill="#5F5A76" d="M1824.859 701.131h-89.873a1.42 1.42 0 0 1-1.397-1.154l-14.505-78.185a1.409 1.409 0 0 1 1.397-1.66h118.883a1.407 1.407 0 0 1 1.397 1.66l-14.505 78.185a1.42 1.42 0 0 1-1.397 1.154zm-88.691-2.814h87.508l13.983-75.37h-115.475l13.984 75.37z"/><path fill="#ECF0F1" d="M1719.513 676.461h11.237v59.081h-11.237z"/><path fill="#5F5A76" d="M1730.75 736.947h-11.237c-.78 0-1.413-.629-1.413-1.404v-59.08c0-.776.632-1.405 1.413-1.405h11.237c.78 0 1.413.629 1.413 1.404v59.08a1.41 1.41 0 0 1-1.413 1.405zm-9.824-2.81h8.411v-56.272h-8.411v56.272z"/><path fill="#ECF0F1" d="M1829.1 676.461h11.237v59.081H1829.1z"/><path fill="#5F5A76" d="M1840.337 736.947H1829.1c-.78 0-1.413-.629-1.413-1.404v-59.08c0-.776.632-1.405 1.413-1.405h11.237c.78 0 1.413.629 1.413 1.404v59.08a1.41 1.41 0 0 1-1.413 1.405zm-9.824-2.81h8.411v-56.272h-8.411v56.272z"/><path fill="#ECF0F1" d="M1730.75 700.591h98.35v10.299h-98.35z"/><path fill="#5F5A76" d="M1829.1 712.293h-98.35c-.78 0-1.413-.628-1.413-1.404V700.59c0-.775.633-1.404 1.413-1.404h98.35c.78 0 1.413.629 1.413 1.404v10.3c0 .775-.633 1.403-1.413 1.403zm-96.937-2.808h95.524v-7.49h-95.524v7.49z"/><path fill="#ECF0F1" d="M1774.306 676.461h11.237v59.081h-11.237z"/><path fill="#5F5A76" d="M1785.544 736.947h-11.237c-.78 0-1.413-.629-1.413-1.404v-59.08a1.41 1.41 0 0 1 1.413-1.405h11.237c.78 0 1.413.629 1.413 1.404v59.08a1.41 1.41 0 0 1-1.413 1.405zm-9.824-2.81h8.411v-56.272h-8.411v56.272z"/><g fill="#5F5A76"><path d="M1240.986 253.685a.893.893 0 0 1-.644-.274l-7.306-7.475a.948.948 0 0 1 0-1.319.897.897 0 0 1 1.29 0l7.305 7.476a.948.948 0 0 1 0 1.318.906.906 0 0 1-.645.274z"/><path d="M1233.68 253.685a.893.893 0 0 1-.645-.274.948.948 0 0 1 0-1.319l7.31-7.475a.898.898 0 0 1 1.289 0 .948.948 0 0 1 0 1.32l-7.31 7.474a.895.895 0 0 1-.645.274zm636.111 84.751a.928.928 0 0 1-.66-.274l-7.471-7.475a.933.933 0 0 1 1.319-1.318l7.471 7.475a.933.933 0 0 1-.659 1.592z"/><path d="M1862.316 338.436a.933.933 0 0 1-.659-1.593l7.476-7.474a.933.933 0 0 1 1.318 1.318l-7.475 7.475a.926.926 0 0 1-.66.274zM1417.5 221a6.507 6.507 0 0 1-6.5-6.5c0-3.584 2.916-6.5 6.5-6.5s6.5 2.916 6.5 6.5-2.916 6.5-6.5 6.5zm0-11.074a4.578 4.578 0 0 0-4.574 4.574 4.578 4.578 0 0 0 4.574 4.574 4.578 4.578 0 0 0 4.574-4.574 4.578 4.578 0 0 0-4.574-4.574zm344 82.074a6.507 6.507 0 0 1-6.5-6.5c0-3.584 2.916-6.5 6.5-6.5s6.5 2.916 6.5 6.5-2.914 6.5-6.5 6.5zm0-11.074a4.579 4.579 0 0 0-4.574 4.574 4.578 4.578 0 0 0 4.574 4.574 4.578 4.578 0 0 0 4.574-4.574 4.578 4.578 0 0 0-4.574-4.574zM1484.707 14a.962.962 0 0 1-.899-.607l-4.744-12.113a.93.93 0 0 1 .15-.93c.218-.26.572-.389.9-.34l13.073 2.03c.338.054.625.28.749.596a.922.922 0 0 1-.151.93l-8.33 10.084a.971.971 0 0 1-.748.35zm-3.248-11.87l3.548 9.062 6.233-7.543-9.781-1.52zM1905.291 180a.972.972 0 0 1-.748-.35l-8.328-10.083a.923.923 0 0 1-.15-.932.964.964 0 0 1 .748-.593l13.072-2.03a.977.977 0 0 1 .9.338.921.921 0 0 1 .15.93l-4.744 12.114a.967.967 0 0 1-.9.606zm-6.53-10.35l6.23 7.543 3.549-9.063-9.78 1.52zM1803.528 208c-2.448 0-3.716-.933-4.833-1.756-1.01-.743-1.883-1.384-3.704-1.384-1.814 0-2.684.641-3.693 1.384-1.113.823-2.377 1.756-4.82 1.756-2.444 0-3.713-.933-4.825-1.756-1.01-.743-1.88-1.384-3.693-1.384-1.814 0-2.684.641-3.693 1.384-1.113.823-2.378 1.756-4.821 1.756-2.44 0-3.7-.933-4.813-1.756-1.007-.743-1.876-1.384-3.69-1.384a.938.938 0 0 1-.943-.93c0-.514.424-.93.943-.93 2.44 0 3.705.933 4.821 1.756 1.003.743 1.872 1.384 3.682 1.384 1.813 0 2.683-.641 3.693-1.384 1.113-.823 2.377-1.756 4.82-1.756 2.444 0 3.709.933 4.822 1.756 1.009.743 1.879 1.384 3.696 1.384 1.814 0 2.684-.641 3.693-1.384 1.113-.823 2.378-1.756 4.821-1.756 2.447 0 3.716.933 4.832 1.756 1.01.743 1.883 1.384 3.705 1.384 1.817 0 2.687-.641 3.696-1.384 1.117-.823 2.384-1.756 4.833-1.756.52 0 .943.416.943.93s-.424.93-.943.93c-1.822 0-2.694.641-3.705 1.387-1.116.822-2.38 1.753-4.824 1.753zm-449.004-107c-2.447 0-3.711-.933-4.828-1.756-1.01-.743-1.883-1.384-3.7-1.384-1.817 0-2.687.641-3.696 1.384-1.117.823-2.381 1.756-4.825 1.756-2.439 0-3.704-.933-4.816-1.753-1.01-.745-1.88-1.387-3.697-1.387-1.813 0-2.683.641-3.692 1.384-1.113.823-2.378 1.756-4.821 1.756-2.44 0-3.704-.933-4.817-1.756-1.006-.743-1.875-1.384-3.689-1.384a.938.938 0 0 1-.943-.93c0-.514.424-.93.943-.93 2.44 0 3.704.933 4.817 1.756 1.007.743 1.876 1.384 3.689 1.384 1.813 0 2.683-.641 3.693-1.384 1.112-.823 2.377-1.756 4.82-1.756 2.443 0 3.712.934 4.825 1.757 1.01.742 1.875 1.383 3.688 1.383 1.818 0 2.688-.641 3.697-1.384 1.116-.823 2.38-1.756 4.824-1.756 2.447 0 3.712.933 4.828 1.756 1.01.743 1.883 1.384 3.7 1.384 1.821 0 2.694-.641 3.704-1.387 1.117-.822 2.385-1.753 4.829-1.753.52 0 .943.416.943.93s-.424.93-.943.93c-1.818 0-2.69.641-3.7 1.384-1.118.823-2.386 1.756-4.833 1.756zm292.009-42a.916.916 0 0 1-.5-.15l-1.954-1.288c-5.047-3.335-5.072-5.948-5.079-6.93a4.641 4.641 0 0 1 1.309-3.278c1.642-1.682 4.485-1.727 6.179-.193a4.427 4.427 0 0 1 2.987-1.161c2.48 0 4.51 2.07 4.525 4.611.003.986.015 3.6-5.025 6.95l-1.941 1.289a.905.905 0 0 1-.5.15zm-3.036-11.115a2.61 2.61 0 0 0-1.884.8 2.744 2.744 0 0 0-.773 1.929c.008.707.022 2.58 4.238 5.364l1.452.959 1.445-.959c4.195-2.787 4.187-4.654 4.183-5.357-.007-1.507-1.21-2.735-2.685-2.735-.895 0-1.721.456-2.213 1.223a.922.922 0 0 1-.766.423h-.004a.912.912 0 0 1-.766-.42 2.654 2.654 0 0 0-2.227-1.227z"/></g></g></svg>