<svg xmlns="http://www.w3.org/2000/svg" xmlns:xlink="http://www.w3.org/1999/xlink" width="403" height="209" viewBox="0 0 403 209"><defs><path id="a" d="M128.419 114.723h149.204L260.785 3.545H111.662z"/><filter id="b" width="101.8%" height="102.7%" x="-.9%" y="-1.3%" filterUnits="objectBoundingBox"><feGaussianBlur in="SourceAlpha" result="shadowBlurInner1" stdDeviation="1.5"/><feOffset in="shadowBlurInner1" result="shadowOffsetInner1"/><feComposite in="shadowOffsetInner1" in2="SourceAlpha" k2="-1" k3="1" operator="arithmetic" result="shadowInnerInner1"/><feColorMatrix in="shadowInnerInner1" values="0 0 0 0 0.551887183 0 0 0 0 0.535284821 0 0 0 0 0.646258503 0 0 0 0.64330201 0"/></filter></defs><g fill="none" fill-rule="evenodd"><path fill="#8ED5FF" fill-rule="nonzero" stroke="#5F5A76" stroke-linecap="round" stroke-linejoin="round" stroke-width="1.71" d="M369.66 84.867c0 32.467-7.975 49.386-17.804 49.386-9.829 0-17.805-16.919-17.805-49.386s7.976-68.157 17.805-68.157 17.805 35.69 17.805 68.157z"/><path stroke="#5F5A76" stroke-linecap="round" stroke-linejoin="round" stroke-width="2" d="M351.856 16.71v117.462m-15.71-23.686l15.71 15.63 15.63-15.63M334.051 81l17.805 17.724L369.58 81m-33.515-25.458l15.791 15.79 15.71-15.79m-26.747-22.639l11.037 10.957 10.957-10.957"/><path fill="#8ED5FF" fill-rule="nonzero" stroke="#5F5A76" stroke-linecap="round" stroke-linejoin="round" stroke-width="2" d="M333.97 91.554c9.99 25.136 9.105 40.685 1.45 43.746-7.653 3.062-19.012-7.653-29.002-32.79-9.99-25.135-14.904-55.266-7.25-58.328 7.572-3.061 24.813 22.155 34.803 47.372z"/><path stroke="#5F5A76" stroke-linecap="round" stroke-linejoin="round" stroke-width="2" d="M299.167 44.182l36.254 91.118m-19.497-13.615l17 7.331 7.33-16.999M305.21 99.53l19.254 8.217 8.298-19.174m-33.837-9.426l17.08 7.412 7.331-17.16m-27.714-9.265l11.924 5.156 5.156-11.923"/><path fill="#8ED5FF" fill-rule="nonzero" stroke="#5F5A76" stroke-linecap="round" stroke-linejoin="round" stroke-width="2" d="M365.632 98.24c-8.54 21.43-7.734 34.724-1.208 37.302 6.526 2.578 16.193-6.526 24.733-27.956s12.649-47.13 6.204-49.708c-6.526-2.578-21.189 18.933-29.729 40.363z"/><path stroke="#5F5A76" stroke-linecap="round" stroke-linejoin="round" stroke-width="2" d="M395.36 57.878l-30.936 77.664m16.596-11.521l-14.501 6.204-6.204-14.502m29.809-10.634l-16.355 7.009-7.09-16.355m28.843-8.056L380.94 93.97l-6.204-14.502m23.605-7.975l-10.15 4.35-4.351-10.15"/><path fill="#F5F7FA" fill-rule="nonzero" d="M318.905 127.244h65.821l16.032 64.934h-97.885z"/><path fill="#D7DADA" fill-rule="nonzero" d="M318.905 127.244h13.857l33.918 64.934h-63.807z"/><path stroke="#5F5A76" stroke-linecap="round" stroke-linejoin="round" stroke-width="3" d="M318.905 127.244h65.821l16.032 64.934h-97.885z"/><path fill="#8D88A5" fill-opacity=".617" fill-rule="nonzero" stroke="#007DEA" stroke-linecap="round" stroke-linejoin="round" stroke-width="1.71" d="M161.242 118.946l29.889-71.863h-77.664l-29.889 71.863z"/><path fill="#ECF0F1" fill-rule="nonzero" stroke="#5F5A76" stroke-linecap="round" stroke-linejoin="round" stroke-width="1.71" d="M84.545 118.946l29.889-71.863h-6.042l-29.89 71.863z"/><path fill="#ECF0F1" fill-rule="nonzero" stroke="#5F5A76" stroke-linecap="round" stroke-linejoin="round" stroke-width="1.71" d="M261.785 1.322c3.062 0 5.962 2.498 6.446 5.64l16.032 106.425c.483 3.061-1.692 5.64-4.753 5.64H122.088c-3.062 0-5.962-2.498-6.446-5.64L99.61 6.88c-.483-3.061 1.692-5.64 4.754-5.64h157.421v.081z"/><path fill="#FFF" fill-rule="nonzero" stroke="#5F5A76" stroke-linecap="round" stroke-linejoin="round" stroke-width="1.71" d="M268.15 1.322c3.061 0 5.962 2.498 6.445 5.64l16.032 106.425c.484 3.061-1.691 5.64-4.753 5.64H128.372c-3.062 0-5.962-2.498-6.446-5.64L105.894 6.88c-.483-3.061 1.692-5.64 4.754-5.64H268.15v.081z"/><g fill-rule="nonzero" transform="translate(1 1)"><use fill="#F5F7FA" xlink:href="#a"/><use fill="#000" filter="url(#b)" xlink:href="#a"/></g><path fill="#ECF0F1" fill-rule="nonzero" stroke="#5F5A76" stroke-linecap="round" stroke-linejoin="round" stroke-width="1.3" d="M271.695 58.764l.403 2.82c.241 1.53 1.692 2.82 3.222 2.82h2.82c1.53 0 2.578-1.29 2.336-2.82l-.402-2.82c-.242-1.53-1.692-2.82-3.223-2.82h-2.82c-1.53 0-2.578 1.21-2.336 2.82z"/><path fill="#4390BE" fill-rule="nonzero" d="M224.807 34.112l-27.634-8.862c-1.772-.564-4.592-.564-6.203 0l-25.056 8.862c-1.61.564-1.53 1.53.323 2.094l27.633 8.862c1.772.564 4.592.564 6.204 0l25.055-8.862c1.611-.564 1.45-1.45-.322-2.094z"/><path fill="#4390BE" fill-rule="nonzero" d="M194.112 47.163l-18.208-5.881 1.45 9.99c.242 1.772 1.934 3.786 3.787 4.35l14.904 4.834c1.773.564 4.592.564 6.204 0l13.534-4.834c1.612-.564 2.74-2.497 2.498-4.35l-1.45-9.99-16.516 5.881c-1.611.564-4.43.564-6.203 0zm-36.576 27.231l1.289 8.862h-1.128l-1.29-8.862zm7.251 4.753h-3.465l.484 3.223h3.867l.16.966h-4.994l-1.29-8.862h4.835l.16.967h-3.625l.403 2.82h3.465zm1.208-4.753h1.128l1.128 7.895h3.786l.161.967h-4.914zm6.928.966h-2.739l-.16-.966h6.605l.162.967h-2.74l1.128 7.895h-1.128zm5.559 6.526c.564.322 1.37.564 2.176.564 1.208 0 1.772-.644 1.61-1.53-.16-.806-.644-1.29-1.933-1.773-1.53-.483-2.497-1.289-2.739-2.497-.242-1.37.806-2.417 2.498-2.417.886 0 1.61.241 2.014.402l-.161.967a4.086 4.086 0 0 0-1.773-.403c-1.208 0-1.53.725-1.45 1.37.161.806.725 1.208 2.014 1.692 1.611.564 2.417 1.289 2.659 2.578.16 1.37-.645 2.578-2.74 2.578-.886 0-1.852-.242-2.336-.564l.161-.967zm9.265 0a4.58 4.58 0 0 0 2.175.564c1.209 0 1.773-.644 1.612-1.53-.161-.806-.645-1.29-1.934-1.773-1.53-.483-2.497-1.289-2.739-2.497-.242-1.37.806-2.417 2.498-2.417.886 0 1.61.241 2.014.402l-.162.967a4.086 4.086 0 0 0-1.772-.403c-1.208 0-1.53.725-1.45 1.37.161.806.725 1.208 2.014 1.692 1.611.564 2.417 1.289 2.659 2.578.16 1.37-.645 2.578-2.74 2.578-.886 0-1.853-.242-2.336-.564l.161-.967zm7.413-6.526h-2.74l-.161-.966h6.606l.161.967h-2.739l1.128 7.895h-1.128zm6.041 5.157l-.483 2.82h-1.208l1.691-8.863h1.37l4.35 8.862h-1.208l-1.37-2.82z"/><path fill="#F5F7FA" fill-rule="nonzero" d="M204.021 79.55l-1.208-2.578c-.323-.564-.484-1.128-.725-1.611-.081.563-.081 1.047-.242 1.61l-.483 2.579h2.658z"/><path fill="#4390BE" fill-rule="nonzero" d="M208.21 83.256l-1.289-8.862h1.29l3.464 4.511a38.875 38.875 0 0 1 2.014 2.9c-.242-1.208-.484-2.255-.645-3.625l-.564-3.706h1.048l1.289 8.862h-1.128l-3.464-4.511c-.726-.967-1.531-2.014-2.095-2.981.242 1.128.403 2.175.644 3.625l.564 3.787h-1.128zm7.412-8.782c.645-.08 1.531-.16 2.417-.16 1.612 0 2.9.402 3.787 1.127.886.725 1.53 1.772 1.692 3.223.241 1.45-.08 2.658-.806 3.464-.725.806-2.014 1.289-3.706 1.289-.806 0-1.53 0-2.095-.08l-1.289-8.863z"/><path fill="#F5F7FA" fill-rule="nonzero" d="M217.959 82.37c.322.08.725.08 1.208.08 2.417 0 3.545-1.37 3.223-3.786-.323-2.095-1.692-3.465-4.109-3.465-.564 0-1.047.081-1.29.081l.968 7.09z"/><path fill="#4390BE" fill-rule="nonzero" d="M226.498 80.517l-.483 2.82h-1.208l1.691-8.863h1.37l4.35 8.862h-1.208l-1.37-2.82z"/><path fill="#F5F7FA" fill-rule="nonzero" d="M229.318 79.55l-1.208-2.578c-.322-.564-.484-1.128-.725-1.611-.08.563-.161 1.047-.242 1.61l-.483 2.579h2.658z"/><path fill="#4390BE" fill-rule="nonzero" d="M232.3 74.474a16.15 16.15 0 0 1 2.174-.16c1.209 0 2.014.24 2.659.724.483.403.806.967.967 1.692.16 1.209-.484 1.934-1.37 2.256.725.242 1.209.886 1.53 1.772.484 1.209.806 2.095 1.048 2.417H238.1c-.161-.241-.484-1.047-.887-2.094-.402-1.209-.966-1.692-2.014-1.692h-1.047l.564 3.867h-1.128l-1.289-8.782z"/><path fill="#F5F7FA" fill-rule="nonzero" d="M233.99 78.583h1.21c1.208 0 1.933-.644 1.772-1.692-.161-1.128-1.048-1.611-2.256-1.692-.564 0-.967.081-1.128.081l.403 3.303z"/><path fill="#4390BE" fill-rule="nonzero" d="M239.389 74.474c.644-.08 1.53-.16 2.417-.16 1.61 0 2.9.402 3.786 1.127.886.725 1.53 1.772 1.692 3.223.242 1.45-.08 2.658-.806 3.464-.725.806-2.014 1.289-3.706 1.289-.805 0-1.53 0-2.094-.08l-1.29-8.863z"/><path fill="#F5F7FA" fill-rule="nonzero" d="M241.645 82.37c.322.08.725.08 1.208.08 2.417 0 3.545-1.37 3.223-3.786-.323-2.095-1.692-3.465-4.11-3.465-.563 0-1.047.081-1.288.081l.967 7.09z"/><path fill="#4390BE" fill-rule="nonzero" d="M169.781 91.151h-2.739l-.16-.967h6.605l.162.967h-2.74l1.128 7.895h-1.128zm9.99 3.787h-3.464l.484 3.222h3.867l.16.967h-4.994l-1.29-8.862h4.835l.16.967h-3.625l.403 2.82h3.464zm2.176 2.739a4.58 4.58 0 0 0 2.175.564c1.208 0 1.772-.645 1.611-1.531-.161-.806-.644-1.29-1.933-1.772-1.531-.484-2.498-1.29-2.74-2.498-.241-1.37.806-2.417 2.498-2.417a5.47 5.47 0 0 1 2.014.403l-.161.967a4.086 4.086 0 0 0-1.773-.403c-1.208 0-1.53.725-1.45 1.37.161.805.725 1.208 2.014 1.691 1.612.564 2.417 1.29 2.659 2.578.161 1.37-.644 2.578-2.74 2.578-.885 0-1.852-.241-2.336-.563l.162-.967zm7.331-6.526h-2.74l-.16-.967h6.606l.161.967h-2.74l1.129 7.895h-1.128zm8.459 6.526a4.58 4.58 0 0 0 2.175.564c1.209 0 1.773-.645 1.612-1.531-.161-.806-.645-1.29-1.934-1.772-1.53-.484-2.497-1.29-2.739-2.498-.242-1.37.806-2.417 2.497-2.417.887 0 1.612.242 2.015.403l-.162.967a4.086 4.086 0 0 0-1.772-.403c-1.208 0-1.53.725-1.45 1.37.161.805.725 1.208 2.014 1.691 1.611.564 2.417 1.29 2.659 2.578.16 1.37-.645 2.578-2.74 2.578-.886 0-1.853-.241-2.336-.563l.161-.967zm13.052 1.128c-.403.241-1.209.402-2.256.402-2.498 0-4.592-1.61-5.076-4.511-.403-2.82 1.209-4.673 3.948-4.673 1.128 0 1.853.242 2.175.403l-.161.967c-.483-.242-1.128-.403-1.853-.403-2.095 0-3.303 1.37-2.9 3.625.322 2.176 1.772 3.545 3.947 3.545.725 0 1.37-.161 1.853-.403l.323 1.048zm.161-8.46c.564-.08 1.37-.16 2.175-.16 1.208 0 2.014.241 2.658.724.484.403.806.967.967 1.692.161 1.209-.483 1.934-1.37 2.256.726.242 1.21.886 1.531 1.772.484 1.209.806 2.095 1.048 2.417h-1.209c-.16-.241-.483-1.047-.886-2.094-.403-1.209-.967-1.692-2.014-1.692h-1.047l.564 3.867h-1.128l-1.29-8.782z"/><path fill="#F5F7FA" fill-rule="nonzero" d="M212.722 94.374h1.209c1.208 0 1.933-.645 1.772-1.692-.161-1.128-1.047-1.612-2.256-1.692-.564 0-.967.08-1.128.08l.403 3.304z"/><path fill="#4390BE" fill-rule="nonzero" d="M219.167 90.184l1.29 8.862h-1.129l-1.289-8.862zm2.014.161c.564-.08 1.29-.16 2.175-.16 1.128 0 2.015.241 2.579.724.563.403.966 1.048 1.047 1.853.08.806 0 1.45-.403 1.934-.483.644-1.45.967-2.578.967-.322 0-.645 0-.967-.08l.484 3.544h-1.128l-1.209-8.782z"/><path fill="#F5F7FA" fill-rule="nonzero" d="M222.954 94.615c.241.08.564.08.966.08 1.37 0 2.095-.644 1.934-1.933-.161-1.208-1.047-1.772-2.336-1.772-.484 0-.887 0-1.048.08l.484 3.545z"/><path fill="#4390BE" fill-rule="nonzero" d="M230.043 91.151h-2.739l-.161-.967h6.606l.161.967h-2.739l1.128 7.895h-1.128zm5.559 6.526a4.58 4.58 0 0 0 2.175.564c1.209 0 1.773-.645 1.612-1.531-.161-.806-.645-1.29-1.934-1.772-1.53-.484-2.497-1.29-2.739-2.498-.161-1.37.806-2.417 2.497-2.417.887 0 1.612.242 2.015.403l-.162.967a4.086 4.086 0 0 0-1.772-.403c-1.208 0-1.53.725-1.45 1.37.161.805.725 1.208 2.014 1.691 1.611.564 2.497 1.29 2.659 2.578.16 1.37-.645 2.578-2.74 2.578-.886 0-1.853-.241-2.336-.563l.161-.967z"/><path fill="#F5F7FA" fill-rule="nonzero" d="M163.336 123.457v30.534c-.241 0-.564.08-.805.08H55.703v-30.614H162.53c.322-.08.564-.08.805 0z"/><path d="M55.703 125.39h107.633m-107.633 1.773h107.633m-107.633 1.773h107.633m-107.633 1.772h107.633M55.703 132.48h107.633m-107.633 1.773h107.633m-107.633 1.772h107.633m-107.633 1.692h107.633M55.703 139.49h107.633m-107.633 1.772h107.633m-107.633 1.772h107.633m-107.633 1.773h107.633M55.703 146.58h107.633m-107.633 1.771h107.633m-107.633 1.773h107.633m-107.633 1.772h107.633" stroke="#8D88A5" stroke-linecap="round" stroke-linejoin="round" stroke-width=".57"/><path fill="#4390BE" fill-rule="nonzero" d="M171.876 132.722c0-4.834-3.786-8.862-8.54-9.345-.241 0-.564-.08-.805-.08H50.063v-4.432h112.468c7.653 0 13.776 6.203 13.776 13.776v11.924c0 7.654-6.203 13.776-13.776 13.776H49.983v-4.43H162.53c.322 0 .564 0 .805-.081 4.754-.403 8.54-4.431 8.54-9.346v-11.762z"/><path fill="#579FCA" fill-rule="nonzero" d="M171.876 132.722v11.924c0 4.833-3.786 8.862-8.54 9.345v-30.534c4.834.403 8.54 4.431 8.54 9.265z"/><path fill="#579FCA" fill-rule="nonzero" d="M319.872 132.722v11.924c0 7.653-6.203 13.776-13.776 13.776H162.53c7.653 0 13.776-6.203 13.776-13.776v-11.924c0-7.654-6.203-13.776-13.776-13.776h143.484c7.654 0 13.857 6.203 13.857 13.776z"/><path fill="#4390BE" fill-rule="nonzero" d="M193.306 118.946c7.654 0 13.777 6.203 13.777 13.776v11.924c0 7.653-6.204 13.776-13.777 13.776h-12.729c7.654 0 13.776-6.203 13.776-13.776v-11.924c0-7.654-6.203-13.776-13.776-13.776h12.73z"/><path fill="#579FCA" fill-rule="nonzero" d="M297.878 118.543h10.07v39.879h-10.07z"/><path stroke="#5F5A76" stroke-linecap="round" stroke-linejoin="round" stroke-width="1.71" d="M162.53 158.422c7.654 0 13.777-6.203 13.777-13.776v-11.924c0-7.654-6.203-13.776-13.776-13.776"/><path stroke="#5F5A76" stroke-linecap="round" stroke-linejoin="round" stroke-width="2" d="M180.577 158.422c7.654 0 13.776-6.203 13.776-13.776v-11.924c0-7.654-6.203-13.776-13.776-13.776"/><path stroke="#5F5A76" stroke-linecap="round" stroke-linejoin="round" stroke-width="2" d="M193.306 158.422c7.654 0 13.777-6.203 13.777-13.776v-11.924c0-7.654-6.204-13.776-13.777-13.776"/><path stroke="#5F5A76" stroke-linecap="round" stroke-linejoin="round" stroke-width="1.71" d="M161.564 118.946H49.983v4.43H162.53c.322 0 .564 0 .805.081 4.754.403 8.54 4.431 8.54 9.346v11.923c0 4.834-3.786 8.862-8.54 9.346-.241 0-.564.08-.805.08H50.063v4.431h111.5"/><path stroke="#5F5A76" stroke-linecap="round" stroke-linejoin="round" stroke-width="2" d="M161.564 158.422h144.451c7.573 0 13.777-6.203 13.777-13.776v-11.924c0-7.654-6.204-13.776-13.777-13.776H161.564m1.772 4.511v30.453"/><path stroke="#007DEA" stroke-linecap="round" stroke-linejoin="round" stroke-width="1.71" d="M55.703 123.377v30.614"/><path fill="#F5F7FA" fill-rule="nonzero" d="M181.383 163.095v30.533c-.242 0-.564.081-.806.081H73.669v-30.614h107.714z"/><path d="M73.669 165.109h107.714m-107.714 1.772h107.714m-107.714 1.773h107.714m-107.714 1.691h107.714m-107.714 1.773h107.714M73.669 173.89h107.714m-107.714 1.773h107.714m-107.714 1.772h107.714m-107.714 1.772h107.714M73.669 180.98h107.714m-107.714 1.772h107.714m-107.714 1.773h107.714m-107.714 1.772h107.714m-107.714 1.692h107.714m-107.714 1.772h107.714m-107.714 1.773h107.714" stroke="#7F7B97" stroke-linecap="round" stroke-linejoin="round" stroke-width=".57"/><path fill="#4390BE" fill-rule="nonzero" d="M189.922 172.44c0-4.834-3.786-8.862-8.54-9.345-.241 0-.563-.08-.805-.08H68.029v-4.432h112.467c7.654 0 13.777 6.204 13.777 13.777v11.923c0 7.654-6.204 13.776-13.777 13.776H68.03v-4.43h112.466c.323 0 .564 0 .806-.081 4.753-.403 8.54-4.431 8.54-9.346V172.44h.08z"/><path fill="#579FCA" fill-rule="nonzero" d="M189.922 172.44v11.924c0 4.833-3.786 8.862-8.54 9.345v-30.534c4.754.322 8.54 4.35 8.54 9.265z"/><path fill="#579FCA" fill-rule="nonzero" d="M337.838 172.44v11.924c0 7.653-6.204 13.776-13.777 13.776H180.577c7.654 0 13.776-6.203 13.776-13.776V172.44c0-7.653-6.203-13.776-13.776-13.776h143.484a13.72 13.72 0 0 1 13.777 13.776z"/><path fill="#4390BE" fill-rule="nonzero" d="M211.272 158.664c7.653 0 13.776 6.203 13.776 13.776v11.924c0 7.653-6.203 13.776-13.776 13.776h-12.73c7.654 0 13.777-6.203 13.777-13.776V172.44c0-7.653-6.203-13.776-13.776-13.776h12.729zm88.943-.403h10.07v39.879h-10.07z"/><path stroke="#5F5A76" stroke-linecap="round" stroke-linejoin="round" stroke-width="2" d="M180.577 198.14c7.654 0 13.776-6.203 13.776-13.776V172.44c0-7.653-6.203-13.776-13.776-13.776m17.966 39.476c7.653 0 13.776-6.203 13.776-13.776V172.44c0-7.653-6.203-13.776-13.776-13.776"/><path stroke="#5F5A76" stroke-linecap="round" stroke-linejoin="round" stroke-width="2" d="M211.272 198.14c7.653 0 13.776-6.203 13.776-13.776V172.44c0-7.653-6.203-13.776-13.776-13.776m-31.742 0H68.03v4.43h112.466c.323 0 .564 0 .806.081 4.753.403 8.54 4.431 8.54 9.346v11.923c0 4.834-3.787 8.862-8.54 9.346-.242 0-.564.08-.806.08H68.03v4.431h111.5"/><path stroke="#5F5A76" stroke-linecap="round" stroke-linejoin="round" stroke-width="2" d="M179.53 198.14h144.45c7.573 0 13.776-6.203 13.776-13.776V172.44c0-7.653-6.203-13.776-13.776-13.776H179.61m1.773 4.431v30.533"/><path stroke="#007DEA" stroke-linecap="round" stroke-linejoin="round" stroke-width="1.71" d="M73.669 163.095v30.614"/><path fill="#FFDBB3" fill-rule="nonzero" stroke="#5F5A76" stroke-linecap="round" stroke-linejoin="round" stroke-width="2" d="M291.514 90.104c.08-.161.16-.242.322-.403 0-.08.08-.08.08-.161l.162-.161c.402-.403.644-.645 1.289-.967.08-.08.402-.242.564-.242.322-.16.322-.16.805-.322.161-.08.645-.161 1.45-.242.564 0 1.048.08 1.29.08.724.162 1.691.565 2.255 1.048.161.161.564.484.806.886.241.403.403.645.564 1.209l2.094 7.17c.242.806-.08 1.692-.966 2.578-1.692 1.692-4.995 2.659-7.251 2.014-1.128-.322-1.853-.886-2.095-1.692-.644-2.175-1.45-4.995-2.094-7.17-.081-.242-.081-.403-.162-.564 0-.161 0-.322-.08-.564 0-.322.08-.805.161-1.047 0-.08 0-.08.08-.161 0-.08.081-.161.081-.242v-.08c0-.081 0-.081.08-.162 0-.08.081-.16.081-.16v-.081c0-.08.08-.08.08-.161v-.161c.242-.081.323-.162.404-.242z"/><path fill="#5F5A76" fill-rule="nonzero" d="M329.7 198.704s-3.222-1.047-5.316 1.772c1.45 2.095 2.739 3.948 3.142 4.431 1.047 1.209 2.094.725 2.175-.725v-5.478z"/><path fill="#FFDBB3" fill-rule="nonzero" d="M325.028 187.586l-4.995 2.336-.483 3.465s2.578 3.786 4.834 7.009c2.094-2.74 5.317-1.773 5.317-1.773-.08-4.511-.08-9.99-.08-9.99l-4.593-1.047z"/><path fill="#8ED5FF" fill-rule="nonzero" d="M299.328 98.563l25.7 89.023 4.592 1.128-25.78-89.104z"/><path fill="#8ED5FF" fill-rule="nonzero" d="M299.328 98.563l-4.995 2.336h-.08l25.78 89.023 4.995-2.336z"/><path fill="#6A6683" fill-rule="nonzero" d="M294.253 100.9l-1.37-4.996-.564 3.465 1.45 4.995z"/><path fill="#8D88A5" fill-rule="nonzero" d="M297.878 93.568l1.45 4.995 4.512 1.047-1.45-4.914z"/><path fill="#7F7B97" fill-rule="nonzero" d="M292.883 95.904l1.37 4.995h.08l4.995-2.336-1.45-4.995z"/><path fill="#579FCA" fill-rule="nonzero" d="M293.77 104.364l25.78 89.023.483-3.465-25.78-89.023z"/><path stroke="#5F5A76" stroke-linecap="round" stroke-linejoin="round" stroke-width="2" d="M292.883 95.904l-.564 3.465 1.45 4.995 25.78 89.023m-21.671-99.819l-4.995 2.336 1.37 4.995 25.78 89.023m9.587-1.208L303.84 99.61l-1.45-4.914-4.512-1.128 1.45 4.995 25.7 89.023m4.592 1.128s.08 5.478.08 9.99v5.478c0 1.45-1.127 2.014-2.174.725-.403-.483-1.692-2.336-3.142-4.43a774.807 774.807 0 0 1-4.834-7.01l.483-3.464 4.995-2.336 4.592 1.047z"/><path stroke="#5F5A76" stroke-linecap="round" stroke-linejoin="round" stroke-width="1.71" d="M329.7 198.704s-3.222-1.047-5.316 1.772M303.84 99.61l-4.512-1.047-4.995 2.336h-.08l-.484 3.465"/><path fill="#F5F7FA" fill-rule="nonzero" stroke="#5F5A76" stroke-linecap="round" stroke-linejoin="round" stroke-width="2" d="M88.331 207.727h-71.54L8.33 105.653h88.54z"/><path fill="#ECF0F1" fill-rule="nonzero" stroke="#5F5A76" stroke-linecap="round" stroke-linejoin="round" stroke-width="2" d="M97.918 104.525H7.284l9.104-23.847h72.346z"/><path fill="#D7DADA" fill-rule="nonzero" stroke="#5F5A76" stroke-linecap="round" stroke-linejoin="round" stroke-width="1.71" d="M1.161 97.838h102.88v18.771H1.161z"/><path stroke="#5F5A76" stroke-linecap="round" stroke-linejoin="round" stroke-width="2" d="M6.237 102.027v10.474m9.265-10.474v10.474m9.264-10.474v10.474m9.265-10.474v10.474m9.265-10.474v10.474m9.184-10.474v10.474m9.265-10.474v10.474m9.265-10.474v10.474m9.265-10.474v10.474m9.265-10.474v10.474m9.265-10.474v10.474"/><path fill="#D7DADA" fill-rule="nonzero" stroke="#5F5A76" stroke-linecap="round" stroke-linejoin="round" stroke-width="2" d="M101.302 97.838H3.9l3.142-6.365H98.16zm-9.023 89.023l4.834-55.347H8.09l4.833 55.347z"/></g></svg>