<svg xmlns="http://www.w3.org/2000/svg" width="19" height="19" viewBox="0 0 19 19"><g fill="none" stroke="#4486F4" stroke-width=".4"><path fill="#4486F4" d="M18.117 9.559c0-2.287-.89-4.437-2.506-6.053A8.505 8.505 0 0 0 9.56 1c-2.287 0-4.437.89-6.053 2.506A8.505 8.505 0 0 0 1 9.559v4.052a4.16 4.16 0 0 0 4.155 4.155c.275 0 .494-.22.494-.495V9.954a.493.493 0 0 0-.494-.494 4.141 4.141 0 0 0-3.166 1.465V9.56c0-4.173 3.397-7.57 7.57-7.57s7.569 3.397 7.569 7.57c0 .033.004.066.011.099a.455.455 0 0 0-.011.098v1.367a4.141 4.141 0 0 0-3.165-1.465.493.493 0 0 0-.495.494v7.317c0 .275.22.494.495.494a4.16 4.16 0 0 0 4.154-4.154V9.756a.455.455 0 0 0-.01-.098.455.455 0 0 0 .01-.1z"/><path fill="#FFF" d="M4.456 10.73a2.977 2.977 0 0 0-2.27 2.88c0 1.381.958 2.566 2.27 2.882V10.73zm10.204 5.96a2.974 2.974 0 0 0 2.272-2.881c0-1.38-.96-2.566-2.271-2.882v5.763z"/></g></svg>