<svg xmlns="http://www.w3.org/2000/svg" width="21" height="27" viewBox="0 0 21 27"><g fill="#393649"><path d="M9.879 10.373a.846.846 0 0 0-1.195-.002l-2.778 2.78-1.09-1.092a.844.844 0 0 0-1.193 1.193l1.688 1.687c.163.166.38.248.595.248a.847.847 0 0 0 .598-.246l3.375-3.375a.844.844 0 0 0 0-1.193zm0 6.75a.846.846 0 0 0-1.195-.002l-2.778 2.78-1.09-1.09a.844.844 0 0 0-1.193 1.193l1.688 1.687a.847.847 0 0 0 1.193 0l3.375-3.375a.844.844 0 0 0 0-1.193zm6.152-5.31h-3.375a.844.844 0 0 0 0 1.687h3.375a.844.844 0 0 0 0-1.688zm0 6.75h-3.375a.844.844 0 0 0 0 1.687h3.375a.844.844 0 0 0 0-1.688z"/><path d="M18.563 3.375h-3.375v-.844a.844.844 0 0 0-.844-.844h-1.831A2.538 2.538 0 0 0 10.125 0c-1.1 0-2.039.705-2.388 1.688h-1.83a.844.844 0 0 0-.845.843v.844H1.688A1.69 1.69 0 0 0 0 5.063v20.25A1.69 1.69 0 0 0 1.688 27h16.875a1.69 1.69 0 0 0 1.687-1.688V5.063a1.69 1.69 0 0 0-1.688-1.687zm-11.813 0h1.688a.844.844 0 0 0 .843-.844.844.844 0 0 1 1.688 0c0 .466.378.844.844.844H13.5v1.688H6.75V3.375zm11.813 21.938H1.688V5.063h3.375v.843c0 .466.378.844.843.844h8.438a.844.844 0 0 0 .844-.844v-.843h3.374v20.25z"/></g></svg>