<svg xmlns="http://www.w3.org/2000/svg" width="51" height="50" viewBox="0 0 51 50"><g fill="none"><path fill="#5F5A76" d="M50.345 25.172c0-6.724-2.619-13.05-7.37-17.801C38.221 2.619 31.896 0 25.171 0 18.447 0 12.121 2.619 7.37 7.37A25.026 25.026 0 0 0 0 25.173v11.919c0 6.734 5.485 12.22 12.22 12.22a1.45 1.45 0 0 0 1.455-1.455v-21.52a1.45 1.45 0 0 0-1.455-1.455 12.18 12.18 0 0 0-9.31 4.31v-4.019C2.91 12.9 12.898 2.91 25.171 2.91c12.274 0 22.263 9.99 22.263 22.263 0 .097.011.194.033.291a1.338 1.338 0 0 0-.033.291v4.02a12.18 12.18 0 0 0-9.31-4.31c-.808 0-1.455.646-1.455 1.454v21.52c0 .808.647 1.454 1.455 1.454 6.735 0 12.22-5.485 12.22-12.22V25.754c0-.097-.01-.194-.032-.29.021-.098.032-.195.032-.292z"/><path fill="#FFF" d="M10.754 27.899v18.383c-4.44-.7-7.855-4.558-7.855-9.191.01-4.634 3.416-8.492 7.855-9.192zM39.59 46.864V28.481c4.44.7 7.856 4.558 7.856 9.191a9.33 9.33 0 0 1-7.855 9.192z"/></g></svg>