<svg xmlns="http://www.w3.org/2000/svg" width="33" height="50" viewBox="0 0 33 50"><g fill="none"><path fill="#5F5A76" d="M31.687 16.642c-.646 0-1.171.524-1.171 1.172v7.32c0 7.743-6.3 14.043-14.044 14.043-7.744 0-14.044-6.3-14.044-14.043v-7.32a1.172 1.172 0 0 0-2.343 0v7.32c0 8.641 6.724 15.741 15.215 16.344v6.082H9.24a1.172 1.172 0 0 0 0 2.343h14.463a1.172 1.172 0 0 0 0-2.343h-6.06v-6.082c8.491-.603 15.216-7.703 15.216-16.344v-7.32c0-.648-.525-1.172-1.172-1.172z"/><path fill="#5F5A76" d="M17.253 0H15.69c-5.356 0-9.713 4.357-9.713 9.713v16.201c0 5.356 4.357 9.713 9.713 9.713h1.562c5.355 0 9.712-4.357 9.712-9.713V9.713C26.965 4.357 22.608 0 17.253 0z"/><path fill="#FFF" d="M24.622 12.754h-4.246a1.171 1.171 0 1 0 0 2.343h4.246v3.26h-4.246a1.171 1.171 0 1 0 0 2.344h4.246v3.261h-4.246a1.171 1.171 0 1 0 0 2.343h4.236c-.204 3.883-3.427 6.979-7.36 6.979h-1.56c-3.933 0-7.156-3.096-7.36-6.979h4.236a1.171 1.171 0 1 0 0-2.343H8.322v-3.261h4.246a1.171 1.171 0 1 0 0-2.343H8.322v-3.261h4.246a1.171 1.171 0 1 0 0-2.343H8.322V9.713a7.38 7.38 0 0 1 4.176-6.642v3.312a1.172 1.172 0 1 0 2.343 0v-3.99c.28-.032 2.982-.032 3.261 0v3.99a1.171 1.171 0 1 0 2.344 0V3.071a7.379 7.379 0 0 1 4.176 6.642v3.04z"/></g></svg>