<svg xmlns="http://www.w3.org/2000/svg" width="404" height="293" viewBox="0 0 404 293"><path d="M2.922 2v300M17.668 2v300M32.415 2v300M47.161 2v300M61.908 2v300M76.654 2v300M91.4 2v300M106.147 2v300M120.894 2v300M135.64 2v300M150.387 2v300M165.134 2v300M179.88 2v300M194.627 2v300M209.373 2v300M224.12 2v300M238.866 2v300M253.613 2v300M268.36 2v300M283.106 2v300M297.853 2v300M312.6 2v300M327.346 2v300M342.092 2v300M356.839 2v300M371.585 2v300M386.332 2v300M401.078 2v300" fill="none" fill-rule="evenodd" stroke="#2c0fef" stroke-dasharray="0,16" stroke-linecap="round" stroke-linejoin="round" stroke-width="4"/></svg>