<svg xmlns="http://www.w3.org/2000/svg" width="38" height="27" viewBox="0 0 38 27"><g fill="#393649"><path d="M36.268 7.297H19.776V1.095a1.095 1.095 0 1 0-2.19 0v6.202H1.095C.49 7.297 0 7.787 0 8.392v17.513C0 26.51.49 27 1.095 27h35.173c.604 0 1.094-.49 1.094-1.095V8.392c0-.605-.49-1.095-1.094-1.095zm-1.095 17.514H2.189V9.486h32.984v15.325z"/><path d="M9.924 16.054H5.546a1.095 1.095 0 1 0 0 2.19h4.378a1.095 1.095 0 1 0 0-2.19zm5.473 1.095a1.095 1.095 0 1 1-2.189 0 1.095 1.095 0 0 1 2.19 0zm4.379 0a1.095 1.095 0 1 1-2.19 0 1.095 1.095 0 0 1 2.19 0zm4.378 0a1.095 1.095 0 1 1-2.189 0 1.095 1.095 0 0 1 2.19 0zm4.378 0a1.095 1.095 0 1 1-2.189 0 1.095 1.095 0 0 1 2.19 0zm4.378 0a1.095 1.095 0 1 1-2.188 0 1.095 1.095 0 0 1 2.189 0zM8.83 21.527a1.095 1.095 0 1 1-2.19 0 1.095 1.095 0 0 1 2.19 0zm21.892 0a1.095 1.095 0 1 1-2.19 0 1.095 1.095 0 0 1 2.19 0zM6.64 12.77a1.095 1.095 0 1 1-2.188 0 1.095 1.095 0 0 1 2.189 0zm4.379 0a1.095 1.095 0 1 1-2.19 0 1.095 1.095 0 0 1 2.19 0zm4.378 0a1.095 1.095 0 1 1-2.189 0 1.095 1.095 0 0 1 2.19 0zm4.379 0a1.095 1.095 0 1 1-2.19 0 1.095 1.095 0 0 1 2.19 0zm4.378 0a1.095 1.095 0 1 1-2.189 0 1.095 1.095 0 0 1 2.19 0zm4.378 0a1.095 1.095 0 1 1-2.189 0 1.095 1.095 0 0 1 2.19 0zm4.378 0a1.095 1.095 0 1 1-2.188 0 1.095 1.095 0 0 1 2.189 0zm-21.891 8.757c0 .605.49 1.095 1.095 1.095h13.135a1.095 1.095 0 1 0 0-2.19H12.114c-.605 0-1.095.49-1.095 1.095z"/></g></svg>