<svg xmlns="http://www.w3.org/2000/svg" width="20" height="27" viewBox="0 0 20 27"><g fill="#393649"><path d="M14.956 5.105V4.38c0-.61-.487-1.102-1.09-1.102h-1.605c.152-.315.239-.655.239-1.02C12.5 1.017 11.502 0 10.273 0 9.046 0 8.047 1.018 8.047 2.262c0 .365.086.703.239 1.018H6.134c-.602 0-1.088.492-1.088 1.102v.723H2.304c-.974 0-1.765.8-1.765 1.786v18.322A1.777 1.777 0 0 0 2.304 27h15.394c.974 0 1.764-.8 1.764-1.787V6.89c0-.986-.791-1.786-1.764-1.786h-2.742zM8.946 2.26c0-.741.597-1.349 1.327-1.349.731 0 1.327.609 1.327 1.351 0 .405-.178.772-.456 1.018h-1.74a1.356 1.356 0 0 1-.457-1.02zm8.713 21.988c0 .511-.41.928-.916.928H3.258a.922.922 0 0 1-.916-.928V7.856c0-.512.41-.927.915-.927h1.788c0 .504.403.912.9.912h8.11a.907.907 0 0 0 .9-.912h1.79c.504 0 .915.414.915.927v16.392z"/><path d="M9.275 16.514L8.177 15.4a.657.657 0 0 0-.934 0l-.34.345a.674.674 0 0 0 0 .944l1.929 1.955a.656.656 0 0 0 .946-.015l3.351-3.598a.673.673 0 0 0-.027-.943l-.35-.334a.65.65 0 0 0-.932.027l-2.545 2.733z"/><path d="M10 9.2c-3.63 0-6.582 2.993-6.582 6.673 0 3.678 2.952 6.673 6.582 6.673s6.583-2.995 6.583-6.673c0-3.68-2.952-6.674-6.583-6.674zm0 11.523c-2.638 0-4.782-2.175-4.782-4.85 0-2.674 2.144-4.85 4.782-4.85 2.637 0 4.783 2.175 4.783 4.85 0 2.674-2.146 4.85-4.783 4.85z"/></g></svg>