<svg xmlns="http://www.w3.org/2000/svg" width="62" height="66" viewBox="0 0 62 66"><g fill="#6f5aff" stroke="#FFF" stroke-width=".5"><path d="M58.975 49.856c-1.34-1.962-3.208-3.325-5.402-3.94a.934.934 0 0 0-.08-.018l-9.287-1.736-3.124-4.138c.165-.188.328-.38.487-.579 2.753-3.416 4.331-7.936 4.331-12.402v-4.018c2.936-9.313 1.85-17.17.897-19.336l-.004-.01a.92.92 0 0 0-.027-.054l-.017-.03a.942.942 0 0 0-.028-.045c-.008-.012-.015-.024-.024-.035l-.026-.033-.032-.04-.024-.024-.04-.041-.023-.019a.988.988 0 0 0-.047-.039l-.026-.018-.047-.032-.036-.02-.041-.023-.047-.02a.472.472 0 0 0-.12-.043c-.018-.005-.036-.01-.053-.013l-.036-.008-.048-.006-.045-.005-.04-.001h-.055l-.033.001a.94.94 0 0 0-.062.006l-.01.001c-2.518.36-5.56-.25-8.779-.897-5.386-1.082-10.951-2.197-15.288.913a.936.936 0 0 0-.215-.025c-4.43 0-7.523 3.675-7.523 8.937 0 4.099 1.73 11.76 1.969 12.798v2.17c0 4.465 1.584 8.987 4.345 12.407.16.198.322.389.486.576l-3.13 4.145-9.285 1.735a.945.945 0 0 0-.08.02c-2.195.614-4.063 1.976-5.403 3.939A10.94 10.94 0 0 0 1 55.959v5.48c0 1.965 1.767 3.565 3.938 3.565h52c2.171 0 3.937-1.6 3.937-3.565v-5.48c0-2.14-.674-4.307-1.9-6.103zm-41.267-3.793l5.543 8.182c-2.119-1.74-4.538-4.26-7.03-7.904l1.487-.278zm13.231 2.602l-3.882-4.314c1.26.43 2.565.653 3.892.653 1.318 0 2.614-.22 3.864-.644l-3.874 4.305zm0 2.605l2.365 1.905c-1.198.63-2.05.864-2.364.936-.318-.073-1.17-.308-2.365-.936l2.364-1.905zm-4.523 3.644l.583-.47c2.238 1.313 3.74 1.54 3.808 1.55a.942.942 0 0 0 .265 0c.068-.01 1.57-.237 3.808-1.55l.582.47a1.93 1.93 0 0 0 1.512.518c.04-.004.08-.012.12-.018-3.072 2.156-5.256 2.596-5.658 2.662l-.497.081-.496-.081c-.402-.066-2.586-.506-5.657-2.662.04.006.078.014.119.018a1.93 1.93 0 0 0 1.512-.518zm17.755-8.85l1.487.277c-2.492 3.644-4.912 6.164-7.03 7.904l5.543-8.182zm-7.329 7.474a.053.053 0 0 1-.045.027c-.03.003-.044-.011-.05-.018a.906.906 0 0 0-.075-.067l-4.373-3.523 7.577-8.419 2.686 3.558-5.72 8.442zm.097-31.41a4.94 4.94 0 0 0-4.311 2.537 2.92 2.92 0 0 0-1.689-.536 2.92 2.92 0 0 0-1.688.536 4.94 4.94 0 0 0-4.312-2.536 4.945 4.945 0 0 0-4.54 3h-2.525c.25-3.492 2.07-7.8 2.698-9.195 6.937-.82 12.464-.006 15.908.836 3.043.744 5.03 1.636 5.728 1.976l1.817 4.325v2.058H41.48a4.944 4.944 0 0 0-4.54-3zm3.063 4.938a3.066 3.066 0 0 1-3.063 3.063 3.066 3.066 0 0 1-3.062-3.063 3.066 3.066 0 0 1 3.062-3.062 3.066 3.066 0 0 1 3.063 3.062zm-15.063-3.062a3.066 3.066 0 0 1 3.063 3.062 3.066 3.066 0 0 1-3.063 3.063 3.066 3.066 0 0 1-3.062-3.063 3.066 3.066 0 0 1 3.062-3.062zm-9.062-11.938c0-4.878 2.836-7.062 5.647-7.062a.958.958 0 0 0 .28-.042c.278.085.592.04.841-.149 3.694-2.806 8.94-1.753 14.013-.734 2.652.533 5.188 1.042 7.526 1.042.378 0 .749-.015 1.116-.044.627 2.216 1.237 7.937-.51 14.975l-.986-2.349a.937.937 0 0 0-.411-.457c-.369-.203-9.185-4.96-23.573-3.11l-.006.002c-.02.002-.04.007-.06.01l-.033.007-.046.013-.044.013-.014.006a.928.928 0 0 0-.45.35l-.023.033-.017.031-.029.052c0 .002-.002.004-.003.005a41.46 41.46 0 0 0-2.16 5.647c-.513-2.69-1.058-6.06-1.058-8.239zm1.968 14.969v-.031h2.159l-.002.062a4.943 4.943 0 0 0 4.937 4.938 4.943 4.943 0 0 0 4.938-4.938 1.064 1.064 0 0 1 2.125 0 4.943 4.943 0 0 0 4.937 4.938 4.943 4.943 0 0 0 4.938-4.938l-.002-.062h2.15v.039c0 4.045-1.427 8.137-3.916 11.226-2.525 3.134-5.778 4.86-9.16 4.86-3.383 0-6.641-1.728-9.174-4.865-2.497-3.093-3.93-7.186-3.93-11.23zm4.158 14.503l7.577 8.42-4.373 3.522a.906.906 0 0 0-.074.068c-.007.006-.021.02-.05.017-.03-.002-.041-.02-.046-.027l-5.72-8.442 2.686-3.558zm-13.23 6.195l5.48-1.024a.936.936 0 0 0 .113.238c3.162 4.727 6.628 8.304 10.3 10.632 2.865 1.816 4.915 2.256 5.474 2.347l.648.106a.943.943 0 0 0 .302 0l.648-.106c.56-.091 2.61-.53 5.474-2.347 3.673-2.328 7.138-5.905 10.3-10.632a.936.936 0 0 0 .114-.238l5.48 1.024a7.53 7.53 0 0 1 2.55 1.291L52.62 52.06a8.879 8.879 0 0 0-2.618 6.32v4.749H11.877V58.38a8.88 8.88 0 0 0-2.618-6.32l-3.036-3.036a7.53 7.53 0 0 1 2.55-1.291zM2.877 61.439v-5.48c0-1.888.682-3.98 2.009-5.62l3.047 3.047a7.016 7.016 0 0 1 2.069 4.994v4.749H4.939c-1.137 0-2.062-.758-2.062-1.69zm56.125 0c0 .932-.925 1.69-2.063 1.69h-5.062V58.38c0-1.886.734-3.66 2.068-4.994l3.048-3.047c1.326 1.64 2.009 3.732 2.009 5.62v5.48z"/><path d="M24.94 29.004a1.94 1.94 0 0 0 1.937-1.938.938.938 0 0 0-1.875 0 .063.063 0 0 1-.063.063.938.938 0 0 0 0 1.875zm11.062-.938c0 .518.42.938.937.938a1.94 1.94 0 0 0 1.938-1.938.938.938 0 0 0-1.875 0 .063.063 0 0 1-.063.063.938.938 0 0 0-.937.937z"/></g></svg>