<svg xmlns="http://www.w3.org/2000/svg" xmlns:xlink="http://www.w3.org/1999/xlink" width="76" height="76" viewBox="0 0 76 76"><defs><path id="b" d="M42 21c0 11.608-9.394 21-21 21C9.392 42 0 32.606 0 21 0 9.392 9.394 0 21 0c11.608 0 21 9.394 21 21z"/><filter id="a" width="235.7%" height="235.7%" x="-67.9%" y="-53.6%" filterUnits="objectBoundingBox"><feOffset dy="6" in="SourceAlpha" result="shadowOffsetOuter1"/><feGaussianBlur in="shadowOffsetOuter1" result="shadowBlurOuter1" stdDeviation="8.5"/><feComposite in="shadowBlurOuter1" in2="SourceAlpha" operator="out" result="shadowBlurOuter1"/><feColorMatrix in="shadowBlurOuter1" values="0 0 0 0 0.0862745098 0 0 0 0 0.705882353 0 0 0 0 0.290196078 0 0 0 0.3 0"/></filter></defs><g fill="none" fill-rule="evenodd"><g transform="translate(17 11)"><use fill="#000" filter="url(#a)" xlink:href="#b"/><path fill="#16B44A" stroke="#FFF" stroke-linejoin="square" stroke-opacity=".675" stroke-width="3" d="M40.5 21c0-10.778-8.721-19.5-19.5-19.5C10.222 1.5 1.5 10.221 1.5 21c0 10.778 8.721 19.5 19.5 19.5 10.778 0 19.5-8.721 19.5-19.5z"/></g><path fill="#FFF" fill-rule="nonzero" stroke="#FFF" d="M47.283 25.337c.64.64.64 1.68 0 2.32L36.277 38.663a1.64 1.64 0 0 1-2.32 0l-5.24-5.24a1.64 1.64 0 1 1 2.32-2.32l4.08 4.08 9.846-9.846a1.64 1.64 0 0 1 2.32 0z"/></g></svg>