<svg xmlns="http://www.w3.org/2000/svg" xmlns:xlink="http://www.w3.org/1999/xlink" width="543" height="322" viewBox="0 0 543 322"><defs><rect id="b" width="429" height="252" rx="4"/><filter id="a" width="127.3%" height="146.4%" x="-13.6%" y="-18.5%" filterUnits="objectBoundingBox"><feOffset dy="12" in="SourceAlpha" result="shadowOffsetOuter1"/><feGaussianBlur in="shadowOffsetOuter1" result="shadowBlurOuter1" stdDeviation="17.5"/><feColorMatrix in="shadowBlurOuter1" values="0 0 0 0 0.925490196 0 0 0 0 0.941176471 0 0 0 0 0.945098039 0 0 0 1 0"/></filter><rect id="d" width="393" height="83" x="17" y="146" rx="4"/><filter id="c" width="113.7%" height="165.1%" x="-6.9%" y="-25.3%" filterUnits="objectBoundingBox"><feOffset dy="6" in="SourceAlpha" result="shadowOffsetOuter1"/><feGaussianBlur in="shadowOffsetOuter1" result="shadowBlurOuter1" stdDeviation="8"/><feComposite in="shadowBlurOuter1" in2="SourceAlpha" operator="out" result="shadowBlurOuter1"/><feColorMatrix in="shadowBlurOuter1" values="0 0 0 0 0.925490196 0 0 0 0 0.941176471 0 0 0 0 0.945098039 0 0 0 1 0"/></filter><circle id="f" cx="458.5" cy="170.5" r="16.5"/><filter id="e" width="454.5%" height="454.5%" x="-177.3%" y="-140.9%" filterUnits="objectBoundingBox"><feOffset dy="12" in="SourceAlpha" result="shadowOffsetOuter1"/><feGaussianBlur in="shadowOffsetOuter1" result="shadowBlurOuter1" stdDeviation="17.5"/><feComposite in="shadowBlurOuter1" in2="SourceAlpha" operator="out" result="shadowBlurOuter1"/><feColorMatrix in="shadowBlurOuter1" values="0 0 0 0 0.556862745 0 0 0 0 0.835294118 0 0 0 0 1 0 0 0 0.520787806 0"/></filter></defs><g fill="none" fill-rule="evenodd" transform="translate(35 23)"><g transform="translate(135 216)"><circle cx="5.5" cy="5.5" r="3.5" fill="#08C3F9"/><circle cx="5.5" cy="5.5" r="5.5" stroke="#979797" stroke-width=".6"/></g><circle cx="210.5" cy="221.5" r="5.5" stroke="#979797" stroke-width=".6"/><path fill="#727272" fill-rule="nonzero" d="M377.693 177.122a.354.354 0 0 0-.254-.104h-5.076a.355.355 0 0 0-.255.104.331.331 0 0 0-.108.246c0 .095.036.177.108.247l2.538 2.451a.35.35 0 0 0 .255.104.355.355 0 0 0 .254-.104l2.538-2.451a.331.331 0 0 0 .108-.247.332.332 0 0 0-.108-.246z"/><use fill="#000" filter="url(#a)" xlink:href="#b"/><use fill="#FFF" xlink:href="#b"/><use fill="#000" filter="url(#c)" xlink:href="#d"/><rect width="392" height="82" x="17.5" y="146.5" fill="#FAFAFA" stroke="#ECF0F1" stroke-linejoin="square" rx="4"/><text fill="#393649" font-family="Roboto-Regular, Roboto" font-size="14" letter-spacing=".28"><tspan x="176" y="39">Band Score:</tspan></text><text fill="#706C87" font-family="Roboto-Medium, Roboto" font-size="11" font-weight="400" letter-spacing=".22"><tspan x="70.488" y="203">Task</tspan> <tspan x="49.114" y="216">Achievement</tspan></text><text fill="#706C87" font-family="Roboto-Black, Roboto" font-size="80" font-weight="700" letter-spacing="1.6"><tspan x="155.182" y="113">8.0</tspan></text><text fill="#4390BE" font-family="Roboto-Bold, Roboto" font-size="26" font-weight="bold" letter-spacing=".52"><tspan x="63.026" y="185">7.0</tspan></text><text fill="#706C87" font-family="Roboto-Medium, Roboto" font-size="11" font-weight="400" letter-spacing=".22"><tspan x="145.06" y="203">Coherence</tspan> <tspan x="137.511" y="216">and Cohesion</tspan></text><text fill="#4390BE" font-family="Roboto-Bold, Roboto" font-size="26" font-weight="bold" letter-spacing=".52"><tspan x="153.026" y="185">8.5</tspan></text><text fill="#706C87" font-family="Roboto-Medium, Roboto" font-size="11" font-weight="400" letter-spacing=".22"><tspan x="244.373" y="203">Lexical</tspan> <tspan x="238.497" y="216">Resource</tspan></text><text fill="#4390BE" font-family="Roboto-Bold, Roboto" font-size="26" font-weight="bold" letter-spacing=".52"><tspan x="243.026" y="185">8.0</tspan></text><text fill="#706C87" font-family="Roboto-Medium, Roboto" font-size="11" font-weight="400" letter-spacing=".22"><tspan x="320.721" y="203">Gramma</tspan> <tspan x="307.812" y="216">and Accuracy</tspan></text><text fill="#4390BE" font-family="Roboto-Bold, Roboto" font-size="26" font-weight="bold" letter-spacing=".52"><tspan x="323.026" y="185">8.5</tspan></text><circle cx="459" cy="66" r="13" fill="#FFF" stroke="#8D88A5" stroke-opacity=".617" stroke-width=".5"/><circle cx="459" cy="99" r="13" fill="#FFF" stroke="#8D88A5" stroke-opacity=".617" stroke-width=".5"/><circle cx="459" cy="135" r="13" fill="#FFF" stroke="#8D88A5" stroke-opacity=".617" stroke-width=".5"/><use fill="#000" filter="url(#e)" xlink:href="#f"/><circle cx="458.5" cy="170.5" r="16" fill="#579FCA" stroke="#579FCA" stroke-linejoin="square"/><path fill="#8D88A5" fill-rule="nonzero" d="M454.28 64.595H454V62h9v2.595h-.266c-.158-.599-.333-1.03-.525-1.291a2.001 2.001 0 0 0-.79-.626c-.188-.083-.515-.126-.984-.126h-.746v5.808c0 .49.028.797.085.919.056.122.167.229.331.321.166.093.39.139.677.139h.332V70h-5.245v-.261h.333c.29 0 .524-.05.701-.15a.687.687 0 0 0 .303-.338c.054-.113.082-.41.082-.89v-5.81h-.725c-.675 0-1.165.137-1.47.41-.428.382-.7.926-.812 1.634z"/><g fill="#8D88A5" fill-rule="nonzero"><path d="M458.908 101.324a.51.51 0 0 0-.504.504c0 .275.23.505.504.505.264 0 .505-.23.493-.493a.493.493 0 0 0-.493-.516z"/><path d="M463.578 103.112a1.723 1.723 0 0 0 .004-1.744l-3.16-5.472a1.717 1.717 0 0 0-1.512-.878c-.633 0-1.199.329-1.511.876l-3.164 5.478a1.736 1.736 0 0 0 .006 1.754c.314.54.877.866 1.507.866h6.312a1.74 1.74 0 0 0 1.518-.88zm-.686-.396a.954.954 0 0 1-.834.483h-6.312a.955.955 0 0 1-.825-1.435l3.164-5.477a.936.936 0 0 1 .825-.478.94.94 0 0 1 .825.48l3.163 5.477c.17.294.167.65-.006.95z"/><path d="M458.783 97.782c-.24.069-.39.287-.39.551.013.16.023.321.035.48l.103 1.81a.37.37 0 0 0 .377.356c.206 0 .367-.16.377-.367 0-.126 0-.24.013-.368l.068-1.168c.012-.252.035-.505.047-.757a.623.623 0 0 0-.047-.252.506.506 0 0 0-.583-.285z"/></g><path d="M454.402 135.35h.769a3.842 3.842 0 0 0 3.479 3.48v.768c0 .188.153.35.35.35.188 0 .35-.153.35-.35v-.769a3.842 3.842 0 0 0 3.48-3.479h.768c.188 0 .35-.153.35-.35a.352.352 0 0 0-.35-.35h-.769a3.842 3.842 0 0 0-3.479-3.48v-.768a.352.352 0 0 0-.35-.35.352.352 0 0 0-.35.35v.769a3.842 3.842 0 0 0-3.48 3.479h-.768a.347.347 0 0 0-.35.35c0 .197.162.35.35.35zm2.88-.7h-1.41a3.144 3.144 0 0 1 2.778-2.778v1.41c0 .188.153.35.35.35.188 0 .35-.153.35-.35v-1.41a3.144 3.144 0 0 1 2.778 2.778h-1.41a.352.352 0 0 0-.35.35c0 .188.153.35.35.35h1.41a3.144 3.144 0 0 1-2.778 2.778v-1.41a.352.352 0 0 0-.35-.35.352.352 0 0 0-.35.35v1.41a3.144 3.144 0 0 1-2.778-2.778h1.41c.188 0 .35-.153.35-.35a.358.358 0 0 0-.35-.35z" fill="#8D88A5" fill-rule="nonzero"/><path d="M469.375 167.26h-18.748a.624.624 0 1 1 0-1.247h18.748a.624.624 0 1 1 0 1.246zm-18.748 3.116h18.748a.624.624 0 1 1 0 1.247h-18.748a.624.624 0 1 1 0-1.247zm0 4.364h12.499a.624.624 0 1 1 0 1.246h-12.5a.624.624 0 1 1 0-1.247z" fill="#FFF" fill-rule="nonzero"/><path d="M465.364 177.582a.396.396 0 0 0-.085.451l9.08 19.735a.399.399 0 0 0 .755-.1l1.487-8.852 8.385-1.012a.399.399 0 0 0 .13-.75l-19.297-9.543a.4.4 0 0 0-.455.071z" fill="#5F5A76" fill-rule="nonzero"/></g></svg>