<svg xmlns="http://www.w3.org/2000/svg" width="27" height="27" viewBox="0 0 27 27"><g fill="#6F5AFF"><circle cx="13.5" cy="19.96" r="1.318"/><path d="M13.5 0C6.039 0 0 6.038 0 13.5 0 20.961 6.038 27 13.5 27 20.961 27 27 20.962 27 13.5 27 6.039 20.962 0 13.5 0zm0 24.89A11.384 11.384 0 0 1 2.11 13.5c0-6.295 5.094-11.39 11.39-11.39 6.295 0 11.39 5.094 11.39 11.39 0 6.295-5.094 11.39-11.39 11.39z"/><path stroke="#6F5AFF" stroke-width=".5" d="M13.5 6.776a4.224 4.224 0 0 0-4.219 4.22 1.055 1.055 0 1 0 2.11 0c0-1.164.946-2.11 2.109-2.11s2.11.946 2.11 2.11a2.112 2.112 0 0 1-2.11 2.108c-.583 0-1.055.473-1.055 1.055v2.637a1.055 1.055 0 1 0 2.11 0V15.08a4.226 4.226 0 0 0 3.164-4.085A4.224 4.224 0 0 0 13.5 6.776z"/></g></svg>