<svg xmlns="http://www.w3.org/2000/svg" width="27" height="27" viewBox="0 0 27 27"><g fill="#6F5AFF"><path d="M26.745 13.088l.03-.04.036-.048.03-.05.026-.045c.01-.017.017-.034.025-.051.008-.016.016-.032.022-.049l.019-.05.019-.054.013-.05c.004-.02.01-.037.013-.056l.01-.06.007-.05a1.132 1.132 0 0 0 0-.221l-.008-.05a.558.558 0 0 0-.009-.059c-.003-.019-.009-.037-.013-.056l-.013-.05-.02-.054a.298.298 0 0 0-.018-.05c-.006-.017-.014-.033-.022-.05l-.025-.05-.026-.046-.03-.049-.036-.048-.03-.04a1.132 1.132 0 0 0-.074-.082l-3.375-3.375a1.125 1.125 0 0 0-1.591 1.59l1.454 1.455H20.25V1.125C20.25.504 19.747 0 19.125 0H1.146c-.043 0-.086.001-.128.005L.99.008.965.01A1.076 1.076 0 0 0 .03.867V.87a1.118 1.118 0 0 0-.017.087L.012.965A1.116 1.116 0 0 0 0 1.168v22.457c0 .536.379.998.905 1.103l11.25 2.25a1.125 1.125 0 0 0 1.345-1.103V24.75h5.625c.622 0 1.125-.504 1.125-1.125V13.5h2.91l-1.455 1.454a1.125 1.125 0 0 0 1.59 1.591l3.376-3.375a1.44 1.44 0 0 0 .074-.082zM11.25 24.502l-9-1.8V2.637l9 2.7v19.165zM18 22.5h-4.5v-18c0-.497-.326-.935-.801-1.077L8.79 2.25H18V22.5z"/><path d="M9.053 15.848l-2.5-.8c-.67-.214-1.348.307-1.515 1.164-.168.857.24 1.726.909 1.94l2.5.8c.67.214 1.348-.307 1.515-1.164.168-.857-.24-1.726-.909-1.94z"/></g></svg>