<svg xmlns="http://www.w3.org/2000/svg" width="46" height="70" viewBox="0 0 46 70"><g fill="none"><path fill="#4390BE" d="M44.356 23a1.65 1.65 0 0 0-1.644 1.656v10.343c0 10.943-8.843 19.846-19.712 19.846S3.29 45.942 3.29 34.999V24.655A1.65 1.65 0 0 0 1.644 23 1.65 1.65 0 0 0 0 24.655V35c0 12.212 9.438 22.245 21.356 23.097v8.593H12.85a1.65 1.65 0 0 0-1.644 1.656A1.65 1.65 0 0 0 12.85 70h20.3a1.65 1.65 0 0 0 1.644-1.655 1.65 1.65 0 0 0-1.645-1.656h-8.505v-8.593C36.562 57.244 46 47.21 46 34.999V24.655A1.65 1.65 0 0 0 44.356 23z"/><path fill="#4390BE" d="M23.579 0H21.42C14.021 0 8 6.115 8 13.631V36.37C8 43.885 14.02 50 21.421 50h2.158C30.979 50 37 43.885 37 36.369V13.63C37 6.115 30.98 0 23.579 0z"/><path fill="#FFF" d="M34 17.444h-5.992c-.913 0-1.653.73-1.653 1.63 0 .9.74 1.629 1.653 1.629H34v4.536h-5.992c-.913 0-1.653.73-1.653 1.63 0 .9.74 1.629 1.653 1.629H34v4.536h-5.992c-.913 0-1.653.73-1.653 1.63 0 .9.74 1.629 1.653 1.629h5.977C33.698 41.693 29.15 46 23.602 46h-2.204c-5.548 0-10.096-4.307-10.383-9.707h5.977c.913 0 1.653-.73 1.653-1.63 0-.9-.74-1.63-1.653-1.63H11v-4.535h5.992c.913 0 1.653-.73 1.653-1.63 0-.9-.74-1.63-1.653-1.63H11v-4.535h5.992c.913 0 1.653-.73 1.653-1.63 0-.9-.74-1.63-1.653-1.63H11v-4.229c0-4.062 2.41-7.58 5.893-9.238v4.607c0 .9.74 1.63 1.653 1.63s1.653-.73 1.653-1.63v-5.55c.394-.044 4.208-.044 4.602 0v5.55c0 .9.74 1.63 1.653 1.63.912 0 1.653-.73 1.653-1.63V3.976C31.59 5.634 34 9.152 34 13.214v4.23z"/></g></svg>