<svg xmlns="http://www.w3.org/2000/svg" width="29" height="27" viewBox="0 0 29 27"><g fill="#D7DADA"><path d="M15.023 19c-1.1 0-2.023.912-2.023 2s.923 2 2.023 2c1.06 0 2.024-.912 1.975-1.952A1.963 1.963 0 0 0 15.023 19z"/><path d="M28.294 24.353a5.266 5.266 0 0 0 .012-5.246L18.971 2.641C18.047.984 16.377 0 14.506 0c-1.872 0-3.541.99-4.465 2.635L.693 19.119a5.308 5.308 0 0 0 .018 5.276C1.64 26.022 3.304 27 5.164 27h18.647c1.866 0 3.541-.99 4.483-2.647zm-2.027-1.19c-.518.91-1.436 1.45-2.462 1.45H5.158a2.77 2.77 0 0 1-2.432-1.42 2.919 2.919 0 0 1-.006-2.896L12.067 3.82a2.758 2.758 0 0 1 2.439-1.439 2.77 2.77 0 0 1 2.438 1.445l9.341 16.478a2.88 2.88 0 0 1-.018 2.86z"/><path d="M14.529 8.044C13.586 8.258 13 8.937 13 9.76c.048.497.087 1 .135 1.496.134 1.892.269 3.746.404 5.638.047.64.673 1.106 1.48 1.106.809 0 1.442-.497 1.482-1.144 0-.39 0-.748.048-1.144.087-1.213.182-2.426.269-3.639.047-.786.134-1.571.182-2.357 0-.283-.048-.534-.182-.785-.404-.704-1.347-1.063-2.29-.887z"/></g></svg>